ChironHeiHKVF-weight390-Master.ufo
<glyph name="cid05741" format="2">
  <advance height="1000" width="1000"/>
  <unicode hex="3FFA"/>
  <outline>
    <contour>
      <point x="355" y="562" type="curve"/>
      <point x="355" y="562"/>
      <point x="355" y="314"/>
      <point x="355" y="314" type="curve"/>
      <point x="355" y="314"/>
      <point x="417" y="314"/>
      <point x="417" y="314" type="curve"/>
      <point x="417" y="314"/>
      <point x="417" y="562"/>
      <point x="417" y="562" type="curve"/>
      <point x="417" y="562"/>
      <point x="355" y="562"/>
    </contour>
    <contour>
      <point x="388" y="338" type="curve"/>
      <point x="388" y="338"/>
      <point x="340" y="316"/>
      <point x="340" y="316" type="curve"/>
      <point x="373" y="261"/>
      <point x="434" y="196"/>
      <point x="491" y="165" type="curve"/>
      <point x="501" y="181"/>
      <point x="522" y="204"/>
      <point x="536" y="216" type="curve"/>
      <point x="480" y="240"/>
      <point x="419" y="290"/>
    </contour>
    <contour>
      <point x="76" y="480" type="curve"/>
      <point x="76" y="480"/>
      <point x="76" y="422"/>
      <point x="76" y="422" type="curve"/>
      <point x="76" y="422"/>
      <point x="518" y="422"/>
      <point x="518" y="422" type="curve"/>
      <point x="518" y="422"/>
      <point x="518" y="480"/>
      <point x="518" y="480" type="curve"/>
      <point x="518" y="480"/>
      <point x="76" y="480"/>
    </contour>
    <contour>
      <point x="52" y="355" type="curve"/>
      <point x="52" y="355"/>
      <point x="52" y="297"/>
      <point x="52" y="297" type="curve"/>
      <point x="52" y="297"/>
      <point x="533" y="297"/>
      <point x="533" y="297" type="curve"/>
      <point x="533" y="297"/>
      <point x="533" y="355"/>
      <point x="533" y="355" type="curve"/>
      <point x="533" y="355"/>
      <point x="52" y="355"/>
    </contour>
    <contour>
      <point x="172" y="560" type="curve"/>
      <point x="172" y="560"/>
      <point x="172" y="315"/>
      <point x="172" y="315" type="curve"/>
      <point x="172" y="315"/>
      <point x="236" y="315"/>
      <point x="236" y="315" type="curve"/>
      <point x="236" y="315"/>
      <point x="236" y="560"/>
      <point x="236" y="560" type="curve"/>
      <point x="236" y="560"/>
      <point x="172" y="560"/>
    </contour>
    <contour>
      <point x="198" y="338" type="curve"/>
      <point x="163" y="288"/>
      <point x="97" y="235"/>
      <point x="37" y="210" type="curve"/>
      <point x="52" y="198"/>
      <point x="73" y="173"/>
      <point x="84" y="157" type="curve"/>
      <point x="145" y="190"/>
      <point x="213" y="256"/>
      <point x="249" y="315" type="curve"/>
      <point x="249" y="315"/>
      <point x="198" y="338"/>
    </contour>
    <contour>
      <point x="161" y="652" type="curve"/>
      <point x="161" y="652"/>
      <point x="434" y="652"/>
      <point x="434" y="652" type="curve"/>
      <point x="434" y="652"/>
      <point x="434" y="595"/>
      <point x="434" y="595" type="curve"/>
      <point x="434" y="595"/>
      <point x="161" y="595"/>
      <point x="161" y="595" type="curve"/>
      <point x="161" y="595"/>
      <point x="161" y="652"/>
    </contour>
    <contour>
      <point x="161" y="761" type="curve"/>
      <point x="161" y="761"/>
      <point x="434" y="761"/>
      <point x="434" y="761" type="curve"/>
      <point x="434" y="761"/>
      <point x="434" y="705"/>
      <point x="434" y="705" type="curve"/>
      <point x="434" y="705"/>
      <point x="161" y="705"/>
      <point x="161" y="705" type="curve"/>
      <point x="161" y="705"/>
      <point x="161" y="761"/>
    </contour>
    <contour>
      <point x="92" y="814" type="curve"/>
      <point x="92" y="814"/>
      <point x="92" y="542"/>
      <point x="92" y="542" type="curve"/>
      <point x="92" y="542"/>
      <point x="506" y="542"/>
      <point x="506" y="542" type="curve"/>
      <point x="506" y="542"/>
      <point x="506" y="814"/>
      <point x="506" y="814" type="curve"/>
      <point x="506" y="814"/>
      <point x="92" y="814"/>
    </contour>
    <contour>
      <point x="566" y="681" type="curve"/>
      <point x="566" y="681"/>
      <point x="566" y="613"/>
      <point x="566" y="613" type="curve"/>
      <point x="566" y="613"/>
      <point x="906" y="613"/>
      <point x="906" y="613" type="curve"/>
      <point x="906" y="613"/>
      <point x="906" y="681"/>
      <point x="906" y="681" type="curve"/>
      <point x="906" y="681"/>
      <point x="566" y="681"/>
    </contour>
    <contour>
      <point x="598" y="438" type="curve"/>
      <point x="598" y="438"/>
      <point x="598" y="372"/>
      <point x="598" y="372" type="curve"/>
      <point x="598" y="372"/>
      <point x="901" y="372"/>
      <point x="901" y="372" type="curve"/>
      <point x="901" y="372"/>
      <point x="901" y="438"/>
      <point x="901" y="438" type="curve"/>
      <point x="901" y="438"/>
      <point x="598" y="438"/>
    </contour>
    <contour>
      <point x="556" y="681" type="curve"/>
      <point x="556" y="681"/>
      <point x="556" y="440"/>
      <point x="556" y="440" type="curve"/>
      <point x="556" y="299"/>
      <point x="549" y="100"/>
      <point x="480" y="-42" type="curve"/>
      <point x="496" y="-48"/>
      <point x="523" y="-63"/>
      <point x="535" y="-74" type="curve"/>
      <point x="607" y="75"/>
      <point x="619" y="290"/>
      <point x="619" y="440" type="curve"/>
      <point x="619" y="440"/>
      <point x="619" y="681"/>
      <point x="619" y="681" type="curve"/>
      <point x="619" y="681"/>
      <point x="556" y="681"/>
    </contour>
    <contour>
      <point x="886" y="438" type="curve"/>
      <point x="886" y="438"/>
      <point x="886" y="425"/>
      <point x="886" y="425" type="curve"/>
      <point x="845" y="211"/>
      <point x="723" y="48"/>
      <point x="584" y="-22" type="curve"/>
      <point x="598" y="-34"/>
      <point x="616" y="-58"/>
      <point x="625" y="-74" type="curve"/>
      <point x="776" y="10"/>
      <point x="902" y="177"/>
      <point x="951" y="425" type="curve"/>
      <point x="951" y="425"/>
      <point x="909" y="440"/>
      <point x="909" y="440" type="curve"/>
      <point x="909" y="440"/>
      <point x="898" y="438"/>
      <point x="898" y="438" type="curve"/>
      <point x="898" y="438"/>
      <point x="886" y="438"/>
    </contour>
    <contour>
      <point x="681" y="391" type="curve"/>
      <point x="681" y="391"/>
      <point x="621" y="376"/>
      <point x="621" y="376" type="curve"/>
      <point x="674" y="173"/>
      <point x="775" y="6"/>
      <point x="924" y="-77" type="curve"/>
      <point x="935" y="-60"/>
      <point x="957" y="-36"/>
      <point x="972" y="-23" type="curve"/>
      <point x="829" y="49"/>
      <point x="728" y="207"/>
    </contour>
    <contour>
      <point x="894" y="681" type="curve"/>
      <point x="894" y="681"/>
      <point x="894" y="670"/>
      <point x="894" y="670" type="curve"/>
      <point x="883" y="611"/>
      <point x="864" y="536"/>
      <point x="848" y="491" type="curve"/>
      <point x="848" y="491"/>
      <point x="907" y="478"/>
      <point x="907" y="478" type="curve"/>
      <point x="926" y="528"/>
      <point x="947" y="604"/>
      <point x="964" y="671" type="curve"/>
      <point x="964" y="671"/>
      <point x="916" y="683"/>
      <point x="916" y="683" type="curve"/>
      <point x="916" y="683"/>
      <point x="904" y="681"/>
      <point x="904" y="681" type="curve"/>
      <point x="904" y="681"/>
      <point x="894" y="681"/>
    </contour>
    <contour>
      <point x="719" y="836" type="curve"/>
      <point x="719" y="836"/>
      <point x="719" y="402"/>
      <point x="719" y="402" type="curve"/>
      <point x="719" y="402"/>
      <point x="785" y="402"/>
      <point x="785" y="402" type="curve"/>
      <point x="785" y="402"/>
      <point x="785" y="836"/>
      <point x="785" y="836" type="curve"/>
      <point x="785" y="836"/>
      <point x="719" y="836"/>
    </contour>
    <contour>
      <point x="264" y="260" type="curve"/>
      <point x="264" y="260"/>
      <point x="264" y="-9"/>
      <point x="264" y="-9" type="curve"/>
      <point x="264" y="-18"/>
      <point x="263" y="-21"/>
      <point x="253" y="-21" type="curve"/>
      <point x="243" y="-22"/>
      <point x="215" y="-21"/>
      <point x="181" y="-20" type="curve"/>
      <point x="189" y="-34"/>
      <point x="199" y="-57"/>
      <point x="202" y="-72" type="curve"/>
      <point x="250" y="-72"/>
      <point x="281" y="-71"/>
      <point x="301" y="-61" type="curve" smooth="yes"/>
      <point x="321" y="-52"/>
      <point x="326" y="-37"/>
      <point x="326" y="-10" type="curve"/>
      <point x="326" y="-10"/>
      <point x="326" y="260"/>
      <point x="326" y="260" type="curve"/>
      <point x="326" y="260"/>
      <point x="264" y="260"/>
    </contour>
    <contour>
      <point x="332" y="47" type="curve"/>
      <point x="371" y="25"/>
      <point x="420" y="-4"/>
      <point x="448" y="-26" type="curve"/>
      <point x="448" y="-26"/>
      <point x="489" y="25"/>
      <point x="489" y="25" type="curve"/>
      <point x="460" y="46"/>
      <point x="410" y="74"/>
      <point x="368" y="95" type="curve"/>
      <point x="368" y="95"/>
      <point x="332" y="47"/>
    </contour>
    <contour>
      <point x="409" y="210" type="curve"/>
      <point x="391" y="188"/>
      <point x="355" y="152"/>
      <point x="330" y="132" type="curve"/>
      <point x="330" y="132"/>
      <point x="371" y="98"/>
      <point x="371" y="98" type="curve"/>
      <point x="397" y="115"/>
      <point x="430" y="142"/>
      <point x="461" y="168" type="curve"/>
      <point x="461" y="168"/>
      <point x="409" y="210"/>
    </contour>
    <contour>
      <point x="67" y="22" type="curve"/>
      <point x="67" y="22"/>
      <point x="94" y="-34"/>
      <point x="94" y="-34" type="curve"/>
      <point x="146" y="-11"/>
      <point x="202" y="15"/>
      <point x="260" y="43" type="curve"/>
      <point x="260" y="43"/>
      <point x="240" y="94"/>
      <point x="240" y="94" type="curve"/>
      <point x="175" y="66"/>
      <point x="112" y="39"/>
    </contour>
    <contour>
      <point x="117" y="159" type="curve"/>
      <point x="148" y="139"/>
      <point x="183" y="109"/>
      <point x="200" y="89" type="curve"/>
      <point x="200" y="89"/>
      <point x="247" y="134"/>
      <point x="247" y="134" type="curve"/>
      <point x="230" y="153"/>
      <point x="194" y="182"/>
      <point x="163" y="201" type="curve"/>
      <point x="163" y="201"/>
      <point x="117" y="159"/>
    </contour>
  </outline>
</glyph>
<glyph name="cid09654" format="2">
  <advance height="1000" width="1000"/>
  <unicode hex="4E82"/>
  <outline>
    <contour>
      <point x="137" y="605" type="curve"/>
      <point x="137" y="605"/>
      <point x="137" y="554"/>
      <point x="137" y="554" type="curve"/>
      <point x="137" y="554"/>
      <point x="501" y="554"/>
      <point x="501" y="554" type="curve"/>
      <point x="501" y="554"/>
      <point x="501" y="605"/>
      <point x="501" y="605" type="curve"/>
      <point x="501" y="605"/>
      <point x="137" y="605"/>
    </contour>
    <contour>
      <point x="218" y="204" type="curve"/>
      <point x="218" y="204"/>
      <point x="218" y="153"/>
      <point x="218" y="153" type="curve"/>
      <point x="218" y="153"/>
      <point x="414" y="153"/>
      <point x="414" y="153" type="curve"/>
      <point x="414" y="153"/>
      <point x="414" y="204"/>
      <point x="414" y="204" type="curve"/>
      <point x="414" y="204"/>
      <point x="218" y="204"/>
    </contour>
    <contour>
      <point x="505" y="430" type="curve"/>
      <point x="505" y="430"/>
      <point x="505" y="1"/>
      <point x="505" y="1" type="curve"/>
      <point x="505" y="-9"/>
      <point x="502" y="-11"/>
      <point x="492" y="-12" type="curve" smooth="yes"/>
      <point x="483" y="-13"/>
      <point x="451" y="-13"/>
      <point x="416" y="-12" type="curve"/>
      <point x="425" y="-27"/>
      <point x="435" y="-53"/>
      <point x="439" y="-69" type="curve"/>
      <point x="489" y="-69"/>
      <point x="521" y="-68"/>
      <point x="542" y="-58" type="curve" smooth="yes"/>
      <point x="564" y="-47"/>
      <point x="570" y="-30"/>
      <point x="570" y="0" type="curve"/>
      <point x="570" y="0"/>
      <point x="570" y="430"/>
      <point x="570" y="430" type="curve"/>
      <point x="570" y="430"/>
      <point x="505" y="430"/>
    </contour>
    <contour>
      <point x="401" y="204" type="curve"/>
      <point x="401" y="204"/>
      <point x="401" y="195"/>
      <point x="401" y="195" type="curve"/>
      <point x="366" y="102"/>
      <point x="274" y="23"/>
      <point x="189" y="-12" type="curve"/>
      <point x="201" y="-22"/>
      <point x="219" y="-40"/>
      <point x="227" y="-52" type="curve"/>
      <point x="321" y="-10"/>
      <point x="416" y="73"/>
      <point x="458" y="188" type="curve"/>
      <point x="458" y="188"/>
      <point x="419" y="207"/>
      <point x="419" y="207" type="curve"/>
      <point x="419" y="207"/>
      <point x="411" y="204"/>
      <point x="411" y="204" type="curve"/>
      <point x="411" y="204"/>
      <point x="401" y="204"/>
    </contour>
    <contour>
      <point x="474" y="605" type="curve"/>
      <point x="474" y="605"/>
      <point x="474" y="593"/>
      <point x="474" y="593" type="curve"/>
      <point x="437" y="556"/>
      <point x="368" y="510"/>
      <point x="308" y="482" type="curve"/>
      <point x="318" y="474"/>
      <point x="335" y="459"/>
      <point x="342" y="448" type="curve"/>
      <point x="412" y="478"/>
      <point x="491" y="526"/>
      <point x="546" y="577" type="curve"/>
      <point x="546" y="577"/>
      <point x="505" y="608"/>
      <point x="505" y="608" type="curve"/>
      <point x="505" y="608"/>
      <point x="491" y="605"/>
      <point x="491" y="605" type="curve"/>
      <point x="491" y="605"/>
      <point x="474" y="605"/>
    </contour>
    <contour>
      <point x="217" y="495" type="curve"/>
      <point x="277" y="472"/>
      <point x="351" y="433"/>
      <point x="389" y="405" type="curve"/>
      <point x="389" y="405"/>
      <point x="427" y="448"/>
      <point x="427" y="448" type="curve"/>
      <point x="389" y="477"/>
      <point x="311" y="513"/>
      <point x="252" y="533" type="curve"/>
      <point x="252" y="533"/>
      <point x="217" y="495"/>
    </contour>
    <contour>
      <point x="223" y="91" type="curve"/>
      <point x="294" y="65"/>
      <point x="379" y="22"/>
      <point x="422" y="-12" type="curve"/>
      <point x="422" y="-12"/>
      <point x="456" y="36"/>
      <point x="456" y="36" type="curve"/>
      <point x="411" y="69"/>
      <point x="325" y="111"/>
      <point x="255" y="135" type="curve"/>
      <point x="255" y="135"/>
      <point x="223" y="91"/>
    </contour>
    <contour>
      <point x="351" y="325" type="curve"/>
      <point x="383" y="293"/>
      <point x="418" y="248"/>
      <point x="435" y="218" type="curve"/>
      <point x="435" y="218"/>
      <point x="478" y="246"/>
      <point x="478" y="246" type="curve"/>
      <point x="461" y="275"/>
      <point x="425" y="319"/>
      <point x="392" y="350" type="curve"/>
      <point x="392" y="350"/>
      <point x="351" y="325"/>
    </contour>
    <contour>
      <point x="96" y="430" type="curve"/>
      <point x="96" y="430"/>
      <point x="96" y="-79"/>
      <point x="96" y="-79" type="curve"/>
      <point x="96" y="-79"/>
      <point x="160" y="-79"/>
      <point x="160" y="-79" type="curve"/>
      <point x="160" y="-79"/>
      <point x="160" y="369"/>
      <point x="160" y="369" type="curve"/>
      <point x="160" y="369"/>
      <point x="537" y="369"/>
      <point x="537" y="369" type="curve"/>
      <point x="537" y="369"/>
      <point x="537" y="430"/>
      <point x="537" y="430" type="curve"/>
      <point x="537" y="430"/>
      <point x="96" y="430"/>
    </contour>
    <contour>
      <point x="646" y="814" type="curve"/>
      <point x="646" y="814"/>
      <point x="646" y="54"/>
      <point x="646" y="54" type="curve"/>
      <point x="646" y="-41"/>
      <point x="666" y="-67"/>
      <point x="745" y="-67" type="curve" smooth="yes"/>
      <point x="761" y="-67"/>
      <point x="846" y="-67"/>
      <point x="862" y="-67" type="curve" smooth="yes"/>
      <point x="940" y="-67"/>
      <point x="956" y="-12"/>
      <point x="963" y="153" type="curve"/>
      <point x="944" y="157"/>
      <point x="916" y="170"/>
      <point x="899" y="184" type="curve"/>
      <point x="895" y="33"/>
      <point x="891" y="-4"/>
      <point x="857" y="-4" type="curve" smooth="yes"/>
      <point x="838" y="-4"/>
      <point x="769" y="-4"/>
      <point x="754" y="-4" type="curve" smooth="yes"/>
      <point x="721" y="-4"/>
      <point x="715" y="4"/>
      <point x="715" y="52" type="curve"/>
      <point x="715" y="52"/>
      <point x="715" y="814"/>
      <point x="715" y="814" type="curve"/>
      <point x="715" y="814"/>
      <point x="646" y="814"/>
    </contour>
    <contour>
      <point x="529" y="842" type="curve"/>
      <point x="426" y="808"/>
      <point x="236" y="783"/>
      <point x="78" y="770" type="curve"/>
      <point x="85" y="754"/>
      <point x="92" y="731"/>
      <point x="94" y="715" type="curve"/>
      <point x="254" y="726"/>
      <point x="445" y="751"/>
      <point x="568" y="790" type="curve"/>
      <point x="568" y="790"/>
      <point x="529" y="842"/>
    </contour>
    <contour>
      <point x="129" y="689" type="curve"/>
      <point x="145" y="665"/>
      <point x="161" y="630"/>
      <point x="167" y="607" type="curve"/>
      <point x="167" y="607"/>
      <point x="223" y="629"/>
      <point x="223" y="629" type="curve"/>
      <point x="216" y="653"/>
      <point x="200" y="686"/>
      <point x="183" y="709" type="curve"/>
      <point x="183" y="709"/>
      <point x="129" y="689"/>
    </contour>
    <contour>
      <point x="280" y="710" type="curve"/>
      <point x="296" y="683"/>
      <point x="311" y="644"/>
      <point x="316" y="618" type="curve"/>
      <point x="316" y="618"/>
      <point x="372" y="642"/>
      <point x="372" y="642" type="curve"/>
      <point x="365" y="667"/>
      <point x="350" y="704"/>
      <point x="334" y="730" type="curve"/>
      <point x="334" y="730"/>
      <point x="280" y="710"/>
    </contour>
    <contour>
      <point x="486" y="753" type="curve"/>
      <point x="472" y="717"/>
      <point x="444" y="665"/>
      <point x="423" y="632" type="curve"/>
      <point x="423" y="632"/>
      <point x="472" y="609"/>
      <point x="472" y="609" type="curve"/>
      <point x="494" y="638"/>
      <point x="520" y="683"/>
      <point x="545" y="725" type="curve"/>
      <point x="545" y="725"/>
      <point x="486" y="753"/>
    </contour>
    <contour>
      <point x="211" y="228" type="curve"/>
      <point x="226" y="230"/>
      <point x="253" y="233"/>
      <point x="433" y="248" type="curve"/>
      <point x="433" y="248"/>
      <point x="427" y="295"/>
      <point x="427" y="295" type="curve"/>
      <point x="427" y="295"/>
      <point x="239" y="282"/>
      <point x="239" y="282" type="curve"/>
      <point x="239" y="282"/>
      <point x="210" y="265"/>
      <point x="210" y="265" type="curve"/>
      <point x="210" y="265"/>
      <point x="211" y="228"/>
    </contour>
    <contour>
      <point x="211" y="228" type="curve"/>
      <point x="211" y="236"/>
      <point x="250" y="253"/>
      <point x="250" y="253" type="curve"/>
      <point x="250" y="253"/>
      <point x="250" y="254"/>
      <point x="250" y="254" type="curve"/>
      <point x="278" y="275"/>
      <point x="313" y="313"/>
      <point x="341" y="357" type="curve"/>
      <point x="341" y="357"/>
      <point x="284" y="376"/>
      <point x="284" y="376" type="curve"/>
      <point x="267" y="337"/>
      <point x="232" y="301"/>
      <point x="222" y="292" type="curve"/>
      <point x="213" y="283"/>
      <point x="204" y="278"/>
      <point x="193" y="276" type="curve"/>
      <point x="193" y="276"/>
      <point x="211" y="228"/>
    </contour>
  </outline>
</glyph>
<glyph name="cid09668" format="2">
  <advance height="1000" width="1000"/>
  <unicode hex="4E8B"/>
  <outline>
    <contour>
      <point x="459" y="840" type="curve"/>
      <point x="459" y="840"/>
      <point x="459" y="4"/>
      <point x="459" y="4" type="curve"/>
      <point x="459" y="-14"/>
      <point x="452" y="-19"/>
      <point x="434" y="-20" type="curve" smooth="yes"/>
      <point x="417" y="-21"/>
      <point x="356" y="-22"/>
      <point x="296" y="-20" type="curve"/>
      <point x="306" y="-37"/>
      <point x="319" y="-65"/>
      <point x="323" y="-83" type="curve"/>
      <point x="407" y="-83"/>
      <point x="459" y="-82"/>
      <point x="490" y="-71" type="curve" smooth="yes"/>
      <point x="521" y="-60"/>
      <point x="535" y="-42"/>
      <point x="535" y="4" type="curve"/>
      <point x="535" y="4"/>
      <point x="535" y="840"/>
      <point x="535" y="840" type="curve"/>
      <point x="535" y="840"/>
      <point x="459" y="840"/>
    </contour>
    <contour>
      <point x="67" y="760" type="curve"/>
      <point x="67" y="760"/>
      <point x="67" y="698"/>
      <point x="67" y="698" type="curve"/>
      <point x="67" y="698"/>
      <point x="935" y="698"/>
      <point x="935" y="698" type="curve"/>
      <point x="935" y="698"/>
      <point x="935" y="760"/>
      <point x="935" y="760" type="curve"/>
      <point x="935" y="760"/>
      <point x="67" y="760"/>
    </contour>
    <contour>
      <point x="244" y="583" type="curve"/>
      <point x="244" y="583"/>
      <point x="759" y="583"/>
      <point x="759" y="583" type="curve"/>
      <point x="759" y="583"/>
      <point x="759" y="515"/>
      <point x="759" y="515" type="curve"/>
      <point x="759" y="515"/>
      <point x="244" y="515"/>
      <point x="244" y="515" type="curve"/>
      <point x="244" y="515"/>
      <point x="244" y="583"/>
    </contour>
    <contour>
      <point x="172" y="641" type="curve"/>
      <point x="172" y="641"/>
      <point x="172" y="457"/>
      <point x="172" y="457" type="curve"/>
      <point x="172" y="457"/>
      <point x="835" y="457"/>
      <point x="835" y="457" type="curve"/>
      <point x="835" y="457"/>
      <point x="835" y="641"/>
      <point x="835" y="641" type="curve"/>
      <point x="835" y="641"/>
      <point x="172" y="641"/>
    </contour>
    <contour>
      <point x="143" y="392" type="curve"/>
      <point x="143" y="392"/>
      <point x="143" y="332"/>
      <point x="143" y="332" type="curve"/>
      <point x="143" y="332"/>
      <point x="775" y="332"/>
      <point x="775" y="332" type="curve"/>
      <point x="775" y="332"/>
      <point x="775" y="28"/>
      <point x="775" y="28" type="curve"/>
      <point x="775" y="28"/>
      <point x="851" y="28"/>
      <point x="851" y="28" type="curve"/>
      <point x="851" y="28"/>
      <point x="851" y="392"/>
      <point x="851" y="392" type="curve"/>
      <point x="851" y="392"/>
      <point x="143" y="392"/>
    </contour>
    <contour>
      <point x="48" y="266" type="curve"/>
      <point x="48" y="266"/>
      <point x="48" y="206"/>
      <point x="48" y="206" type="curve"/>
      <point x="48" y="206"/>
      <point x="955" y="206"/>
      <point x="955" y="206" type="curve"/>
      <point x="955" y="206"/>
      <point x="955" y="266"/>
      <point x="955" y="266" type="curve"/>
      <point x="955" y="266"/>
      <point x="48" y="266"/>
    </contour>
    <contour>
      <point x="134" y="132" type="curve"/>
      <point x="134" y="132"/>
      <point x="134" y="72"/>
      <point x="134" y="72" type="curve"/>
      <point x="134" y="72"/>
      <point x="814" y="72"/>
      <point x="814" y="72" type="curve"/>
      <point x="814" y="72"/>
      <point x="814" y="132"/>
      <point x="814" y="132" type="curve"/>
      <point x="814" y="132"/>
      <point x="134" y="132"/>
    </contour>
  </outline>
</glyph>
<glyph name="cid10000" format="2">
  <advance height="1000" width="1000"/>
  <unicode hex="4F69"/>
  <outline>
    <contour>
      <point x="324" y="789" type="curve"/>
      <point x="324" y="789"/>
      <point x="324" y="514"/>
      <point x="324" y="514" type="curve"/>
      <point x="324" y="354"/>
      <point x="317" y="123"/>
      <point x="241" y="-43" type="curve"/>
      <point x="257" y="-50"/>
      <point x="288" y="-68"/>
      <point x="300" y="-80" type="curve"/>
      <point x="380" y="92"/>
      <point x="391" y="347"/>
      <point x="391" y="515" type="curve"/>
      <point x="391" y="515"/>
      <point x="391" y="789"/>
      <point x="391" y="789" type="curve"/>
      <point x="391" y="789"/>
      <point x="324" y="789"/>
    </contour>
    <contour>
      <point x="360" y="789" type="curve"/>
      <point x="360" y="789"/>
      <point x="360" y="724"/>
      <point x="360" y="724" type="curve"/>
      <point x="360" y="724"/>
      <point x="845" y="724"/>
      <point x="845" y="724" type="curve"/>
      <point x="845" y="724"/>
      <point x="845" y="789"/>
      <point x="845" y="789" type="curve"/>
      <point x="845" y="789"/>
      <point x="360" y="789"/>
    </contour>
    <contour>
      <point x="804" y="789" type="curve"/>
      <point x="806" y="278"/>
      <point x="789" y="-77"/>
      <point x="898" y="-77" type="curve" smooth="yes"/>
      <point x="948" y="-77"/>
      <point x="960" y="-29"/>
      <point x="966" y="116" type="curve"/>
      <point x="952" y="126"/>
      <point x="931" y="146"/>
      <point x="917" y="162" type="curve"/>
      <point x="917" y="72"/>
      <point x="911" y="-8"/>
      <point x="900" y="-8" type="curve" smooth="yes"/>
      <point x="866" y="-8"/>
      <point x="871" y="364"/>
      <point x="874" y="789" type="curve"/>
      <point x="874" y="789"/>
      <point x="804" y="789"/>
    </contour>
    <contour>
      <point x="424" y="626" type="curve"/>
      <point x="424" y="626"/>
      <point x="424" y="564"/>
      <point x="424" y="564" type="curve"/>
      <point x="424" y="564"/>
      <point x="770" y="564"/>
      <point x="770" y="564" type="curve"/>
      <point x="770" y="564"/>
      <point x="770" y="626"/>
      <point x="770" y="626" type="curve"/>
      <point x="770" y="626"/>
      <point x="424" y="626"/>
    </contour>
    <contour>
      <point x="433" y="467" type="curve"/>
      <point x="433" y="467"/>
      <point x="433" y="52"/>
      <point x="433" y="52" type="curve"/>
      <point x="433" y="52"/>
      <point x="496" y="52"/>
      <point x="496" y="52" type="curve"/>
      <point x="496" y="52"/>
      <point x="496" y="405"/>
      <point x="496" y="405" type="curve"/>
      <point x="496" y="405"/>
      <point x="737" y="405"/>
      <point x="737" y="405" type="curve"/>
      <point x="737" y="405"/>
      <point x="737" y="467"/>
      <point x="737" y="467" type="curve"/>
      <point x="737" y="467"/>
      <point x="433" y="467"/>
    </contour>
    <contour>
      <point x="696" y="467" type="curve"/>
      <point x="696" y="467"/>
      <point x="696" y="129"/>
      <point x="696" y="129" type="curve"/>
      <point x="696" y="121"/>
      <point x="694" y="120"/>
      <point x="688" y="119" type="curve"/>
      <point x="684" y="119"/>
      <point x="669" y="119"/>
      <point x="651" y="120" type="curve"/>
      <point x="659" y="102"/>
      <point x="666" y="73"/>
      <point x="669" y="54" type="curve"/>
      <point x="701" y="54"/>
      <point x="723" y="55"/>
      <point x="739" y="65" type="curve" smooth="yes"/>
      <point x="755" y="75"/>
      <point x="759" y="89"/>
      <point x="759" y="114" type="curve"/>
      <point x="759" y="114"/>
      <point x="759" y="467"/>
      <point x="759" y="467" type="curve"/>
      <point x="759" y="467"/>
      <point x="696" y="467"/>
    </contour>
    <contour>
      <point x="565" y="607" type="curve"/>
      <point x="565" y="607"/>
      <point x="565" y="444"/>
      <point x="565" y="444" type="curve"/>
      <point x="565" y="444"/>
      <point x="565" y="444"/>
      <point x="565" y="444" type="curve"/>
      <point x="565" y="444"/>
      <point x="565" y="-70"/>
      <point x="565" y="-70" type="curve"/>
      <point x="565" y="-70"/>
      <point x="628" y="-70"/>
      <point x="628" y="-70" type="curve"/>
      <point x="628" y="-70"/>
      <point x="628" y="444"/>
      <point x="628" y="444" type="curve"/>
      <point x="628" y="444"/>
      <point x="628" y="444"/>
      <point x="628" y="444" type="curve"/>
      <point x="628" y="444"/>
      <point x="628" y="607"/>
      <point x="628" y="607" type="curve"/>
      <point x="628" y="607"/>
      <point x="565" y="607"/>
    </contour>
    <contour>
      <point x="216" y="835" type="curve"/>
      <point x="176" y="681"/>
      <point x="109" y="528"/>
      <point x="29" y="428" type="curve"/>
      <point x="41" y="410"/>
      <point x="61" y="369"/>
      <point x="67" y="352" type="curve"/>
      <point x="157" y="468"/>
      <point x="235" y="645"/>
      <point x="284" y="817" type="curve"/>
      <point x="284" y="817"/>
      <point x="216" y="835"/>
    </contour>
    <contour>
      <point x="146" y="582" type="curve"/>
      <point x="146" y="582"/>
      <point x="146" y="-78"/>
      <point x="146" y="-78" type="curve"/>
      <point x="146" y="-78"/>
      <point x="213" y="-78"/>
      <point x="213" y="-78" type="curve"/>
      <point x="213" y="-78"/>
      <point x="213" y="646"/>
      <point x="213" y="646" type="curve"/>
      <point x="213" y="646"/>
      <point x="212" y="648"/>
      <point x="212" y="648" type="curve"/>
      <point x="212" y="648"/>
      <point x="146" y="582"/>
    </contour>
  </outline>
</glyph>
<glyph name="cid10107" format="2">
  <advance height="1000" width="1000"/>
  <unicode hex="4FAE"/>
  <outline>
    <contour>
      <point x="228" y="835" type="curve"/>
      <point x="183" y="681"/>
      <point x="110" y="527"/>
      <point x="28" y="426" type="curve"/>
      <point x="41" y="407"/>
      <point x="60" y="368"/>
      <point x="67" y="350" type="curve"/>
      <point x="161" y="467"/>
      <point x="245" y="644"/>
      <point x="298" y="816" type="curve"/>
      <point x="298" y="816"/>
      <point x="228" y="835"/>
    </contour>
    <contour>
      <point x="152" y="590" type="curve"/>
      <point x="152" y="590"/>
      <point x="152" y="-80"/>
      <point x="152" y="-80" type="curve"/>
      <point x="152" y="-80"/>
      <point x="224" y="-80"/>
      <point x="224" y="-80" type="curve"/>
      <point x="224" y="-80"/>
      <point x="224" y="657"/>
      <point x="224" y="657" type="curve"/>
      <point x="224" y="657"/>
      <point x="222" y="659"/>
      <point x="222" y="659" type="curve"/>
      <point x="222" y="659"/>
      <point x="152" y="590"/>
    </contour>
    <contour>
      <point x="412" y="562" type="curve"/>
      <point x="397" y="407"/>
      <point x="366" y="193"/>
      <point x="341" y="67" type="curve"/>
      <point x="341" y="67"/>
      <point x="415" y="67"/>
      <point x="415" y="67" type="curve"/>
      <point x="436" y="189"/>
      <point x="464" y="402"/>
      <point x="482" y="562" type="curve"/>
      <point x="482" y="562"/>
      <point x="412" y="562"/>
    </contour>
    <contour>
      <point x="553" y="466" type="curve"/>
      <point x="597" y="434"/>
      <point x="645" y="385"/>
      <point x="665" y="351" type="curve"/>
      <point x="665" y="351"/>
      <point x="718" y="389"/>
      <point x="718" y="389" type="curve"/>
      <point x="696" y="423"/>
      <point x="648" y="469"/>
      <point x="604" y="500" type="curve"/>
      <point x="604" y="500"/>
      <point x="553" y="466"/>
    </contour>
    <contour>
      <point x="529" y="253" type="curve"/>
      <point x="574" y="217"/>
      <point x="625" y="164"/>
      <point x="648" y="128" type="curve"/>
      <point x="648" y="128"/>
      <point x="701" y="169"/>
      <point x="701" y="169" type="curve"/>
      <point x="678" y="206"/>
      <point x="626" y="256"/>
      <point x="580" y="290" type="curve"/>
      <point x="580" y="290"/>
      <point x="529" y="253"/>
    </contour>
    <contour>
      <point x="420" y="727" type="curve"/>
      <point x="420" y="727"/>
      <point x="420" y="658"/>
      <point x="420" y="658" type="curve"/>
      <point x="420" y="658"/>
      <point x="930" y="658"/>
      <point x="930" y="658" type="curve"/>
      <point x="930" y="658"/>
      <point x="930" y="727"/>
      <point x="930" y="727" type="curve"/>
      <point x="930" y="727"/>
      <point x="420" y="727"/>
    </contour>
    <contour>
      <point x="445" y="562" type="curve"/>
      <point x="445" y="562"/>
      <point x="445" y="497"/>
      <point x="445" y="497" type="curve"/>
      <point x="445" y="497"/>
      <point x="845" y="497"/>
      <point x="845" y="497" type="curve"/>
      <point x="845" y="497"/>
      <point x="845" y="562"/>
      <point x="845" y="562" type="curve"/>
      <point x="845" y="562"/>
      <point x="445" y="562"/>
    </contour>
    <contour>
      <point x="285" y="356" type="curve"/>
      <point x="285" y="356"/>
      <point x="285" y="287"/>
      <point x="285" y="287" type="curve"/>
      <point x="285" y="287"/>
      <point x="963" y="287"/>
      <point x="963" y="287" type="curve"/>
      <point x="963" y="287"/>
      <point x="963" y="356"/>
      <point x="963" y="356" type="curve"/>
      <point x="963" y="356"/>
      <point x="285" y="356"/>
    </contour>
    <contour>
      <point x="380" y="132" type="curve"/>
      <point x="380" y="132"/>
      <point x="380" y="67"/>
      <point x="380" y="67" type="curve"/>
      <point x="380" y="67"/>
      <point x="935" y="67"/>
      <point x="935" y="67" type="curve"/>
      <point x="935" y="67"/>
      <point x="935" y="132"/>
      <point x="935" y="132" type="curve"/>
      <point x="935" y="132"/>
      <point x="380" y="132"/>
    </contour>
    <contour>
      <point x="443" y="841" type="curve"/>
      <point x="406" y="724"/>
      <point x="344" y="607"/>
      <point x="273" y="532" type="curve"/>
      <point x="291" y="523"/>
      <point x="322" y="502"/>
      <point x="336" y="491" type="curve"/>
      <point x="405" y="572"/>
      <point x="472" y="697"/>
      <point x="514" y="823" type="curve"/>
      <point x="514" y="823"/>
      <point x="443" y="841"/>
    </contour>
    <contour>
      <point x="823" y="562" type="curve"/>
      <point x="823" y="562"/>
      <point x="823" y="547"/>
      <point x="823" y="547" type="curve"/>
      <point x="809" y="171"/>
      <point x="792" y="34"/>
      <point x="764" y="3" type="curve"/>
      <point x="754" y="-10"/>
      <point x="744" y="-12"/>
      <point x="727" y="-11" type="curve"/>
      <point x="707" y="-11"/>
      <point x="661" y="-12"/>
      <point x="609" y="-7" type="curve"/>
      <point x="620" y="-25"/>
      <point x="628" y="-52"/>
      <point x="629" y="-71" type="curve"/>
      <point x="678" y="-74"/>
      <point x="727" y="-74"/>
      <point x="756" y="-72" type="curve" smooth="yes"/>
      <point x="787" y="-70"/>
      <point x="806" y="-62"/>
      <point x="826" y="-37" type="curve" smooth="yes"/>
      <point x="860" y="5"/>
      <point x="876" y="137"/>
      <point x="892" y="526" type="curve" smooth="yes"/>
      <point x="892" y="536"/>
      <point x="893" y="562"/>
      <point x="893" y="562" type="curve"/>
      <point x="893" y="562"/>
      <point x="823" y="562"/>
    </contour>
  </outline>
</glyph>
<glyph name="cid10182" format="2">
  <advance height="1000" width="1000"/>
  <unicode hex="4FDA"/>
  <outline>
    <contour>
      <point x="260" y="836" type="curve"/>
      <point x="210" y="685"/>
      <point x="128" y="535"/>
      <point x="38" y="437" type="curve"/>
      <point x="52" y="419"/>
      <point x="74" y="380"/>
      <point x="82" y="363" type="curve"/>
      <point x="181" y="476"/>
      <point x="272" y="648"/>
      <point x="331" y="816" type="curve"/>
      <point x="331" y="816"/>
      <point x="260" y="836"/>
    </contour>
    <contour>
      <point x="166" y="579" type="curve"/>
      <point x="166" y="579"/>
      <point x="166" y="-78"/>
      <point x="166" y="-78" type="curve"/>
      <point x="166" y="-78"/>
      <point x="241" y="-78"/>
      <point x="241" y="-78" type="curve"/>
      <point x="241" y="-78"/>
      <point x="241" y="652"/>
      <point x="241" y="652" type="curve"/>
      <point x="241" y="652"/>
      <point x="240" y="653"/>
      <point x="240" y="653" type="curve"/>
      <point x="240" y="653"/>
      <point x="166" y="579"/>
    </contour>
    <contour>
      <point x="348" y="226" type="curve"/>
      <point x="348" y="226"/>
      <point x="348" y="157"/>
      <point x="348" y="157" type="curve"/>
      <point x="348" y="157"/>
      <point x="919" y="157"/>
      <point x="919" y="157" type="curve"/>
      <point x="919" y="157"/>
      <point x="919" y="226"/>
      <point x="919" y="226" type="curve"/>
      <point x="919" y="226"/>
      <point x="348" y="226"/>
    </contour>
    <contour>
      <point x="289" y="18" type="curve"/>
      <point x="289" y="18"/>
      <point x="289" y="-51"/>
      <point x="289" y="-51" type="curve"/>
      <point x="289" y="-51"/>
      <point x="956" y="-51"/>
      <point x="956" y="-51" type="curve"/>
      <point x="956" y="-51"/>
      <point x="956" y="18"/>
      <point x="956" y="18" type="curve"/>
      <point x="956" y="18"/>
      <point x="289" y="18"/>
    </contour>
    <contour>
      <point x="429" y="527" type="curve"/>
      <point x="429" y="527"/>
      <point x="831" y="527"/>
      <point x="831" y="527" type="curve"/>
      <point x="831" y="527"/>
      <point x="831" y="400"/>
      <point x="831" y="400" type="curve"/>
      <point x="831" y="400"/>
      <point x="429" y="400"/>
      <point x="429" y="400" type="curve"/>
      <point x="429" y="400"/>
      <point x="429" y="527"/>
    </contour>
    <contour>
      <point x="429" y="721" type="curve"/>
      <point x="429" y="721"/>
      <point x="831" y="721"/>
      <point x="831" y="721" type="curve"/>
      <point x="831" y="721"/>
      <point x="831" y="594"/>
      <point x="831" y="594" type="curve"/>
      <point x="831" y="594"/>
      <point x="429" y="594"/>
      <point x="429" y="594" type="curve"/>
      <point x="429" y="594"/>
      <point x="429" y="721"/>
    </contour>
    <contour>
      <point x="355" y="788" type="curve"/>
      <point x="355" y="788"/>
      <point x="355" y="333"/>
      <point x="355" y="333" type="curve"/>
      <point x="355" y="333"/>
      <point x="908" y="333"/>
      <point x="908" y="333" type="curve"/>
      <point x="908" y="333"/>
      <point x="908" y="788"/>
      <point x="908" y="788" type="curve"/>
      <point x="908" y="788"/>
      <point x="355" y="788"/>
    </contour>
    <contour>
      <point x="591" y="761" type="curve"/>
      <point x="591" y="761"/>
      <point x="591" y="362"/>
      <point x="591" y="362" type="curve"/>
      <point x="591" y="362"/>
      <point x="591" y="362"/>
      <point x="591" y="362" type="curve"/>
      <point x="591" y="362"/>
      <point x="591" y="-19"/>
      <point x="591" y="-19" type="curve"/>
      <point x="591" y="-19"/>
      <point x="671" y="-19"/>
      <point x="671" y="-19" type="curve"/>
      <point x="671" y="-19"/>
      <point x="671" y="362"/>
      <point x="671" y="362" type="curve"/>
      <point x="671" y="362"/>
      <point x="671" y="362"/>
      <point x="671" y="362" type="curve"/>
      <point x="671" y="362"/>
      <point x="671" y="761"/>
      <point x="671" y="761" type="curve"/>
      <point x="671" y="761"/>
      <point x="591" y="761"/>
    </contour>
  </outline>
</glyph>
<glyph name="cid10250" format="2">
  <advance height="1000" width="1000"/>
  <unicode hex="5006"/>
  <outline>
    <contour>
      <point x="305" y="774" type="curve"/>
      <point x="305" y="774"/>
      <point x="305" y="707"/>
      <point x="305" y="707" type="curve"/>
      <point x="305" y="707"/>
      <point x="955" y="707"/>
      <point x="955" y="707" type="curve"/>
      <point x="955" y="707"/>
      <point x="955" y="774"/>
      <point x="955" y="774" type="curve"/>
      <point x="955" y="774"/>
      <point x="305" y="774"/>
    </contour>
    <contour>
      <point x="320" y="592" type="curve"/>
      <point x="320" y="592"/>
      <point x="320" y="-79"/>
      <point x="320" y="-79" type="curve"/>
      <point x="320" y="-79"/>
      <point x="388" y="-79"/>
      <point x="388" y="-79" type="curve"/>
      <point x="388" y="-79"/>
      <point x="388" y="525"/>
      <point x="388" y="525" type="curve"/>
      <point x="388" y="525"/>
      <point x="904" y="525"/>
      <point x="904" y="525" type="curve"/>
      <point x="904" y="525"/>
      <point x="904" y="592"/>
      <point x="904" y="592" type="curve"/>
      <point x="904" y="592"/>
      <point x="320" y="592"/>
    </contour>
    <contour>
      <point x="868" y="592" type="curve"/>
      <point x="868" y="592"/>
      <point x="868" y="9"/>
      <point x="868" y="9" type="curve"/>
      <point x="868" y="-5"/>
      <point x="864" y="-9"/>
      <point x="849" y="-10" type="curve" smooth="yes"/>
      <point x="835" y="-11"/>
      <point x="786" y="-11"/>
      <point x="732" y="-9" type="curve"/>
      <point x="742" y="-29"/>
      <point x="752" y="-59"/>
      <point x="754" y="-78" type="curve"/>
      <point x="827" y="-78"/>
      <point x="873" y="-77"/>
      <point x="902" y="-66" type="curve"/>
      <point x="929" y="-54"/>
      <point x="937" y="-32"/>
      <point x="937" y="9" type="curve"/>
      <point x="937" y="9"/>
      <point x="937" y="592"/>
      <point x="937" y="592" type="curve"/>
      <point x="937" y="592"/>
      <point x="868" y="592"/>
    </contour>
    <contour>
      <point x="694" y="441" type="curve"/>
      <point x="694" y="441"/>
      <point x="694" y="387"/>
      <point x="694" y="387" type="curve"/>
      <point x="694" y="387"/>
      <point x="778" y="387"/>
      <point x="778" y="387" type="curve"/>
      <point x="778" y="387"/>
      <point x="778" y="441"/>
      <point x="778" y="441" type="curve"/>
      <point x="778" y="441"/>
      <point x="694" y="441"/>
    </contour>
    <contour>
      <point x="744" y="441" type="curve"/>
      <point x="744" y="303"/>
      <point x="752" y="178"/>
      <point x="830" y="88" type="curve"/>
      <point x="839" y="100"/>
      <point x="861" y="118"/>
      <point x="874" y="124" type="curve"/>
      <point x="800" y="206"/>
      <point x="794" y="315"/>
      <point x="794" y="441" type="curve"/>
      <point x="794" y="441"/>
      <point x="744" y="441"/>
    </contour>
    <contour>
      <point x="741" y="393" type="curve"/>
      <point x="729" y="289"/>
      <point x="701" y="174"/>
      <point x="653" y="129" type="curve"/>
      <point x="666" y="119"/>
      <point x="682" y="102"/>
      <point x="692" y="90" type="curve"/>
      <point x="748" y="143"/>
      <point x="778" y="269"/>
      <point x="791" y="386" type="curve"/>
      <point x="791" y="386"/>
      <point x="741" y="393"/>
    </contour>
    <contour>
      <point x="437" y="441" type="curve"/>
      <point x="437" y="441"/>
      <point x="437" y="387"/>
      <point x="437" y="387" type="curve"/>
      <point x="437" y="387"/>
      <point x="519" y="387"/>
      <point x="519" y="387" type="curve"/>
      <point x="519" y="387"/>
      <point x="519" y="441"/>
      <point x="519" y="441" type="curve"/>
      <point x="519" y="441"/>
      <point x="437" y="441"/>
    </contour>
    <contour>
      <point x="484" y="441" type="curve"/>
      <point x="484" y="304"/>
      <point x="491" y="178"/>
      <point x="559" y="88" type="curve"/>
      <point x="568" y="100"/>
      <point x="590" y="117"/>
      <point x="603" y="124" type="curve"/>
      <point x="538" y="207"/>
      <point x="533" y="316"/>
      <point x="533" y="441" type="curve"/>
      <point x="533" y="441"/>
      <point x="484" y="441"/>
    </contour>
    <contour>
      <point x="482" y="395" type="curve"/>
      <point x="470" y="285"/>
      <point x="441" y="169"/>
      <point x="386" y="125" type="curve"/>
      <point x="399" y="116"/>
      <point x="415" y="97"/>
      <point x="424" y="85" type="curve"/>
      <point x="488" y="139"/>
      <point x="518" y="266"/>
      <point x="532" y="389" type="curve"/>
      <point x="532" y="389"/>
      <point x="482" y="395"/>
    </contour>
    <contour>
      <point x="590" y="750" type="curve"/>
      <point x="590" y="750"/>
      <point x="590" y="542"/>
      <point x="590" y="542" type="curve"/>
      <point x="590" y="542"/>
      <point x="590" y="542"/>
      <point x="590" y="542" type="curve"/>
      <point x="590" y="542"/>
      <point x="590" y="-73"/>
      <point x="590" y="-73" type="curve"/>
      <point x="590" y="-73"/>
      <point x="662" y="-73"/>
      <point x="662" y="-73" type="curve"/>
      <point x="662" y="-73"/>
      <point x="662" y="542"/>
      <point x="662" y="542" type="curve"/>
      <point x="662" y="542"/>
      <point x="662" y="542"/>
      <point x="662" y="542" type="curve"/>
      <point x="662" y="542"/>
      <point x="662" y="750"/>
      <point x="662" y="750" type="curve"/>
      <point x="662" y="750"/>
      <point x="590" y="750"/>
    </contour>
    <contour>
      <point x="233" y="835" type="curve"/>
      <point x="185" y="681"/>
      <point x="105" y="529"/>
      <point x="18" y="429" type="curve"/>
      <point x="31" y="410"/>
      <point x="51" y="369"/>
      <point x="58" y="352" type="curve"/>
      <point x="157" y="468"/>
      <point x="246" y="644"/>
      <point x="302" y="816" type="curve"/>
      <point x="302" y="816"/>
      <point x="233" y="835"/>
    </contour>
    <contour>
      <point x="152" y="590" type="curve"/>
      <point x="152" y="590"/>
      <point x="152" y="-80"/>
      <point x="152" y="-80" type="curve"/>
      <point x="152" y="-80"/>
      <point x="222" y="-80"/>
      <point x="222" y="-80" type="curve"/>
      <point x="222" y="-80"/>
      <point x="222" y="655"/>
      <point x="222" y="655" type="curve"/>
      <point x="222" y="655"/>
      <point x="220" y="657"/>
      <point x="220" y="657" type="curve"/>
      <point x="220" y="657"/>
      <point x="152" y="590"/>
    </contour>
  </outline>
</glyph>
<glyph name="cid10467" format="2">
  <advance height="1000" width="1000"/>
  <unicode hex="5080"/>
  <outline>
    <contour>
      <point x="836" y="218" type="curve"/>
      <point x="858" y="167"/>
      <point x="883" y="98"/>
      <point x="895" y="58" type="curve"/>
      <point x="895" y="58"/>
      <point x="949" y="83"/>
      <point x="949" y="83" type="curve"/>
      <point x="937" y="121"/>
      <point x="911" y="187"/>
      <point x="887" y="237" type="curve"/>
      <point x="887" y="237"/>
      <point x="836" y="218"/>
    </contour>
    <contour>
      <point x="724" y="67" type="curve"/>
      <point x="724" y="80"/>
      <point x="760" y="98"/>
      <point x="760" y="98" type="curve"/>
      <point x="760" y="98"/>
      <point x="760" y="100"/>
      <point x="760" y="100" type="curve"/>
      <point x="790" y="145"/>
      <point x="824" y="217"/>
      <point x="846" y="286" type="curve"/>
      <point x="846" y="286"/>
      <point x="786" y="309"/>
      <point x="786" y="309" type="curve"/>
      <point x="774" y="245"/>
      <point x="741" y="176"/>
      <point x="732" y="158" type="curve"/>
      <point x="722" y="141"/>
      <point x="713" y="128"/>
      <point x="702" y="126" type="curve"/>
      <point x="710" y="110"/>
      <point x="721" y="80"/>
    </contour>
    <contour>
      <point x="724" y="67" type="curve"/>
      <point x="739" y="74"/>
      <point x="764" y="80"/>
      <point x="916" y="101" type="curve"/>
      <point x="912" y="114"/>
      <point x="906" y="137"/>
      <point x="904" y="153" type="curve"/>
      <point x="904" y="153"/>
      <point x="752" y="136"/>
      <point x="752" y="136" type="curve"/>
      <point x="752" y="136"/>
      <point x="723" y="118"/>
      <point x="723" y="118" type="curve"/>
      <point x="723" y="118"/>
      <point x="724" y="67"/>
    </contour>
    <contour>
      <point x="596" y="842" type="curve"/>
      <point x="588" y="805"/>
      <point x="570" y="753"/>
      <point x="556" y="716" type="curve"/>
      <point x="556" y="716"/>
      <point x="623" y="704"/>
      <point x="623" y="704" type="curve"/>
      <point x="641" y="737"/>
      <point x="660" y="785"/>
      <point x="679" y="831" type="curve"/>
      <point x="679" y="831"/>
      <point x="596" y="842"/>
    </contour>
    <contour>
      <point x="418" y="505" type="curve"/>
      <point x="418" y="505"/>
      <point x="839" y="505"/>
      <point x="839" y="505" type="curve"/>
      <point x="839" y="505"/>
      <point x="839" y="390"/>
      <point x="839" y="390" type="curve"/>
      <point x="839" y="390"/>
      <point x="418" y="390"/>
      <point x="418" y="390" type="curve"/>
      <point x="418" y="390"/>
      <point x="418" y="505"/>
    </contour>
    <contour>
      <point x="418" y="677" type="curve"/>
      <point x="418" y="677"/>
      <point x="839" y="677"/>
      <point x="839" y="677" type="curve"/>
      <point x="839" y="677"/>
      <point x="839" y="564"/>
      <point x="839" y="564" type="curve"/>
      <point x="839" y="564"/>
      <point x="418" y="564"/>
      <point x="418" y="564" type="curve"/>
      <point x="418" y="564"/>
      <point x="418" y="677"/>
    </contour>
    <contour>
      <point x="346" y="739" type="curve"/>
      <point x="346" y="739"/>
      <point x="346" y="327"/>
      <point x="346" y="327" type="curve"/>
      <point x="346" y="327"/>
      <point x="913" y="327"/>
      <point x="913" y="327" type="curve"/>
      <point x="913" y="327"/>
      <point x="913" y="739"/>
      <point x="913" y="739" type="curve"/>
      <point x="913" y="739"/>
      <point x="346" y="739"/>
    </contour>
    <contour>
      <point x="462" y="347" type="curve"/>
      <point x="451" y="182"/>
      <point x="419" y="46"/>
      <point x="266" y="-27" type="curve"/>
      <point x="283" y="-40"/>
      <point x="304" y="-67"/>
      <point x="314" y="-85" type="curve"/>
      <point x="483" y="1"/>
      <point x="521" y="156"/>
      <point x="535" y="347" type="curve"/>
      <point x="535" y="347"/>
      <point x="462" y="347"/>
    </contour>
    <contour>
      <point x="624" y="345" type="curve"/>
      <point x="624" y="345"/>
      <point x="624" y="22"/>
      <point x="624" y="22" type="curve"/>
      <point x="624" y="-54"/>
      <point x="645" y="-74"/>
      <point x="729" y="-74" type="curve" smooth="yes"/>
      <point x="746" y="-74"/>
      <point x="852" y="-74"/>
      <point x="871" y="-74" type="curve" smooth="yes"/>
      <point x="935" y="-74"/>
      <point x="956" y="-48"/>
      <point x="964" y="41" type="curve"/>
      <point x="944" y="46"/>
      <point x="916" y="56"/>
      <point x="901" y="67" type="curve"/>
      <point x="898" y="1"/>
      <point x="892" y="-10"/>
      <point x="865" y="-10" type="curve" smooth="yes"/>
      <point x="843" y="-10"/>
      <point x="754" y="-10"/>
      <point x="738" y="-10" type="curve" smooth="yes"/>
      <point x="701" y="-10"/>
      <point x="695" y="-5"/>
      <point x="695" y="22" type="curve"/>
      <point x="695" y="22"/>
      <point x="695" y="345"/>
      <point x="695" y="345" type="curve"/>
      <point x="695" y="345"/>
      <point x="624" y="345"/>
    </contour>
    <contour>
      <point x="595" y="707" type="curve"/>
      <point x="595" y="707"/>
      <point x="595" y="373"/>
      <point x="595" y="373" type="curve"/>
      <point x="595" y="373"/>
      <point x="664" y="373"/>
      <point x="664" y="373" type="curve"/>
      <point x="664" y="373"/>
      <point x="664" y="707"/>
      <point x="664" y="707" type="curve"/>
      <point x="664" y="707"/>
      <point x="595" y="707"/>
    </contour>
    <contour>
      <point x="264" y="836" type="curve"/>
      <point x="208" y="684"/>
      <point x="115" y="534"/>
      <point x="16" y="437" type="curve"/>
      <point x="30" y="420"/>
      <point x="50" y="381"/>
      <point x="58" y="363" type="curve"/>
      <point x="166" y="475"/>
      <point x="269" y="645"/>
      <point x="335" y="815" type="curve"/>
      <point x="335" y="815"/>
      <point x="264" y="836"/>
    </contour>
    <contour>
      <point x="160" y="579" type="curve"/>
      <point x="160" y="579"/>
      <point x="160" y="-78"/>
      <point x="160" y="-78" type="curve"/>
      <point x="160" y="-78"/>
      <point x="232" y="-78"/>
      <point x="232" y="-78" type="curve"/>
      <point x="232" y="-78"/>
      <point x="232" y="649"/>
      <point x="232" y="649" type="curve"/>
      <point x="232" y="649"/>
      <point x="231" y="650"/>
      <point x="231" y="650" type="curve"/>
      <point x="231" y="650"/>
      <point x="160" y="579"/>
    </contour>
  </outline>
</glyph>
<glyph name="cid10514" format="2">
  <advance height="1000" width="1000"/>
  <unicode hex="5098"/>
  <outline>
    <contour>
      <point x="496" y="776" type="curve"/>
      <point x="595" y="675"/>
      <point x="775" y="563"/>
      <point x="923" y="503" type="curve"/>
      <point x="934" y="523"/>
      <point x="951" y="549"/>
      <point x="968" y="566" type="curve"/>
      <point x="813" y="620"/>
      <point x="640" y="725"/>
      <point x="528" y="839" type="curve"/>
      <point x="528" y="839"/>
      <point x="456" y="839"/>
      <point x="456" y="839" type="curve"/>
      <point x="373" y="738"/>
      <point x="205" y="623"/>
      <point x="35" y="556" type="curve"/>
      <point x="50" y="540"/>
      <point x="68" y="513"/>
      <point x="77" y="496" type="curve"/>
      <point x="244" y="567"/>
      <point x="409" y="680"/>
    </contour>
    <contour>
      <point x="52" y="168" type="curve"/>
      <point x="52" y="168"/>
      <point x="52" y="101"/>
      <point x="52" y="101" type="curve"/>
      <point x="52" y="101"/>
      <point x="947" y="101"/>
      <point x="947" y="101" type="curve"/>
      <point x="947" y="101"/>
      <point x="947" y="168"/>
      <point x="947" y="168" type="curve"/>
      <point x="947" y="168"/>
      <point x="52" y="168"/>
    </contour>
    <contour>
      <point x="279" y="604" type="curve"/>
      <point x="248" y="523"/>
      <point x="179" y="457"/>
      <point x="99" y="417" type="curve"/>
      <point x="114" y="406"/>
      <point x="139" y="380"/>
      <point x="149" y="368" type="curve"/>
      <point x="232" y="416"/>
      <point x="309" y="492"/>
      <point x="345" y="587" type="curve"/>
      <point x="345" y="587"/>
      <point x="279" y="604"/>
    </contour>
    <contour>
      <point x="254" y="489" type="curve"/>
      <point x="305" y="457"/>
      <point x="367" y="411"/>
      <point x="398" y="379" type="curve"/>
      <point x="398" y="379"/>
      <point x="444" y="431"/>
      <point x="444" y="431" type="curve"/>
      <point x="413" y="462"/>
      <point x="350" y="506"/>
      <point x="299" y="535" type="curve"/>
      <point x="299" y="535"/>
      <point x="254" y="489"/>
    </contour>
    <contour>
      <point x="267" y="409" type="curve"/>
      <point x="237" y="331"/>
      <point x="170" y="266"/>
      <point x="93" y="226" type="curve"/>
      <point x="109" y="215"/>
      <point x="135" y="191"/>
      <point x="145" y="180" type="curve"/>
      <point x="224" y="226"/>
      <point x="297" y="300"/>
      <point x="333" y="391" type="curve"/>
      <point x="333" y="391"/>
      <point x="267" y="409"/>
    </contour>
    <contour>
      <point x="243" y="297" type="curve"/>
      <point x="294" y="265"/>
      <point x="358" y="219"/>
      <point x="390" y="188" type="curve"/>
      <point x="390" y="188"/>
      <point x="441" y="239"/>
      <point x="441" y="239" type="curve"/>
      <point x="409" y="269"/>
      <point x="345" y="313"/>
      <point x="294" y="342" type="curve"/>
      <point x="294" y="342"/>
      <point x="243" y="297"/>
    </contour>
    <contour>
      <point x="684" y="599" type="curve"/>
      <point x="660" y="521"/>
      <point x="607" y="458"/>
      <point x="537" y="418" type="curve"/>
      <point x="554" y="407"/>
      <point x="581" y="382"/>
      <point x="593" y="370" type="curve"/>
      <point x="664" y="416"/>
      <point x="726" y="490"/>
      <point x="753" y="582" type="curve"/>
      <point x="753" y="582"/>
      <point x="684" y="599"/>
    </contour>
    <contour>
      <point x="662" y="484" type="curve"/>
      <point x="722" y="451"/>
      <point x="798" y="401"/>
      <point x="834" y="367" type="curve"/>
      <point x="834" y="367"/>
      <point x="885" y="421"/>
      <point x="885" y="421" type="curve"/>
      <point x="846" y="454"/>
      <point x="771" y="501"/>
      <point x="712" y="531" type="curve"/>
      <point x="712" y="531"/>
      <point x="662" y="484"/>
    </contour>
    <contour>
      <point x="691" y="401" type="curve"/>
      <point x="665" y="327"/>
      <point x="608" y="264"/>
      <point x="540" y="225" type="curve"/>
      <point x="556" y="214"/>
      <point x="584" y="190"/>
      <point x="595" y="178" type="curve"/>
      <point x="665" y="224"/>
      <point x="729" y="297"/>
      <point x="758" y="384" type="curve"/>
      <point x="758" y="384"/>
      <point x="691" y="401"/>
    </contour>
    <contour>
      <point x="669" y="294" type="curve"/>
      <point x="730" y="259"/>
      <point x="806" y="207"/>
      <point x="843" y="172" type="curve"/>
      <point x="843" y="172"/>
      <point x="895" y="223"/>
      <point x="895" y="223" type="curve"/>
      <point x="857" y="258"/>
      <point x="780" y="308"/>
      <point x="719" y="340" type="curve"/>
      <point x="719" y="340"/>
      <point x="669" y="294"/>
    </contour>
    <contour>
      <point x="460" y="650" type="curve"/>
      <point x="460" y="650"/>
      <point x="460" y="-80"/>
      <point x="460" y="-80" type="curve"/>
      <point x="460" y="-80"/>
      <point x="534" y="-80"/>
      <point x="534" y="-80" type="curve"/>
      <point x="534" y="-80"/>
      <point x="534" y="650"/>
      <point x="534" y="650" type="curve"/>
      <point x="534" y="650"/>
      <point x="460" y="650"/>
    </contour>
  </outline>
</glyph>
<glyph name="cid10556" format="2">
  <advance height="1000" width="1000"/>
  <unicode hex="50AD"/>
  <outline>
    <contour>
      <point x="574" y="827" type="curve"/>
      <point x="596" y="787"/>
      <point x="619" y="734"/>
      <point x="628" y="699" type="curve"/>
      <point x="628" y="699"/>
      <point x="701" y="717"/>
      <point x="701" y="717" type="curve"/>
      <point x="690" y="750"/>
      <point x="664" y="802"/>
      <point x="642" y="842" type="curve"/>
      <point x="642" y="842"/>
      <point x="574" y="827"/>
    </contour>
    <contour>
      <point x="635" y="695" type="curve"/>
      <point x="635" y="695"/>
      <point x="635" y="-78"/>
      <point x="635" y="-78" type="curve"/>
      <point x="635" y="-78"/>
      <point x="701" y="-78"/>
      <point x="701" y="-78" type="curve"/>
      <point x="701" y="-78"/>
      <point x="701" y="695"/>
      <point x="701" y="695" type="curve"/>
      <point x="701" y="695"/>
      <point x="635" y="695"/>
    </contour>
    <contour>
      <point x="359" y="744" type="curve"/>
      <point x="359" y="744"/>
      <point x="359" y="686"/>
      <point x="359" y="686" type="curve"/>
      <point x="359" y="686"/>
      <point x="954" y="686"/>
      <point x="954" y="686" type="curve"/>
      <point x="954" y="686"/>
      <point x="954" y="744"/>
      <point x="954" y="744" type="curve"/>
      <point x="954" y="744"/>
      <point x="359" y="744"/>
    </contour>
    <contour>
      <point x="320" y="744" type="curve"/>
      <point x="320" y="744"/>
      <point x="320" y="475"/>
      <point x="320" y="475" type="curve"/>
      <point x="320" y="329"/>
      <point x="312" y="125"/>
      <point x="234" y="-20" type="curve"/>
      <point x="250" y="-28"/>
      <point x="281" y="-52"/>
      <point x="294" y="-66" type="curve"/>
      <point x="379" y="90"/>
      <point x="392" y="319"/>
      <point x="392" y="475" type="curve"/>
      <point x="392" y="475"/>
      <point x="392" y="744"/>
      <point x="392" y="744" type="curve"/>
      <point x="392" y="744"/>
      <point x="320" y="744"/>
    </contour>
    <contour>
      <point x="447" y="629" type="curve"/>
      <point x="447" y="629"/>
      <point x="447" y="575"/>
      <point x="447" y="575" type="curve"/>
      <point x="447" y="575"/>
      <point x="836" y="575"/>
      <point x="836" y="575" type="curve"/>
      <point x="836" y="575"/>
      <point x="836" y="414"/>
      <point x="836" y="414" type="curve"/>
      <point x="836" y="414"/>
      <point x="447" y="414"/>
      <point x="447" y="414" type="curve"/>
      <point x="447" y="414"/>
      <point x="447" y="361"/>
      <point x="447" y="361" type="curve"/>
      <point x="447" y="361"/>
      <point x="901" y="361"/>
      <point x="901" y="361" type="curve"/>
      <point x="901" y="361"/>
      <point x="901" y="629"/>
      <point x="901" y="629" type="curve"/>
      <point x="901" y="629"/>
      <point x="447" y="629"/>
    </contour>
    <contour>
      <point x="406" y="523" type="curve"/>
      <point x="406" y="523"/>
      <point x="406" y="471"/>
      <point x="406" y="471" type="curve"/>
      <point x="406" y="471"/>
      <point x="964" y="471"/>
      <point x="964" y="471" type="curve"/>
      <point x="964" y="471"/>
      <point x="964" y="523"/>
      <point x="964" y="523" type="curve"/>
      <point x="964" y="523"/>
      <point x="406" y="523"/>
    </contour>
    <contour>
      <point x="461" y="96" type="curve"/>
      <point x="461" y="96"/>
      <point x="461" y="43"/>
      <point x="461" y="43" type="curve"/>
      <point x="461" y="43"/>
      <point x="888" y="43"/>
      <point x="888" y="43" type="curve"/>
      <point x="888" y="43"/>
      <point x="888" y="96"/>
      <point x="888" y="96" type="curve"/>
      <point x="888" y="96"/>
      <point x="461" y="96"/>
    </contour>
    <contour>
      <point x="461" y="207" type="curve"/>
      <point x="461" y="207"/>
      <point x="461" y="155"/>
      <point x="461" y="155" type="curve"/>
      <point x="461" y="155"/>
      <point x="888" y="155"/>
      <point x="888" y="155" type="curve"/>
      <point x="888" y="155"/>
      <point x="888" y="207"/>
      <point x="888" y="207" type="curve"/>
      <point x="888" y="207"/>
      <point x="461" y="207"/>
    </contour>
    <contour>
      <point x="427" y="317" type="curve"/>
      <point x="427" y="317"/>
      <point x="427" y="-80"/>
      <point x="427" y="-80" type="curve"/>
      <point x="427" y="-80"/>
      <point x="492" y="-80"/>
      <point x="492" y="-80" type="curve"/>
      <point x="492" y="-80"/>
      <point x="492" y="263"/>
      <point x="492" y="263" type="curve"/>
      <point x="492" y="263"/>
      <point x="886" y="263"/>
      <point x="886" y="263" type="curve"/>
      <point x="886" y="263"/>
      <point x="886" y="317"/>
      <point x="886" y="317" type="curve"/>
      <point x="886" y="317"/>
      <point x="427" y="317"/>
    </contour>
    <contour>
      <point x="858" y="317" type="curve"/>
      <point x="858" y="317"/>
      <point x="858" y="-12"/>
      <point x="858" y="-12" type="curve"/>
      <point x="858" y="-21"/>
      <point x="855" y="-23"/>
      <point x="845" y="-24" type="curve" smooth="yes"/>
      <point x="836" y="-25"/>
      <point x="807" y="-25"/>
      <point x="774" y="-24" type="curve"/>
      <point x="782" y="-40"/>
      <point x="789" y="-64"/>
      <point x="792" y="-80" type="curve"/>
      <point x="842" y="-80"/>
      <point x="877" y="-80"/>
      <point x="898" y="-70" type="curve" smooth="yes"/>
      <point x="919" y="-60"/>
      <point x="926" y="-45"/>
      <point x="926" y="-13" type="curve"/>
      <point x="926" y="-13"/>
      <point x="926" y="317"/>
      <point x="926" y="317" type="curve"/>
      <point x="926" y="317"/>
      <point x="858" y="317"/>
    </contour>
    <contour>
      <point x="233" y="835" type="curve"/>
      <point x="185" y="680"/>
      <point x="105" y="526"/>
      <point x="18" y="426" type="curve"/>
      <point x="31" y="407"/>
      <point x="50" y="368"/>
      <point x="57" y="350" type="curve"/>
      <point x="156" y="467"/>
      <point x="246" y="642"/>
      <point x="302" y="816" type="curve"/>
      <point x="302" y="816"/>
      <point x="233" y="835"/>
    </contour>
    <contour>
      <point x="152" y="590" type="curve"/>
      <point x="152" y="590"/>
      <point x="152" y="-80"/>
      <point x="152" y="-80" type="curve"/>
      <point x="152" y="-80"/>
      <point x="224" y="-80"/>
      <point x="224" y="-80" type="curve"/>
      <point x="224" y="-80"/>
      <point x="224" y="657"/>
      <point x="224" y="657" type="curve"/>
      <point x="224" y="657"/>
      <point x="222" y="659"/>
      <point x="222" y="659" type="curve"/>
      <point x="222" y="659"/>
      <point x="152" y="590"/>
    </contour>
  </outline>
</glyph>
<glyph name="cid10569" format="2">
  <advance height="1000" width="1000"/>
  <unicode hex="50B3"/>
  <outline>
    <contour>
      <point x="428" y="489" type="curve"/>
      <point x="428" y="489"/>
      <point x="838" y="489"/>
      <point x="838" y="489" type="curve"/>
      <point x="838" y="489"/>
      <point x="838" y="431"/>
      <point x="838" y="431" type="curve"/>
      <point x="838" y="431"/>
      <point x="428" y="431"/>
      <point x="428" y="431" type="curve"/>
      <point x="428" y="431"/>
      <point x="428" y="489"/>
    </contour>
    <contour>
      <point x="428" y="599" type="curve"/>
      <point x="428" y="599"/>
      <point x="838" y="599"/>
      <point x="838" y="599" type="curve"/>
      <point x="838" y="599"/>
      <point x="838" y="541"/>
      <point x="838" y="541" type="curve"/>
      <point x="838" y="541"/>
      <point x="428" y="541"/>
      <point x="428" y="541" type="curve"/>
      <point x="428" y="541"/>
      <point x="428" y="599"/>
    </contour>
    <contour>
      <point x="359" y="652" type="curve"/>
      <point x="359" y="652"/>
      <point x="359" y="377"/>
      <point x="359" y="377" type="curve"/>
      <point x="359" y="377"/>
      <point x="910" y="377"/>
      <point x="910" y="377" type="curve"/>
      <point x="910" y="377"/>
      <point x="910" y="652"/>
      <point x="910" y="652" type="curve"/>
      <point x="910" y="652"/>
      <point x="359" y="652"/>
    </contour>
    <contour>
      <point x="310" y="316" type="curve"/>
      <point x="310" y="316"/>
      <point x="317" y="256"/>
      <point x="317" y="256" type="curve"/>
      <point x="464" y="259"/>
      <point x="677" y="265"/>
      <point x="880" y="271" type="curve"/>
      <point x="880" y="271"/>
      <point x="883" y="326"/>
      <point x="883" y="326" type="curve"/>
      <point x="673" y="321"/>
      <point x="452" y="317"/>
    </contour>
    <contour>
      <point x="757" y="372" type="curve"/>
      <point x="814" y="329"/>
      <point x="881" y="268"/>
      <point x="912" y="228" type="curve"/>
      <point x="912" y="228"/>
      <point x="967" y="262"/>
      <point x="967" y="262" type="curve"/>
      <point x="934" y="303"/>
      <point x="864" y="361"/>
      <point x="807" y="401" type="curve"/>
      <point x="807" y="401"/>
      <point x="757" y="372"/>
    </contour>
    <contour>
      <point x="595" y="832" type="curve"/>
      <point x="595" y="832"/>
      <point x="595" y="288"/>
      <point x="595" y="288" type="curve"/>
      <point x="595" y="288"/>
      <point x="667" y="295"/>
      <point x="667" y="295" type="curve"/>
      <point x="667" y="295"/>
      <point x="667" y="832"/>
      <point x="667" y="832" type="curve"/>
      <point x="667" y="832"/>
      <point x="595" y="832"/>
    </contour>
    <contour>
      <point x="291" y="202" type="curve"/>
      <point x="291" y="202"/>
      <point x="291" y="142"/>
      <point x="291" y="142" type="curve"/>
      <point x="291" y="142"/>
      <point x="961" y="142"/>
      <point x="961" y="142" type="curve"/>
      <point x="961" y="142"/>
      <point x="961" y="202"/>
      <point x="961" y="202" type="curve"/>
      <point x="961" y="202"/>
      <point x="291" y="202"/>
    </contour>
    <contour>
      <point x="747" y="288" type="curve"/>
      <point x="747" y="288"/>
      <point x="747" y="1"/>
      <point x="747" y="1" type="curve"/>
      <point x="747" y="-12"/>
      <point x="743" y="-16"/>
      <point x="727" y="-17" type="curve" smooth="yes"/>
      <point x="710" y="-18"/>
      <point x="659" y="-18"/>
      <point x="598" y="-16" type="curve"/>
      <point x="607" y="-35"/>
      <point x="617" y="-62"/>
      <point x="621" y="-81" type="curve"/>
      <point x="698" y="-81"/>
      <point x="749" y="-81"/>
      <point x="780" y="-70" type="curve" smooth="yes"/>
      <point x="811" y="-60"/>
      <point x="819" y="-41"/>
      <point x="819" y="-1" type="curve"/>
      <point x="819" y="-1"/>
      <point x="819" y="288"/>
      <point x="819" y="288" type="curve"/>
      <point x="819" y="288"/>
      <point x="747" y="288"/>
    </contour>
    <contour>
      <point x="398" y="107" type="curve"/>
      <point x="445" y="66"/>
      <point x="498" y="8"/>
      <point x="523" y="-30" type="curve"/>
      <point x="523" y="-30"/>
      <point x="582" y="11"/>
      <point x="582" y="11" type="curve"/>
      <point x="555" y="48"/>
      <point x="499" y="104"/>
      <point x="453" y="142" type="curve"/>
      <point x="453" y="142"/>
      <point x="398" y="107"/>
    </contour>
    <contour>
      <point x="318" y="763" type="curve"/>
      <point x="318" y="763"/>
      <point x="318" y="705"/>
      <point x="318" y="705" type="curve"/>
      <point x="318" y="705"/>
      <point x="950" y="705"/>
      <point x="950" y="705" type="curve"/>
      <point x="950" y="705"/>
      <point x="950" y="763"/>
      <point x="950" y="763" type="curve"/>
      <point x="950" y="763"/>
      <point x="318" y="763"/>
    </contour>
    <contour>
      <point x="264" y="836" type="curve"/>
      <point x="208" y="684"/>
      <point x="115" y="534"/>
      <point x="16" y="437" type="curve"/>
      <point x="30" y="420"/>
      <point x="50" y="381"/>
      <point x="58" y="363" type="curve"/>
      <point x="166" y="475"/>
      <point x="269" y="645"/>
      <point x="335" y="815" type="curve"/>
      <point x="335" y="815"/>
      <point x="264" y="836"/>
    </contour>
    <contour>
      <point x="160" y="579" type="curve"/>
      <point x="160" y="579"/>
      <point x="160" y="-78"/>
      <point x="160" y="-78" type="curve"/>
      <point x="160" y="-78"/>
      <point x="232" y="-78"/>
      <point x="232" y="-78" type="curve"/>
      <point x="232" y="-78"/>
      <point x="232" y="649"/>
      <point x="232" y="649" type="curve"/>
      <point x="232" y="649"/>
      <point x="231" y="650"/>
      <point x="231" y="650" type="curve"/>
      <point x="231" y="650"/>
      <point x="160" y="579"/>
    </contour>
  </outline>
</glyph>
<glyph name="cid10573" format="2">
  <advance height="1000" width="1000"/>
  <unicode hex="50B5"/>
  <outline>
    <contour>
      <point x="347" y="786" type="curve"/>
      <point x="347" y="786"/>
      <point x="347" y="732"/>
      <point x="347" y="732" type="curve"/>
      <point x="347" y="732"/>
      <point x="927" y="732"/>
      <point x="927" y="732" type="curve"/>
      <point x="927" y="732"/>
      <point x="927" y="786"/>
      <point x="927" y="786" type="curve"/>
      <point x="927" y="786"/>
      <point x="347" y="786"/>
    </contour>
    <contour>
      <point x="372" y="684" type="curve"/>
      <point x="372" y="684"/>
      <point x="372" y="629"/>
      <point x="372" y="629" type="curve"/>
      <point x="372" y="629"/>
      <point x="901" y="629"/>
      <point x="901" y="629" type="curve"/>
      <point x="901" y="629"/>
      <point x="901" y="684"/>
      <point x="901" y="684" type="curve"/>
      <point x="901" y="684"/>
      <point x="372" y="684"/>
    </contour>
    <contour>
      <point x="303" y="579" type="curve"/>
      <point x="303" y="579"/>
      <point x="303" y="524"/>
      <point x="303" y="524" type="curve"/>
      <point x="303" y="524"/>
      <point x="958" y="524"/>
      <point x="958" y="524" type="curve"/>
      <point x="958" y="524"/>
      <point x="958" y="579"/>
      <point x="958" y="579" type="curve"/>
      <point x="958" y="579"/>
      <point x="303" y="579"/>
    </contour>
    <contour>
      <point x="595" y="839" type="curve"/>
      <point x="595" y="839"/>
      <point x="595" y="546"/>
      <point x="595" y="546" type="curve"/>
      <point x="595" y="546"/>
      <point x="670" y="546"/>
      <point x="670" y="546" type="curve"/>
      <point x="670" y="546"/>
      <point x="670" y="839"/>
      <point x="670" y="839" type="curve"/>
      <point x="670" y="839"/>
      <point x="595" y="839"/>
    </contour>
    <contour>
      <point x="454" y="313" type="curve"/>
      <point x="454" y="313"/>
      <point x="819" y="313"/>
      <point x="819" y="313" type="curve"/>
      <point x="819" y="313"/>
      <point x="819" y="259"/>
      <point x="819" y="259" type="curve"/>
      <point x="819" y="259"/>
      <point x="454" y="259"/>
      <point x="454" y="259" type="curve"/>
      <point x="454" y="259"/>
      <point x="454" y="313"/>
    </contour>
    <contour>
      <point x="454" y="206" type="curve"/>
      <point x="454" y="206"/>
      <point x="819" y="206"/>
      <point x="819" y="206" type="curve"/>
      <point x="819" y="206"/>
      <point x="819" y="147"/>
      <point x="819" y="147" type="curve"/>
      <point x="819" y="147"/>
      <point x="454" y="147"/>
      <point x="454" y="147" type="curve"/>
      <point x="454" y="147"/>
      <point x="454" y="206"/>
    </contour>
    <contour>
      <point x="454" y="422" type="curve"/>
      <point x="454" y="422"/>
      <point x="819" y="422"/>
      <point x="819" y="422" type="curve"/>
      <point x="819" y="422"/>
      <point x="819" y="366"/>
      <point x="819" y="366" type="curve"/>
      <point x="819" y="366"/>
      <point x="454" y="366"/>
      <point x="454" y="366" type="curve"/>
      <point x="454" y="366"/>
      <point x="454" y="422"/>
    </contour>
    <contour>
      <point x="382" y="477" type="curve"/>
      <point x="382" y="477"/>
      <point x="382" y="93"/>
      <point x="382" y="93" type="curve"/>
      <point x="382" y="93"/>
      <point x="894" y="93"/>
      <point x="894" y="93" type="curve"/>
      <point x="894" y="93"/>
      <point x="894" y="477"/>
      <point x="894" y="477" type="curve"/>
      <point x="894" y="477"/>
      <point x="382" y="477"/>
    </contour>
    <contour>
      <point x="514" y="79" type="curve"/>
      <point x="462" y="37"/>
      <point x="371" y="-2"/>
      <point x="289" y="-27" type="curve"/>
      <point x="307" y="-40"/>
      <point x="336" y="-66"/>
      <point x="349" y="-80" type="curve"/>
      <point x="429" y="-50"/>
      <point x="526" y="0"/>
      <point x="586" y="52" type="curve"/>
      <point x="586" y="52"/>
      <point x="514" y="79"/>
    </contour>
    <contour>
      <point x="264" y="838" type="curve"/>
      <point x="208" y="688"/>
      <point x="114" y="540"/>
      <point x="16" y="444" type="curve"/>
      <point x="29" y="427"/>
      <point x="51" y="388"/>
      <point x="58" y="371" type="curve"/>
      <point x="166" y="482"/>
      <point x="269" y="649"/>
      <point x="334" y="817" type="curve"/>
      <point x="334" y="817"/>
      <point x="264" y="838"/>
    </contour>
    <contour>
      <point x="162" y="579" type="curve"/>
      <point x="162" y="579"/>
      <point x="162" y="-78"/>
      <point x="162" y="-78" type="curve"/>
      <point x="162" y="-78"/>
      <point x="236" y="-78"/>
      <point x="236" y="-78" type="curve"/>
      <point x="236" y="-78"/>
      <point x="236" y="650"/>
      <point x="236" y="650" type="curve"/>
      <point x="236" y="650"/>
      <point x="234" y="651"/>
      <point x="234" y="651" type="curve"/>
      <point x="234" y="651"/>
      <point x="162" y="579"/>
    </contour>
    <contour>
      <point x="695" y="50" type="curve"/>
      <point x="764" y="11"/>
      <point x="849" y="-48"/>
      <point x="892" y="-86" type="curve"/>
      <point x="892" y="-86"/>
      <point x="959" y="-45"/>
      <point x="959" y="-45" type="curve"/>
      <point x="915" y="-8"/>
      <point x="834" y="44"/>
      <point x="762" y="83" type="curve"/>
      <point x="762" y="83"/>
      <point x="695" y="50"/>
    </contour>
  </outline>
</glyph>
<glyph name="cid10575" format="2">
  <advance height="1000" width="1000"/>
  <unicode hex="50B7"/>
  <outline>
    <contour>
      <point x="486" y="488" type="curve"/>
      <point x="486" y="488"/>
      <point x="797" y="488"/>
      <point x="797" y="488" type="curve"/>
      <point x="797" y="488"/>
      <point x="797" y="432"/>
      <point x="797" y="432" type="curve"/>
      <point x="797" y="432"/>
      <point x="486" y="432"/>
      <point x="486" y="432" type="curve"/>
      <point x="486" y="432"/>
      <point x="486" y="488"/>
    </contour>
    <contour>
      <point x="486" y="595" type="curve"/>
      <point x="486" y="595"/>
      <point x="797" y="595"/>
      <point x="797" y="595" type="curve"/>
      <point x="797" y="595"/>
      <point x="797" y="540"/>
      <point x="797" y="540" type="curve"/>
      <point x="797" y="540"/>
      <point x="486" y="540"/>
      <point x="486" y="540" type="curve"/>
      <point x="486" y="540"/>
      <point x="486" y="595"/>
    </contour>
    <contour>
      <point x="418" y="647" type="curve"/>
      <point x="418" y="647"/>
      <point x="418" y="380"/>
      <point x="418" y="380" type="curve"/>
      <point x="418" y="380"/>
      <point x="869" y="380"/>
      <point x="869" y="380" type="curve"/>
      <point x="869" y="380"/>
      <point x="869" y="647"/>
      <point x="869" y="647" type="curve"/>
      <point x="869" y="647"/>
      <point x="418" y="647"/>
    </contour>
    <contour>
      <point x="448" y="841" type="curve"/>
      <point x="412" y="746"/>
      <point x="353" y="649"/>
      <point x="288" y="585" type="curve"/>
      <point x="305" y="575"/>
      <point x="333" y="553"/>
      <point x="346" y="541" type="curve"/>
      <point x="410" y="610"/>
      <point x="474" y="716"/>
      <point x="516" y="822" type="curve"/>
      <point x="516" y="822"/>
      <point x="448" y="841"/>
    </contour>
    <contour>
      <point x="450" y="754" type="curve"/>
      <point x="450" y="754"/>
      <point x="421" y="700"/>
      <point x="421" y="700" type="curve"/>
      <point x="421" y="700"/>
      <point x="940" y="700"/>
      <point x="940" y="700" type="curve"/>
      <point x="940" y="700"/>
      <point x="940" y="754"/>
      <point x="940" y="754" type="curve"/>
      <point x="940" y="754"/>
      <point x="450" y="754"/>
    </contour>
    <contour>
      <point x="291" y="331" type="curve"/>
      <point x="291" y="331"/>
      <point x="291" y="277"/>
      <point x="291" y="277" type="curve"/>
      <point x="291" y="277"/>
      <point x="966" y="277"/>
      <point x="966" y="277" type="curve"/>
      <point x="966" y="277"/>
      <point x="966" y="331"/>
      <point x="966" y="331" type="curve"/>
      <point x="966" y="331"/>
      <point x="291" y="331"/>
    </contour>
    <contour>
      <point x="480" y="309" type="curve"/>
      <point x="433" y="233"/>
      <point x="353" y="162"/>
      <point x="273" y="115" type="curve"/>
      <point x="287" y="105"/>
      <point x="311" y="81"/>
      <point x="320" y="69" type="curve"/>
      <point x="401" y="122"/>
      <point x="488" y="203"/>
      <point x="541" y="289" type="curve"/>
      <point x="541" y="289"/>
      <point x="480" y="309"/>
    </contour>
    <contour>
      <point x="558" y="203" type="curve"/>
      <point x="511" y="111"/>
      <point x="427" y="27"/>
      <point x="338" y="-26" type="curve"/>
      <point x="353" y="-36"/>
      <point x="376" y="-59"/>
      <point x="386" y="-70" type="curve"/>
      <point x="475" y="-10"/>
      <point x="565" y="81"/>
      <point x="618" y="184" type="curve"/>
      <point x="618" y="184"/>
      <point x="558" y="203"/>
    </contour>
    <contour>
      <point x="727" y="203" type="curve"/>
      <point x="691" y="101"/>
      <point x="621" y="12"/>
      <point x="539" y="-46" type="curve"/>
      <point x="554" y="-56"/>
      <point x="579" y="-76"/>
      <point x="590" y="-87" type="curve"/>
      <point x="671" y="-24"/>
      <point x="747" y="75"/>
      <point x="789" y="188" type="curve"/>
      <point x="789" y="188"/>
      <point x="727" y="203"/>
    </contour>
    <contour>
      <point x="439" y="218" type="curve"/>
      <point x="439" y="218"/>
      <point x="395" y="164"/>
      <point x="395" y="164" type="curve"/>
      <point x="395" y="164"/>
      <point x="892" y="164"/>
      <point x="892" y="164" type="curve"/>
      <point x="892" y="164"/>
      <point x="892" y="218"/>
      <point x="892" y="218" type="curve"/>
      <point x="892" y="218"/>
      <point x="439" y="218"/>
    </contour>
    <contour>
      <point x="869" y="218" type="curve"/>
      <point x="869" y="218"/>
      <point x="869" y="208"/>
      <point x="869" y="208" type="curve"/>
      <point x="854" y="62"/>
      <point x="837" y="4"/>
      <point x="818" y="-14" type="curve"/>
      <point x="811" y="-22"/>
      <point x="803" y="-23"/>
      <point x="789" y="-23" type="curve" smooth="yes"/>
      <point x="775" y="-23"/>
      <point x="742" y="-24"/>
      <point x="705" y="-20" type="curve"/>
      <point x="715" y="-36"/>
      <point x="721" y="-61"/>
      <point x="722" y="-79" type="curve"/>
      <point x="759" y="-81"/>
      <point x="796" y="-81"/>
      <point x="815" y="-79" type="curve"/>
      <point x="839" y="-78"/>
      <point x="856" y="-72"/>
      <point x="872" y="-57" type="curve" smooth="yes"/>
      <point x="898" y="-31"/>
      <point x="916" y="33"/>
      <point x="933" y="190" type="curve"/>
      <point x="935" y="199"/>
      <point x="936" y="218"/>
      <point x="936" y="218" type="curve"/>
      <point x="936" y="218"/>
      <point x="869" y="218"/>
    </contour>
    <contour>
      <point x="264" y="836" type="curve"/>
      <point x="208" y="684"/>
      <point x="115" y="534"/>
      <point x="16" y="437" type="curve"/>
      <point x="29" y="420"/>
      <point x="48" y="382"/>
      <point x="56" y="364" type="curve"/>
      <point x="164" y="476"/>
      <point x="267" y="646"/>
      <point x="333" y="816" type="curve"/>
      <point x="333" y="816"/>
      <point x="264" y="836"/>
    </contour>
    <contour>
      <point x="160" y="579" type="curve"/>
      <point x="160" y="579"/>
      <point x="160" y="-78"/>
      <point x="160" y="-78" type="curve"/>
      <point x="160" y="-78"/>
      <point x="229" y="-78"/>
      <point x="229" y="-78" type="curve"/>
      <point x="229" y="-78"/>
      <point x="229" y="649"/>
      <point x="229" y="649" type="curve"/>
      <point x="229" y="649"/>
      <point x="231" y="650"/>
      <point x="231" y="650" type="curve"/>
      <point x="231" y="650"/>
      <point x="160" y="579"/>
    </contour>
  </outline>
</glyph>
<glyph name="cid10625" format="2">
  <advance height="1000" width="1000"/>
  <unicode hex="50D1"/>
  <outline>
    <contour>
      <point x="296" y="662" type="curve"/>
      <point x="296" y="662"/>
      <point x="296" y="608"/>
      <point x="296" y="608" type="curve"/>
      <point x="296" y="608"/>
      <point x="952" y="608"/>
      <point x="952" y="608" type="curve"/>
      <point x="952" y="608"/>
      <point x="952" y="662"/>
      <point x="952" y="662" type="curve"/>
      <point x="952" y="662"/>
      <point x="296" y="662"/>
    </contour>
    <contour>
      <point x="830" y="824" type="curve"/>
      <point x="719" y="798"/>
      <point x="508" y="781"/>
      <point x="335" y="774" type="curve"/>
      <point x="343" y="759"/>
      <point x="351" y="735"/>
      <point x="353" y="720" type="curve"/>
      <point x="532" y="725"/>
      <point x="747" y="741"/>
      <point x="885" y="773" type="curve"/>
      <point x="885" y="773"/>
      <point x="830" y="824"/>
    </contour>
    <contour>
      <point x="549" y="763" type="curve"/>
      <point x="502" y="621"/>
      <point x="402" y="513"/>
      <point x="269" y="449" type="curve"/>
      <point x="285" y="437"/>
      <point x="309" y="408"/>
      <point x="319" y="394" type="curve"/>
      <point x="455" y="467"/>
      <point x="565" y="587"/>
      <point x="620" y="748" type="curve"/>
      <point x="620" y="748"/>
      <point x="549" y="763"/>
    </contour>
    <contour>
      <point x="749" y="642" type="curve"/>
      <point x="749" y="642"/>
      <point x="690" y="623"/>
      <point x="690" y="623" type="curve"/>
      <point x="743" y="534"/>
      <point x="840" y="442"/>
      <point x="930" y="396" type="curve"/>
      <point x="941" y="413"/>
      <point x="963" y="439"/>
      <point x="979" y="451" type="curve"/>
      <point x="891" y="489"/>
      <point x="797" y="566"/>
    </contour>
    <contour>
      <point x="510" y="492" type="curve"/>
      <point x="510" y="492"/>
      <point x="739" y="492"/>
      <point x="739" y="492" type="curve"/>
      <point x="739" y="492"/>
      <point x="739" y="409"/>
      <point x="739" y="409" type="curve"/>
      <point x="739" y="409"/>
      <point x="510" y="409"/>
      <point x="510" y="409" type="curve"/>
      <point x="510" y="409"/>
      <point x="510" y="492"/>
    </contour>
    <contour>
      <point x="441" y="546" type="curve"/>
      <point x="441" y="546"/>
      <point x="441" y="355"/>
      <point x="441" y="355" type="curve"/>
      <point x="441" y="355"/>
      <point x="810" y="355"/>
      <point x="810" y="355" type="curve"/>
      <point x="810" y="355"/>
      <point x="810" y="546"/>
      <point x="810" y="546" type="curve"/>
      <point x="810" y="546"/>
      <point x="441" y="546"/>
    </contour>
    <contour>
      <point x="325" y="305" type="curve"/>
      <point x="325" y="305"/>
      <point x="325" y="-79"/>
      <point x="325" y="-79" type="curve"/>
      <point x="325" y="-79"/>
      <point x="396" y="-79"/>
      <point x="396" y="-79" type="curve"/>
      <point x="396" y="-79"/>
      <point x="396" y="250"/>
      <point x="396" y="250" type="curve"/>
      <point x="396" y="250"/>
      <point x="880" y="250"/>
      <point x="880" y="250" type="curve"/>
      <point x="880" y="250"/>
      <point x="880" y="305"/>
      <point x="880" y="305" type="curve"/>
      <point x="880" y="305"/>
      <point x="325" y="305"/>
    </contour>
    <contour>
      <point x="854" y="305" type="curve"/>
      <point x="854" y="305"/>
      <point x="854" y="0"/>
      <point x="854" y="0" type="curve"/>
      <point x="854" y="-13"/>
      <point x="850" y="-16"/>
      <point x="835" y="-17" type="curve" smooth="yes"/>
      <point x="820" y="-18"/>
      <point x="768" y="-18"/>
      <point x="710" y="-16" type="curve"/>
      <point x="719" y="-34"/>
      <point x="728" y="-61"/>
      <point x="731" y="-80" type="curve"/>
      <point x="809" y="-80"/>
      <point x="858" y="-79"/>
      <point x="888" y="-69" type="curve" smooth="yes"/>
      <point x="918" y="-58"/>
      <point x="926" y="-39"/>
      <point x="926" y="-1" type="curve"/>
      <point x="926" y="-1"/>
      <point x="926" y="305"/>
      <point x="926" y="305" type="curve"/>
      <point x="926" y="305"/>
      <point x="854" y="305"/>
    </contour>
    <contour>
      <point x="474" y="200" type="curve"/>
      <point x="474" y="200"/>
      <point x="474" y="-30"/>
      <point x="474" y="-30" type="curve"/>
      <point x="474" y="-30"/>
      <point x="544" y="-30"/>
      <point x="544" y="-30" type="curve"/>
      <point x="544" y="-30"/>
      <point x="544" y="200"/>
      <point x="544" y="200" type="curve"/>
      <point x="544" y="200"/>
      <point x="474" y="200"/>
    </contour>
    <contour>
      <point x="516" y="200" type="curve"/>
      <point x="516" y="200"/>
      <point x="516" y="146"/>
      <point x="516" y="146" type="curve"/>
      <point x="516" y="146"/>
      <point x="705" y="146"/>
      <point x="705" y="146" type="curve"/>
      <point x="705" y="146"/>
      <point x="705" y="65"/>
      <point x="705" y="65" type="curve"/>
      <point x="705" y="65"/>
      <point x="516" y="65"/>
      <point x="516" y="65" type="curve"/>
      <point x="516" y="65"/>
      <point x="516" y="11"/>
      <point x="516" y="11" type="curve"/>
      <point x="516" y="11"/>
      <point x="775" y="11"/>
      <point x="775" y="11" type="curve"/>
      <point x="775" y="11"/>
      <point x="775" y="200"/>
      <point x="775" y="200" type="curve"/>
      <point x="775" y="200"/>
      <point x="516" y="200"/>
    </contour>
    <contour>
      <point x="233" y="834" type="curve"/>
      <point x="184" y="686"/>
      <point x="104" y="539"/>
      <point x="16" y="443" type="curve"/>
      <point x="29" y="425"/>
      <point x="50" y="384"/>
      <point x="56" y="366" type="curve"/>
      <point x="155" y="478"/>
      <point x="245" y="647"/>
      <point x="302" y="814" type="curve"/>
      <point x="302" y="814"/>
      <point x="233" y="834"/>
    </contour>
    <contour>
      <point x="153" y="598" type="curve"/>
      <point x="153" y="598"/>
      <point x="153" y="-80"/>
      <point x="153" y="-80" type="curve"/>
      <point x="153" y="-80"/>
      <point x="224" y="-80"/>
      <point x="224" y="-80" type="curve"/>
      <point x="224" y="-80"/>
      <point x="224" y="670"/>
      <point x="224" y="670" type="curve"/>
      <point x="224" y="670"/>
      <point x="224" y="671"/>
      <point x="224" y="671" type="curve"/>
      <point x="224" y="671"/>
      <point x="153" y="598"/>
    </contour>
  </outline>
</glyph>
<glyph name="cid10666" format="2">
  <advance height="1000" width="1000"/>
  <unicode hex="50E7"/>
  <outline>
    <contour>
      <point x="425" y="166" type="curve"/>
      <point x="425" y="166"/>
      <point x="425" y="111"/>
      <point x="425" y="111" type="curve"/>
      <point x="425" y="111"/>
      <point x="827" y="111"/>
      <point x="827" y="111" type="curve"/>
      <point x="827" y="111"/>
      <point x="827" y="166"/>
      <point x="827" y="166" type="curve"/>
      <point x="827" y="166"/>
      <point x="425" y="166"/>
    </contour>
    <contour>
      <point x="425" y="33" type="curve"/>
      <point x="425" y="33"/>
      <point x="425" y="-28"/>
      <point x="425" y="-28" type="curve"/>
      <point x="425" y="-28"/>
      <point x="827" y="-28"/>
      <point x="827" y="-28" type="curve"/>
      <point x="827" y="-28"/>
      <point x="827" y="33"/>
      <point x="827" y="33" type="curve"/>
      <point x="827" y="33"/>
      <point x="425" y="33"/>
    </contour>
    <contour>
      <point x="589" y="673" type="curve"/>
      <point x="589" y="673"/>
      <point x="589" y="386"/>
      <point x="589" y="386" type="curve"/>
      <point x="589" y="386"/>
      <point x="648" y="386"/>
      <point x="648" y="386" type="curve"/>
      <point x="648" y="386"/>
      <point x="648" y="673"/>
      <point x="648" y="673" type="curve"/>
      <point x="648" y="673"/>
      <point x="589" y="673"/>
    </contour>
    <contour>
      <point x="380" y="301" type="curve"/>
      <point x="380" y="301"/>
      <point x="380" y="-77"/>
      <point x="380" y="-77" type="curve"/>
      <point x="380" y="-77"/>
      <point x="453" y="-77"/>
      <point x="453" y="-77" type="curve"/>
      <point x="453" y="-77"/>
      <point x="453" y="241"/>
      <point x="453" y="241" type="curve"/>
      <point x="453" y="241"/>
      <point x="779" y="241"/>
      <point x="779" y="241" type="curve"/>
      <point x="779" y="241"/>
      <point x="779" y="-75"/>
      <point x="779" y="-75" type="curve"/>
      <point x="779" y="-75"/>
      <point x="854" y="-75"/>
      <point x="854" y="-75" type="curve"/>
      <point x="854" y="-75"/>
      <point x="854" y="301"/>
      <point x="854" y="301" type="curve"/>
      <point x="854" y="301"/>
      <point x="380" y="301"/>
    </contour>
    <contour>
      <point x="409" y="814" type="curve"/>
      <point x="436" y="776"/>
      <point x="468" y="726"/>
      <point x="482" y="693" type="curve"/>
      <point x="482" y="693"/>
      <point x="550" y="722"/>
      <point x="550" y="722" type="curve"/>
      <point x="534" y="754"/>
      <point x="502" y="802"/>
      <point x="472" y="837" type="curve"/>
      <point x="472" y="837"/>
      <point x="409" y="814"/>
    </contour>
    <contour>
      <point x="775" y="842" type="curve"/>
      <point x="755" y="797"/>
      <point x="715" y="732"/>
      <point x="684" y="691" type="curve"/>
      <point x="684" y="691"/>
      <point x="742" y="668"/>
      <point x="742" y="668" type="curve"/>
      <point x="775" y="705"/>
      <point x="817" y="763"/>
      <point x="853" y="815" type="curve"/>
      <point x="853" y="815"/>
      <point x="775" y="842"/>
    </contour>
    <contour>
      <point x="397" y="639" type="curve"/>
      <point x="397" y="639"/>
      <point x="840" y="639"/>
      <point x="840" y="639" type="curve"/>
      <point x="840" y="639"/>
      <point x="840" y="419"/>
      <point x="840" y="419" type="curve"/>
      <point x="840" y="419"/>
      <point x="397" y="419"/>
      <point x="397" y="419" type="curve"/>
      <point x="397" y="419"/>
      <point x="397" y="639"/>
    </contour>
    <contour>
      <point x="329" y="695" type="curve"/>
      <point x="329" y="695"/>
      <point x="329" y="363"/>
      <point x="329" y="363" type="curve"/>
      <point x="329" y="363"/>
      <point x="910" y="363"/>
      <point x="910" y="363" type="curve"/>
      <point x="910" y="363"/>
      <point x="910" y="695"/>
      <point x="910" y="695" type="curve"/>
      <point x="910" y="695"/>
      <point x="329" y="695"/>
    </contour>
    <contour>
      <point x="424" y="594" type="curve"/>
      <point x="453" y="550"/>
      <point x="483" y="488"/>
      <point x="496" y="450" type="curve"/>
      <point x="496" y="450"/>
      <point x="556" y="476"/>
      <point x="556" y="476" type="curve"/>
      <point x="544" y="513"/>
      <point x="512" y="572"/>
      <point x="482" y="616" type="curve"/>
      <point x="482" y="616"/>
      <point x="424" y="594"/>
    </contour>
    <contour>
      <point x="747" y="617" type="curve"/>
      <point x="729" y="572"/>
      <point x="694" y="505"/>
      <point x="668" y="464" type="curve"/>
      <point x="668" y="464"/>
      <point x="726" y="444"/>
      <point x="726" y="444" type="curve"/>
      <point x="753" y="484"/>
      <point x="786" y="542"/>
      <point x="814" y="595" type="curve"/>
      <point x="814" y="595"/>
      <point x="747" y="617"/>
    </contour>
    <contour>
      <point x="260" y="836" type="curve"/>
      <point x="208" y="685"/>
      <point x="122" y="535"/>
      <point x="29" y="437" type="curve"/>
      <point x="42" y="420"/>
      <point x="64" y="382"/>
      <point x="72" y="365" type="curve"/>
      <point x="174" y="477"/>
      <point x="269" y="647"/>
      <point x="330" y="815" type="curve"/>
      <point x="330" y="815"/>
      <point x="260" y="836"/>
    </contour>
    <contour>
      <point x="160" y="579" type="curve"/>
      <point x="160" y="579"/>
      <point x="160" y="-78"/>
      <point x="160" y="-78" type="curve"/>
      <point x="160" y="-78"/>
      <point x="232" y="-78"/>
      <point x="232" y="-78" type="curve"/>
      <point x="232" y="-78"/>
      <point x="232" y="649"/>
      <point x="232" y="649" type="curve"/>
      <point x="232" y="649"/>
      <point x="231" y="650"/>
      <point x="231" y="650" type="curve"/>
      <point x="231" y="650"/>
      <point x="160" y="579"/>
    </contour>
  </outline>
</glyph>
<glyph name="cid10678" format="2">
  <advance height="1000" width="1000"/>
  <unicode hex="50ED"/>
  <outline>
    <contour>
      <point x="466" y="354" type="curve"/>
      <point x="478" y="361"/>
      <point x="499" y="368"/>
      <point x="624" y="418" type="curve"/>
      <point x="624" y="418"/>
      <point x="611" y="464"/>
      <point x="611" y="464" type="curve"/>
      <point x="611" y="464"/>
      <point x="492" y="424"/>
      <point x="492" y="424" type="curve"/>
      <point x="492" y="424"/>
      <point x="469" y="402"/>
      <point x="469" y="402" type="curve"/>
      <point x="469" y="402"/>
      <point x="466" y="354"/>
    </contour>
    <contour>
      <point x="466" y="354" type="curve"/>
      <point x="466" y="354"/>
      <point x="524" y="418"/>
      <point x="524" y="418" type="curve"/>
      <point x="524" y="418"/>
      <point x="524" y="566"/>
      <point x="524" y="566" type="curve"/>
      <point x="524" y="566"/>
      <point x="472" y="566"/>
      <point x="472" y="566" type="curve"/>
      <point x="472" y="566"/>
      <point x="472" y="457"/>
      <point x="472" y="457" type="curve"/>
      <point x="472" y="421"/>
      <point x="450" y="401"/>
      <point x="436" y="394" type="curve"/>
      <point x="436" y="394"/>
      <point x="466" y="354"/>
    </contour>
    <contour>
      <point x="293" y="804" type="curve"/>
      <point x="293" y="804"/>
      <point x="293" y="748"/>
      <point x="293" y="748" type="curve"/>
      <point x="293" y="748"/>
      <point x="600" y="748"/>
      <point x="600" y="748" type="curve"/>
      <point x="600" y="748"/>
      <point x="600" y="804"/>
      <point x="600" y="804" type="curve"/>
      <point x="600" y="804"/>
      <point x="293" y="804"/>
    </contour>
    <contour>
      <point x="319" y="767" type="curve"/>
      <point x="308" y="697"/>
      <point x="291" y="610"/>
      <point x="277" y="551" type="curve"/>
      <point x="277" y="551"/>
      <point x="343" y="551"/>
      <point x="343" y="551" type="curve"/>
      <point x="356" y="607"/>
      <point x="372" y="691"/>
      <point x="383" y="762" type="curve"/>
      <point x="383" y="762"/>
      <point x="319" y="767"/>
    </contour>
    <contour>
      <point x="445" y="790" type="curve"/>
      <point x="439" y="567"/>
      <point x="421" y="437"/>
      <point x="246" y="365" type="curve"/>
      <point x="260" y="355"/>
      <point x="278" y="333"/>
      <point x="285" y="318" type="curve"/>
      <point x="472" y="400"/>
      <point x="498" y="547"/>
      <point x="505" y="790" type="curve"/>
      <point x="505" y="790"/>
      <point x="445" y="790"/>
    </contour>
    <contour>
      <point x="764" y="794" type="curve"/>
      <point x="760" y="548"/>
      <point x="745" y="438"/>
      <point x="568" y="375" type="curve"/>
      <point x="581" y="364"/>
      <point x="598" y="342"/>
      <point x="605" y="328" type="curve"/>
      <point x="798" y="400"/>
      <point x="819" y="527"/>
      <point x="824" y="794" type="curve"/>
      <point x="824" y="794"/>
      <point x="764" y="794"/>
    </contour>
    <contour>
      <point x="320" y="607" type="curve"/>
      <point x="320" y="607"/>
      <point x="309" y="551"/>
      <point x="309" y="551" type="curve"/>
      <point x="309" y="551"/>
      <point x="597" y="551"/>
      <point x="597" y="551" type="curve"/>
      <point x="597" y="551"/>
      <point x="597" y="607"/>
      <point x="597" y="607" type="curve"/>
      <point x="597" y="607"/>
      <point x="320" y="607"/>
    </contour>
    <contour>
      <point x="625" y="804" type="curve"/>
      <point x="625" y="804"/>
      <point x="625" y="748"/>
      <point x="625" y="748" type="curve"/>
      <point x="625" y="748"/>
      <point x="947" y="748"/>
      <point x="947" y="748" type="curve"/>
      <point x="947" y="748"/>
      <point x="947" y="804"/>
      <point x="947" y="804" type="curve"/>
      <point x="947" y="804"/>
      <point x="625" y="804"/>
    </contour>
    <contour>
      <point x="637" y="767" type="curve"/>
      <point x="627" y="697"/>
      <point x="612" y="610"/>
      <point x="598" y="551" type="curve"/>
      <point x="598" y="551"/>
      <point x="664" y="551"/>
      <point x="664" y="551" type="curve"/>
      <point x="676" y="608"/>
      <point x="690" y="691"/>
      <point x="701" y="762" type="curve"/>
      <point x="701" y="762"/>
      <point x="637" y="767"/>
    </contour>
    <contour>
      <point x="655" y="607" type="curve"/>
      <point x="655" y="607"/>
      <point x="644" y="551"/>
      <point x="644" y="551" type="curve"/>
      <point x="644" y="551"/>
      <point x="954" y="551"/>
      <point x="954" y="551" type="curve"/>
      <point x="954" y="551"/>
      <point x="954" y="607"/>
      <point x="954" y="607" type="curve"/>
      <point x="954" y="607"/>
      <point x="655" y="607"/>
    </contour>
    <contour>
      <point x="784" y="553" type="curve"/>
      <point x="784" y="553"/>
      <point x="784" y="413"/>
      <point x="784" y="413" type="curve"/>
      <point x="784" y="355"/>
      <point x="796" y="340"/>
      <point x="849" y="340" type="curve" smooth="yes"/>
      <point x="859" y="340"/>
      <point x="893" y="340"/>
      <point x="904" y="340" type="curve" smooth="yes"/>
      <point x="947" y="340"/>
      <point x="963" y="363"/>
      <point x="968" y="462" type="curve"/>
      <point x="952" y="467"/>
      <point x="927" y="476"/>
      <point x="916" y="485" type="curve"/>
      <point x="914" y="403"/>
      <point x="911" y="394"/>
      <point x="896" y="394" type="curve" smooth="yes"/>
      <point x="888" y="394"/>
      <point x="863" y="394"/>
      <point x="857" y="394" type="curve" smooth="yes"/>
      <point x="843" y="394"/>
      <point x="842" y="396"/>
      <point x="842" y="413" type="curve"/>
      <point x="842" y="413"/>
      <point x="842" y="553"/>
      <point x="842" y="553" type="curve"/>
      <point x="842" y="553"/>
      <point x="784" y="553"/>
    </contour>
    <contour>
      <point x="355" y="316" type="curve"/>
      <point x="355" y="316"/>
      <point x="355" y="-81"/>
      <point x="355" y="-81" type="curve"/>
      <point x="355" y="-81"/>
      <point x="426" y="-81"/>
      <point x="426" y="-81" type="curve"/>
      <point x="426" y="-81"/>
      <point x="426" y="256"/>
      <point x="426" y="256" type="curve"/>
      <point x="426" y="256"/>
      <point x="818" y="256"/>
      <point x="818" y="256" type="curve"/>
      <point x="818" y="256"/>
      <point x="818" y="-77"/>
      <point x="818" y="-77" type="curve"/>
      <point x="818" y="-77"/>
      <point x="892" y="-77"/>
      <point x="892" y="-77" type="curve"/>
      <point x="892" y="-77"/>
      <point x="892" y="316"/>
      <point x="892" y="316" type="curve"/>
      <point x="892" y="316"/>
      <point x="355" y="316"/>
    </contour>
    <contour>
      <point x="396" y="169" type="curve"/>
      <point x="396" y="169"/>
      <point x="396" y="111"/>
      <point x="396" y="111" type="curve"/>
      <point x="396" y="111"/>
      <point x="851" y="111"/>
      <point x="851" y="111" type="curve"/>
      <point x="851" y="111"/>
      <point x="851" y="169"/>
      <point x="851" y="169" type="curve"/>
      <point x="851" y="169"/>
      <point x="396" y="169"/>
    </contour>
    <contour>
      <point x="396" y="19" type="curve"/>
      <point x="396" y="19"/>
      <point x="396" y="-41"/>
      <point x="396" y="-41" type="curve"/>
      <point x="396" y="-41"/>
      <point x="851" y="-41"/>
      <point x="851" y="-41" type="curve"/>
      <point x="851" y="-41"/>
      <point x="851" y="19"/>
      <point x="851" y="19" type="curve"/>
      <point x="851" y="19"/>
      <point x="396" y="19"/>
    </contour>
    <contour>
      <point x="221" y="835" type="curve"/>
      <point x="178" y="681"/>
      <point x="104" y="528"/>
      <point x="21" y="428" type="curve"/>
      <point x="33" y="410"/>
      <point x="53" y="369"/>
      <point x="59" y="352" type="curve"/>
      <point x="154" y="468"/>
      <point x="237" y="643"/>
      <point x="289" y="817" type="curve"/>
      <point x="289" y="817"/>
      <point x="221" y="835"/>
    </contour>
    <contour>
      <point x="146" y="582" type="curve"/>
      <point x="146" y="582"/>
      <point x="146" y="-78"/>
      <point x="146" y="-78" type="curve"/>
      <point x="146" y="-78"/>
      <point x="213" y="-78"/>
      <point x="213" y="-78" type="curve"/>
      <point x="213" y="-78"/>
      <point x="213" y="646"/>
      <point x="213" y="646" type="curve"/>
      <point x="213" y="646"/>
      <point x="212" y="648"/>
      <point x="212" y="648" type="curve"/>
      <point x="212" y="648"/>
      <point x="146" y="582"/>
    </contour>
  </outline>
</glyph>
<glyph name="cid10680" format="2">
  <advance height="1000" width="1000"/>
  <unicode hex="50EE"/>
  <outline>
    <contour>
      <point x="563" y="828" type="curve"/>
      <point x="583" y="798"/>
      <point x="600" y="755"/>
      <point x="605" y="726" type="curve"/>
      <point x="605" y="726"/>
      <point x="674" y="748"/>
      <point x="674" y="748" type="curve"/>
      <point x="668" y="776"/>
      <point x="650" y="818"/>
      <point x="628" y="847" type="curve"/>
      <point x="628" y="847"/>
      <point x="563" y="828"/>
    </contour>
    <contour>
      <point x="340" y="756" type="curve"/>
      <point x="340" y="756"/>
      <point x="340" y="695"/>
      <point x="340" y="695" type="curve"/>
      <point x="340" y="695"/>
      <point x="924" y="695"/>
      <point x="924" y="695" type="curve"/>
      <point x="924" y="695"/>
      <point x="924" y="756"/>
      <point x="924" y="756" type="curve"/>
      <point x="924" y="756"/>
      <point x="340" y="756"/>
    </contour>
    <contour>
      <point x="304" y="595" type="curve"/>
      <point x="304" y="595"/>
      <point x="304" y="534"/>
      <point x="304" y="534" type="curve"/>
      <point x="304" y="534"/>
      <point x="954" y="534"/>
      <point x="954" y="534" type="curve"/>
      <point x="954" y="534"/>
      <point x="954" y="595"/>
      <point x="954" y="595" type="curve"/>
      <point x="954" y="595"/>
      <point x="304" y="595"/>
    </contour>
    <contour>
      <point x="444" y="687" type="curve"/>
      <point x="460" y="658"/>
      <point x="475" y="617"/>
      <point x="480" y="591" type="curve"/>
      <point x="480" y="591"/>
      <point x="547" y="604"/>
      <point x="547" y="604" type="curve"/>
      <point x="542" y="629"/>
      <point x="526" y="668"/>
      <point x="509" y="697" type="curve"/>
      <point x="509" y="697"/>
      <point x="444" y="687"/>
    </contour>
    <contour>
      <point x="754" y="702" type="curve"/>
      <point x="744" y="673"/>
      <point x="724" y="629"/>
      <point x="708" y="599" type="curve"/>
      <point x="708" y="599"/>
      <point x="772" y="589"/>
      <point x="772" y="589" type="curve"/>
      <point x="789" y="616"/>
      <point x="810" y="653"/>
      <point x="829" y="692" type="curve"/>
      <point x="829" y="692"/>
      <point x="754" y="702"/>
    </contour>
    <contour>
      <point x="439" y="311" type="curve"/>
      <point x="439" y="311"/>
      <point x="823" y="311"/>
      <point x="823" y="311" type="curve"/>
      <point x="823" y="311"/>
      <point x="823" y="248"/>
      <point x="823" y="248" type="curve"/>
      <point x="823" y="248"/>
      <point x="439" y="248"/>
      <point x="439" y="248" type="curve"/>
      <point x="439" y="248"/>
      <point x="439" y="311"/>
    </contour>
    <contour>
      <point x="439" y="432" type="curve"/>
      <point x="439" y="432"/>
      <point x="823" y="432"/>
      <point x="823" y="432" type="curve"/>
      <point x="823" y="432"/>
      <point x="823" y="369"/>
      <point x="823" y="369" type="curve"/>
      <point x="823" y="369"/>
      <point x="439" y="369"/>
      <point x="439" y="369" type="curve"/>
      <point x="439" y="369"/>
      <point x="439" y="432"/>
    </contour>
    <contour>
      <point x="367" y="490" type="curve"/>
      <point x="367" y="490"/>
      <point x="367" y="190"/>
      <point x="367" y="190" type="curve"/>
      <point x="367" y="190"/>
      <point x="895" y="190"/>
      <point x="895" y="190" type="curve"/>
      <point x="895" y="190"/>
      <point x="895" y="490"/>
      <point x="895" y="490" type="curve"/>
      <point x="895" y="490"/>
      <point x="367" y="490"/>
    </contour>
    <contour>
      <point x="592" y="453" type="curve"/>
      <point x="592" y="453"/>
      <point x="592" y="-30"/>
      <point x="592" y="-30" type="curve"/>
      <point x="592" y="-30"/>
      <point x="666" y="-30"/>
      <point x="666" y="-30" type="curve"/>
      <point x="666" y="-30"/>
      <point x="666" y="453"/>
      <point x="666" y="453" type="curve"/>
      <point x="666" y="453"/>
      <point x="592" y="453"/>
    </contour>
    <contour>
      <point x="348" y="135" type="curve"/>
      <point x="348" y="135"/>
      <point x="348" y="73"/>
      <point x="348" y="73" type="curve"/>
      <point x="348" y="73"/>
      <point x="906" y="73"/>
      <point x="906" y="73" type="curve"/>
      <point x="906" y="73"/>
      <point x="906" y="135"/>
      <point x="906" y="135" type="curve"/>
      <point x="906" y="135"/>
      <point x="348" y="135"/>
    </contour>
    <contour>
      <point x="292" y="1" type="curve"/>
      <point x="292" y="1"/>
      <point x="292" y="-60"/>
      <point x="292" y="-60" type="curve"/>
      <point x="292" y="-60"/>
      <point x="957" y="-60"/>
      <point x="957" y="-60" type="curve"/>
      <point x="957" y="-60"/>
      <point x="957" y="1"/>
      <point x="957" y="1" type="curve"/>
      <point x="957" y="1"/>
      <point x="292" y="1"/>
    </contour>
    <contour>
      <point x="265" y="835" type="curve"/>
      <point x="209" y="683"/>
      <point x="116" y="533"/>
      <point x="17" y="436" type="curve"/>
      <point x="30" y="420"/>
      <point x="49" y="382"/>
      <point x="57" y="365" type="curve"/>
      <point x="165" y="477"/>
      <point x="268" y="647"/>
      <point x="334" y="817" type="curve"/>
      <point x="334" y="817"/>
      <point x="265" y="835"/>
    </contour>
    <contour>
      <point x="160" y="579" type="curve"/>
      <point x="160" y="579"/>
      <point x="160" y="-78"/>
      <point x="160" y="-78" type="curve"/>
      <point x="160" y="-78"/>
      <point x="232" y="-78"/>
      <point x="232" y="-78" type="curve"/>
      <point x="232" y="-78"/>
      <point x="232" y="649"/>
      <point x="232" y="649" type="curve"/>
      <point x="232" y="649"/>
      <point x="231" y="650"/>
      <point x="231" y="650" type="curve"/>
      <point x="231" y="650"/>
      <point x="160" y="579"/>
    </contour>
  </outline>
</glyph>
<glyph name="cid10695" format="2">
  <advance height="1000" width="1000"/>
  <unicode hex="50F5"/>
  <outline>
    <contour>
      <point x="313" y="794" type="curve"/>
      <point x="313" y="794"/>
      <point x="313" y="742"/>
      <point x="313" y="742" type="curve"/>
      <point x="313" y="742"/>
      <point x="949" y="742"/>
      <point x="949" y="742" type="curve"/>
      <point x="949" y="742"/>
      <point x="949" y="794"/>
      <point x="949" y="794" type="curve"/>
      <point x="949" y="794"/>
      <point x="313" y="794"/>
    </contour>
    <contour>
      <point x="305" y="401" type="curve"/>
      <point x="305" y="401"/>
      <point x="305" y="350"/>
      <point x="305" y="350" type="curve"/>
      <point x="305" y="350"/>
      <point x="952" y="350"/>
      <point x="952" y="350" type="curve"/>
      <point x="952" y="350"/>
      <point x="952" y="401"/>
      <point x="952" y="401" type="curve"/>
      <point x="952" y="401"/>
      <point x="305" y="401"/>
    </contour>
    <contour>
      <point x="275" y="-8" type="curve"/>
      <point x="275" y="-8"/>
      <point x="275" y="-59"/>
      <point x="275" y="-59" type="curve"/>
      <point x="275" y="-59"/>
      <point x="955" y="-59"/>
      <point x="955" y="-59" type="curve"/>
      <point x="955" y="-59"/>
      <point x="955" y="-8"/>
      <point x="955" y="-8" type="curve"/>
      <point x="955" y="-8"/>
      <point x="275" y="-8"/>
    </contour>
    <contour>
      <point x="433" y="547" type="curve"/>
      <point x="433" y="547"/>
      <point x="819" y="547"/>
      <point x="819" y="547" type="curve"/>
      <point x="819" y="547"/>
      <point x="819" y="494"/>
      <point x="819" y="494" type="curve"/>
      <point x="819" y="494"/>
      <point x="433" y="494"/>
      <point x="433" y="494" type="curve"/>
      <point x="433" y="494"/>
      <point x="433" y="547"/>
    </contour>
    <contour>
      <point x="433" y="649" type="curve"/>
      <point x="433" y="649"/>
      <point x="819" y="649"/>
      <point x="819" y="649" type="curve"/>
      <point x="819" y="649"/>
      <point x="819" y="597"/>
      <point x="819" y="597" type="curve"/>
      <point x="819" y="597"/>
      <point x="433" y="597"/>
      <point x="433" y="597" type="curve"/>
      <point x="433" y="597"/>
      <point x="433" y="649"/>
    </contour>
    <contour>
      <point x="363" y="699" type="curve"/>
      <point x="363" y="699"/>
      <point x="363" y="444"/>
      <point x="363" y="444" type="curve"/>
      <point x="363" y="444"/>
      <point x="889" y="444"/>
      <point x="889" y="444" type="curve"/>
      <point x="889" y="444"/>
      <point x="889" y="699"/>
      <point x="889" y="699" type="curve"/>
      <point x="889" y="699"/>
      <point x="363" y="699"/>
    </contour>
    <contour>
      <point x="427" y="153" type="curve"/>
      <point x="427" y="153"/>
      <point x="822" y="153"/>
      <point x="822" y="153" type="curve"/>
      <point x="822" y="153"/>
      <point x="822" y="92"/>
      <point x="822" y="92" type="curve"/>
      <point x="822" y="92"/>
      <point x="427" y="92"/>
      <point x="427" y="92" type="curve"/>
      <point x="427" y="92"/>
      <point x="427" y="153"/>
    </contour>
    <contour>
      <point x="427" y="254" type="curve"/>
      <point x="427" y="254"/>
      <point x="822" y="254"/>
      <point x="822" y="254" type="curve"/>
      <point x="822" y="254"/>
      <point x="822" y="204"/>
      <point x="822" y="204" type="curve"/>
      <point x="822" y="204"/>
      <point x="427" y="204"/>
      <point x="427" y="204" type="curve"/>
      <point x="427" y="204"/>
      <point x="427" y="254"/>
    </contour>
    <contour>
      <point x="357" y="305" type="curve"/>
      <point x="357" y="305"/>
      <point x="357" y="41"/>
      <point x="357" y="41" type="curve"/>
      <point x="357" y="41"/>
      <point x="892" y="41"/>
      <point x="892" y="41" type="curve"/>
      <point x="892" y="41"/>
      <point x="892" y="305"/>
      <point x="892" y="305" type="curve"/>
      <point x="892" y="305"/>
      <point x="357" y="305"/>
    </contour>
    <contour>
      <point x="594" y="288" type="curve"/>
      <point x="594" y="288"/>
      <point x="594" y="59"/>
      <point x="594" y="59" type="curve"/>
      <point x="594" y="59"/>
      <point x="663" y="59"/>
      <point x="663" y="59" type="curve"/>
      <point x="663" y="59"/>
      <point x="663" y="288"/>
      <point x="663" y="288" type="curve"/>
      <point x="663" y="288"/>
      <point x="594" y="288"/>
    </contour>
    <contour>
      <point x="594" y="677" type="curve"/>
      <point x="594" y="677"/>
      <point x="594" y="469"/>
      <point x="594" y="469" type="curve"/>
      <point x="594" y="469"/>
      <point x="663" y="469"/>
      <point x="663" y="469" type="curve"/>
      <point x="663" y="469"/>
      <point x="663" y="677"/>
      <point x="663" y="677" type="curve"/>
      <point x="663" y="677"/>
      <point x="594" y="677"/>
    </contour>
    <contour>
      <point x="233" y="835" type="curve"/>
      <point x="189" y="682"/>
      <point x="116" y="528"/>
      <point x="33" y="427" type="curve"/>
      <point x="45" y="410"/>
      <point x="65" y="374"/>
      <point x="71" y="357" type="curve"/>
      <point x="163" y="473"/>
      <point x="246" y="646"/>
      <point x="298" y="817" type="curve"/>
      <point x="298" y="817"/>
      <point x="233" y="835"/>
    </contour>
    <contour>
      <point x="155" y="590" type="curve"/>
      <point x="155" y="590"/>
      <point x="155" y="-80"/>
      <point x="155" y="-80" type="curve"/>
      <point x="155" y="-80"/>
      <point x="225" y="-80"/>
      <point x="225" y="-80" type="curve"/>
      <point x="225" y="-80"/>
      <point x="225" y="656"/>
      <point x="225" y="656" type="curve"/>
      <point x="225" y="656"/>
      <point x="223" y="658"/>
      <point x="223" y="658" type="curve"/>
      <point x="223" y="658"/>
      <point x="155" y="590"/>
    </contour>
  </outline>
</glyph>
<glyph name="cid10729" format="2">
  <advance height="1000" width="1000"/>
  <unicode hex="5108"/>
  <outline>
    <contour>
      <point x="473" y="650" type="curve"/>
      <point x="473" y="650"/>
      <point x="473" y="596"/>
      <point x="473" y="596" type="curve"/>
      <point x="473" y="596"/>
      <point x="757" y="596"/>
      <point x="757" y="596" type="curve"/>
      <point x="757" y="596"/>
      <point x="757" y="650"/>
      <point x="757" y="650" type="curve"/>
      <point x="757" y="650"/>
      <point x="473" y="650"/>
    </contour>
    <contour>
      <point x="421" y="122" type="curve"/>
      <point x="421" y="122"/>
      <point x="421" y="72"/>
      <point x="421" y="72" type="curve"/>
      <point x="421" y="72"/>
      <point x="808" y="72"/>
      <point x="808" y="72" type="curve"/>
      <point x="808" y="72"/>
      <point x="808" y="122"/>
      <point x="808" y="122" type="curve"/>
      <point x="808" y="122"/>
      <point x="421" y="122"/>
    </contour>
    <contour>
      <point x="421" y="4" type="curve"/>
      <point x="421" y="4"/>
      <point x="421" y="-49"/>
      <point x="421" y="-49" type="curve"/>
      <point x="421" y="-49"/>
      <point x="808" y="-49"/>
      <point x="808" y="-49" type="curve"/>
      <point x="808" y="-49"/>
      <point x="808" y="4"/>
      <point x="808" y="4" type="curve"/>
      <point x="808" y="4"/>
      <point x="421" y="4"/>
    </contour>
    <contour>
      <point x="415" y="488" type="curve"/>
      <point x="415" y="488"/>
      <point x="828" y="488"/>
      <point x="828" y="488" type="curve"/>
      <point x="828" y="488"/>
      <point x="828" y="345"/>
      <point x="828" y="345" type="curve"/>
      <point x="828" y="345"/>
      <point x="415" y="345"/>
      <point x="415" y="345" type="curve"/>
      <point x="415" y="345"/>
      <point x="415" y="488"/>
    </contour>
    <contour>
      <point x="348" y="542" type="curve"/>
      <point x="348" y="542"/>
      <point x="348" y="291"/>
      <point x="348" y="291" type="curve"/>
      <point x="348" y="291"/>
      <point x="895" y="291"/>
      <point x="895" y="291" type="curve"/>
      <point x="895" y="291"/>
      <point x="895" y="542"/>
      <point x="895" y="542" type="curve"/>
      <point x="895" y="542"/>
      <point x="348" y="542"/>
    </contour>
    <contour>
      <point x="390" y="239" type="curve"/>
      <point x="390" y="239"/>
      <point x="390" y="-78"/>
      <point x="390" y="-78" type="curve"/>
      <point x="390" y="-78"/>
      <point x="458" y="-78"/>
      <point x="458" y="-78" type="curve"/>
      <point x="458" y="-78"/>
      <point x="458" y="188"/>
      <point x="458" y="188" type="curve"/>
      <point x="458" y="188"/>
      <point x="789" y="188"/>
      <point x="789" y="188" type="curve"/>
      <point x="789" y="188"/>
      <point x="789" y="-75"/>
      <point x="789" y="-75" type="curve"/>
      <point x="789" y="-75"/>
      <point x="857" y="-75"/>
      <point x="857" y="-75" type="curve"/>
      <point x="857" y="-75"/>
      <point x="857" y="239"/>
      <point x="857" y="239" type="curve"/>
      <point x="857" y="239"/>
      <point x="390" y="239"/>
    </contour>
    <contour>
      <point x="583" y="513" type="curve"/>
      <point x="583" y="513"/>
      <point x="583" y="315"/>
      <point x="583" y="315" type="curve"/>
      <point x="583" y="315"/>
      <point x="651" y="315"/>
      <point x="651" y="315" type="curve"/>
      <point x="651" y="315"/>
      <point x="651" y="513"/>
      <point x="651" y="513" type="curve"/>
      <point x="651" y="513"/>
      <point x="583" y="513"/>
    </contour>
    <contour>
      <point x="452" y="450" type="curve"/>
      <point x="471" y="421"/>
      <point x="490" y="382"/>
      <point x="497" y="357" type="curve"/>
      <point x="497" y="357"/>
      <point x="551" y="381"/>
      <point x="551" y="381" type="curve"/>
      <point x="544" y="406"/>
      <point x="523" y="444"/>
      <point x="504" y="472" type="curve"/>
      <point x="504" y="472"/>
      <point x="452" y="450"/>
    </contour>
    <contour>
      <point x="735" y="476" type="curve"/>
      <point x="723" y="448"/>
      <point x="699" y="405"/>
      <point x="681" y="379" type="curve"/>
      <point x="681" y="379"/>
      <point x="730" y="357"/>
      <point x="730" y="357" type="curve"/>
      <point x="748" y="382"/>
      <point x="770" y="417"/>
      <point x="790" y="452" type="curve"/>
      <point x="790" y="452"/>
      <point x="735" y="476"/>
    </contour>
    <contour>
      <point x="615" y="772" type="curve"/>
      <point x="689" y="686"/>
      <point x="819" y="590"/>
      <point x="932" y="535" type="curve"/>
      <point x="942" y="554"/>
      <point x="958" y="581"/>
      <point x="973" y="598" type="curve"/>
      <point x="856" y="647"/>
      <point x="729" y="738"/>
      <point x="646" y="836" type="curve"/>
      <point x="646" y="836"/>
      <point x="578" y="836"/>
      <point x="578" y="836" type="curve"/>
      <point x="516" y="748"/>
      <point x="393" y="649"/>
      <point x="268" y="592" type="curve"/>
      <point x="282" y="577"/>
      <point x="298" y="551"/>
      <point x="306" y="533" type="curve"/>
      <point x="429" y="594"/>
      <point x="550" y="689"/>
    </contour>
    <contour>
      <point x="264" y="836" type="curve"/>
      <point x="208" y="684"/>
      <point x="115" y="534"/>
      <point x="16" y="437" type="curve"/>
      <point x="30" y="420"/>
      <point x="50" y="381"/>
      <point x="58" y="363" type="curve"/>
      <point x="166" y="475"/>
      <point x="269" y="645"/>
      <point x="335" y="815" type="curve"/>
      <point x="335" y="815"/>
      <point x="264" y="836"/>
    </contour>
    <contour>
      <point x="162" y="579" type="curve"/>
      <point x="162" y="579"/>
      <point x="162" y="-78"/>
      <point x="162" y="-78" type="curve"/>
      <point x="162" y="-78"/>
      <point x="230" y="-78"/>
      <point x="230" y="-78" type="curve"/>
      <point x="230" y="-78"/>
      <point x="230" y="649"/>
      <point x="230" y="649" type="curve"/>
      <point x="230" y="649"/>
      <point x="231" y="650"/>
      <point x="231" y="650" type="curve"/>
      <point x="231" y="650"/>
      <point x="162" y="579"/>
    </contour>
  </outline>
</glyph>
<glyph name="cid10731" format="2">
  <advance height="1000" width="1000"/>
  <unicode hex="5109"/>
  <outline>
    <contour>
      <point x="610" y="768" type="curve"/>
      <point x="686" y="673"/>
      <point x="819" y="566"/>
      <point x="935" y="504" type="curve"/>
      <point x="946" y="525"/>
      <point x="964" y="551"/>
      <point x="978" y="568" type="curve"/>
      <point x="859" y="623"/>
      <point x="727" y="728"/>
      <point x="642" y="835" type="curve"/>
      <point x="642" y="835"/>
      <point x="572" y="835"/>
      <point x="572" y="835" type="curve"/>
      <point x="510" y="738"/>
      <point x="380" y="625"/>
      <point x="251" y="560" type="curve"/>
      <point x="265" y="544"/>
      <point x="282" y="517"/>
      <point x="291" y="499" type="curve"/>
      <point x="419" y="568"/>
      <point x="543" y="676"/>
    </contour>
    <contour>
      <point x="440" y="599" type="curve"/>
      <point x="440" y="599"/>
      <point x="440" y="535"/>
      <point x="440" y="535" type="curve"/>
      <point x="440" y="535"/>
      <point x="791" y="535"/>
      <point x="791" y="535" type="curve"/>
      <point x="791" y="535"/>
      <point x="791" y="599"/>
      <point x="791" y="599" type="curve"/>
      <point x="791" y="599"/>
      <point x="440" y="599"/>
    </contour>
    <contour>
      <point x="396" y="406" type="curve"/>
      <point x="396" y="406"/>
      <point x="518" y="406"/>
      <point x="518" y="406" type="curve"/>
      <point x="518" y="406"/>
      <point x="518" y="281"/>
      <point x="518" y="281" type="curve"/>
      <point x="518" y="281"/>
      <point x="396" y="281"/>
      <point x="396" y="281" type="curve"/>
      <point x="396" y="281"/>
      <point x="396" y="406"/>
    </contour>
    <contour>
      <point x="325" y="464" type="curve"/>
      <point x="325" y="464"/>
      <point x="325" y="223"/>
      <point x="325" y="223" type="curve"/>
      <point x="325" y="223"/>
      <point x="589" y="223"/>
      <point x="589" y="223" type="curve"/>
      <point x="589" y="223"/>
      <point x="589" y="464"/>
      <point x="589" y="464" type="curve"/>
      <point x="589" y="464"/>
      <point x="325" y="464"/>
    </contour>
    <contour>
      <point x="721" y="406" type="curve"/>
      <point x="721" y="406"/>
      <point x="842" y="406"/>
      <point x="842" y="406" type="curve"/>
      <point x="842" y="406"/>
      <point x="842" y="281"/>
      <point x="842" y="281" type="curve"/>
      <point x="842" y="281"/>
      <point x="721" y="281"/>
      <point x="721" y="281" type="curve"/>
      <point x="721" y="281"/>
      <point x="721" y="406"/>
    </contour>
    <contour>
      <point x="650" y="464" type="curve"/>
      <point x="650" y="464"/>
      <point x="650" y="223"/>
      <point x="650" y="223" type="curve"/>
      <point x="650" y="223"/>
      <point x="913" y="223"/>
      <point x="913" y="223" type="curve"/>
      <point x="913" y="223"/>
      <point x="913" y="464"/>
      <point x="913" y="464" type="curve"/>
      <point x="913" y="464"/>
      <point x="650" y="464"/>
    </contour>
    <contour>
      <point x="443" y="216" type="curve"/>
      <point x="415" y="108"/>
      <point x="351" y="19"/>
      <point x="265" y="-36" type="curve"/>
      <point x="282" y="-47"/>
      <point x="310" y="-71"/>
      <point x="322" y="-84" type="curve"/>
      <point x="411" y="-21"/>
      <point x="482" y="79"/>
      <point x="516" y="203" type="curve"/>
      <point x="516" y="203"/>
      <point x="443" y="216"/>
    </contour>
    <contour>
      <point x="743" y="216" type="curve"/>
      <point x="720" y="104"/>
      <point x="661" y="18"/>
      <point x="573" y="-35" type="curve"/>
      <point x="590" y="-46"/>
      <point x="620" y="-71"/>
      <point x="631" y="-84" type="curve"/>
      <point x="721" y="-22"/>
      <point x="789" y="75"/>
      <point x="816" y="205" type="curve"/>
      <point x="816" y="205"/>
      <point x="743" y="216"/>
    </contour>
    <contour>
      <point x="426" y="84" type="curve"/>
      <point x="478" y="48"/>
      <point x="545" y="-4"/>
      <point x="576" y="-39" type="curve"/>
      <point x="576" y="-39"/>
      <point x="621" y="12"/>
      <point x="621" y="12" type="curve"/>
      <point x="588" y="46"/>
      <point x="520" y="96"/>
      <point x="468" y="130" type="curve"/>
      <point x="468" y="130"/>
      <point x="426" y="84"/>
    </contour>
    <contour>
      <point x="723" y="77" type="curve"/>
      <point x="788" y="29"/>
      <point x="872" y="-39"/>
      <point x="913" y="-81" type="curve"/>
      <point x="913" y="-81"/>
      <point x="963" y="-30"/>
      <point x="963" y="-30" type="curve"/>
      <point x="920" y="10"/>
      <point x="835" y="76"/>
      <point x="771" y="122" type="curve"/>
      <point x="771" y="122"/>
      <point x="723" y="77"/>
    </contour>
    <contour>
      <point x="233" y="835" type="curve"/>
      <point x="185" y="680"/>
      <point x="105" y="526"/>
      <point x="18" y="426" type="curve"/>
      <point x="31" y="407"/>
      <point x="50" y="368"/>
      <point x="57" y="350" type="curve"/>
      <point x="156" y="467"/>
      <point x="246" y="642"/>
      <point x="302" y="816" type="curve"/>
      <point x="302" y="816"/>
      <point x="233" y="835"/>
    </contour>
    <contour>
      <point x="154" y="590" type="curve"/>
      <point x="154" y="590"/>
      <point x="154" y="-80"/>
      <point x="154" y="-80" type="curve"/>
      <point x="154" y="-80"/>
      <point x="222" y="-80"/>
      <point x="222" y="-80" type="curve"/>
      <point x="222" y="-80"/>
      <point x="222" y="657"/>
      <point x="222" y="657" type="curve"/>
      <point x="222" y="657"/>
      <point x="222" y="659"/>
      <point x="222" y="659" type="curve"/>
      <point x="222" y="659"/>
      <point x="154" y="590"/>
    </contour>
  </outline>
</glyph>
<glyph name="cid10740" format="2">
  <advance height="1000" width="1000"/>
  <unicode hex="510D"/>
  <outline>
    <contour>
      <point x="222" y="837" type="curve"/>
      <point x="181" y="690"/>
      <point x="111" y="546"/>
      <point x="31" y="451" type="curve"/>
      <point x="43" y="433"/>
      <point x="63" y="392"/>
      <point x="69" y="374" type="curve"/>
      <point x="160" y="485"/>
      <point x="240" y="653"/>
      <point x="290" y="818" type="curve"/>
      <point x="290" y="818"/>
      <point x="222" y="837"/>
    </contour>
    <contour>
      <point x="148" y="601" type="curve"/>
      <point x="148" y="601"/>
      <point x="148" y="-79"/>
      <point x="148" y="-79" type="curve"/>
      <point x="148" y="-79"/>
      <point x="220" y="-79"/>
      <point x="220" y="-79" type="curve"/>
      <point x="220" y="-79"/>
      <point x="220" y="671"/>
      <point x="220" y="671" type="curve"/>
      <point x="220" y="671"/>
      <point x="219" y="672"/>
      <point x="219" y="672" type="curve"/>
      <point x="219" y="672"/>
      <point x="148" y="601"/>
    </contour>
    <contour>
      <point x="336" y="793" type="curve"/>
      <point x="336" y="793"/>
      <point x="336" y="477"/>
      <point x="336" y="477" type="curve"/>
      <point x="336" y="477"/>
      <point x="893" y="477"/>
      <point x="893" y="477" type="curve"/>
      <point x="893" y="477"/>
      <point x="893" y="793"/>
      <point x="893" y="793" type="curve"/>
      <point x="893" y="793"/>
      <point x="828" y="793"/>
      <point x="828" y="793" type="curve"/>
      <point x="828" y="793"/>
      <point x="828" y="535"/>
      <point x="828" y="535" type="curve"/>
      <point x="828" y="535"/>
      <point x="401" y="535"/>
      <point x="401" y="535" type="curve"/>
      <point x="401" y="535"/>
      <point x="401" y="793"/>
      <point x="401" y="793" type="curve"/>
      <point x="401" y="793"/>
      <point x="336" y="793"/>
    </contour>
    <contour>
      <point x="712" y="830" type="curve"/>
      <point x="645" y="734"/>
      <point x="532" y="647"/>
      <point x="423" y="592" type="curve"/>
      <point x="437" y="580"/>
      <point x="461" y="558"/>
      <point x="471" y="546" type="curve"/>
      <point x="578" y="608"/>
      <point x="695" y="702"/>
      <point x="769" y="805" type="curve"/>
      <point x="769" y="805"/>
      <point x="712" y="830"/>
    </contour>
    <contour>
      <point x="452" y="754" type="curve"/>
      <point x="555" y="700"/>
      <point x="682" y="617"/>
      <point x="746" y="562" type="curve"/>
      <point x="746" y="562"/>
      <point x="787" y="610"/>
      <point x="787" y="610" type="curve"/>
      <point x="722" y="664"/>
      <point x="594" y="743"/>
      <point x="492" y="795" type="curve"/>
      <point x="492" y="795"/>
      <point x="452" y="754"/>
    </contour>
    <contour>
      <point x="538" y="801" type="curve"/>
      <point x="565" y="786"/>
      <point x="598" y="764"/>
      <point x="615" y="748" type="curve"/>
      <point x="615" y="748"/>
      <point x="652" y="793"/>
      <point x="652" y="793" type="curve"/>
      <point x="635" y="808"/>
      <point x="603" y="829"/>
      <point x="576" y="841" type="curve"/>
      <point x="576" y="841"/>
      <point x="538" y="801"/>
    </contour>
    <contour>
      <point x="568" y="590" type="curve"/>
      <point x="595" y="572"/>
      <point x="626" y="548"/>
      <point x="642" y="529" type="curve"/>
      <point x="642" y="529"/>
      <point x="681" y="571"/>
      <point x="681" y="571" type="curve"/>
      <point x="666" y="589"/>
      <point x="634" y="613"/>
      <point x="607" y="629" type="curve"/>
      <point x="607" y="629"/>
      <point x="568" y="590"/>
    </contour>
    <contour>
      <point x="408" y="690" type="curve"/>
      <point x="434" y="674"/>
      <point x="466" y="651"/>
      <point x="481" y="633" type="curve"/>
      <point x="481" y="633"/>
      <point x="521" y="674"/>
      <point x="521" y="674" type="curve"/>
      <point x="506" y="690"/>
      <point x="474" y="713"/>
      <point x="448" y="728" type="curve"/>
      <point x="448" y="728"/>
      <point x="408" y="690"/>
    </contour>
    <contour>
      <point x="703" y="697" type="curve"/>
      <point x="731" y="682"/>
      <point x="764" y="660"/>
      <point x="782" y="643" type="curve"/>
      <point x="782" y="643"/>
      <point x="818" y="689"/>
      <point x="818" y="689" type="curve"/>
      <point x="801" y="705"/>
      <point x="767" y="726"/>
      <point x="739" y="739" type="curve"/>
      <point x="739" y="739"/>
      <point x="703" y="697"/>
    </contour>
    <contour>
      <point x="486" y="508" type="curve"/>
      <point x="472" y="413"/>
      <point x="425" y="371"/>
      <point x="258" y="348" type="curve"/>
      <point x="271" y="335"/>
      <point x="288" y="308"/>
      <point x="294" y="291" type="curve"/>
      <point x="482" y="323"/>
      <point x="538" y="384"/>
      <point x="555" y="508" type="curve"/>
      <point x="555" y="508"/>
      <point x="486" y="508"/>
    </contour>
    <contour>
      <point x="678" y="509" type="curve"/>
      <point x="678" y="509"/>
      <point x="678" y="422"/>
      <point x="678" y="422" type="curve"/>
      <point x="678" y="353"/>
      <point x="695" y="330"/>
      <point x="766" y="330" type="curve" smooth="yes"/>
      <point x="781" y="330"/>
      <point x="870" y="330"/>
      <point x="889" y="330" type="curve" smooth="yes"/>
      <point x="914" y="330"/>
      <point x="939" y="330"/>
      <point x="953" y="334" type="curve"/>
      <point x="951" y="350"/>
      <point x="949" y="378"/>
      <point x="947" y="396" type="curve"/>
      <point x="931" y="392"/>
      <point x="904" y="391"/>
      <point x="886" y="391" type="curve" smooth="yes"/>
      <point x="868" y="391"/>
      <point x="785" y="391"/>
      <point x="767" y="391" type="curve" smooth="yes"/>
      <point x="748" y="391"/>
      <point x="745" y="398"/>
      <point x="745" y="422" type="curve"/>
      <point x="745" y="422"/>
      <point x="745" y="509"/>
      <point x="745" y="509" type="curve"/>
      <point x="745" y="509"/>
      <point x="678" y="509"/>
    </contour>
    <contour>
      <point x="528" y="285" type="curve"/>
      <point x="528" y="285"/>
      <point x="480" y="230"/>
      <point x="480" y="230" type="curve"/>
      <point x="480" y="230"/>
      <point x="798" y="230"/>
      <point x="798" y="230" type="curve"/>
      <point x="798" y="230"/>
      <point x="798" y="285"/>
      <point x="798" y="285" type="curve"/>
      <point x="798" y="285"/>
      <point x="528" y="285"/>
    </contour>
    <contour>
      <point x="775" y="285" type="curve"/>
      <point x="775" y="285"/>
      <point x="775" y="274"/>
      <point x="775" y="274" type="curve"/>
      <point x="694" y="102"/>
      <point x="474" y="11"/>
      <point x="251" y="-20" type="curve"/>
      <point x="263" y="-36"/>
      <point x="278" y="-63"/>
      <point x="285" y="-81" type="curve"/>
      <point x="523" y="-40"/>
      <point x="752" y="57"/>
      <point x="849" y="265" type="curve"/>
      <point x="849" y="265"/>
      <point x="803" y="288"/>
      <point x="803" y="288" type="curve"/>
      <point x="803" y="288"/>
      <point x="789" y="285"/>
      <point x="789" y="285" type="curve"/>
      <point x="789" y="285"/>
      <point x="775" y="285"/>
    </contour>
    <contour>
      <point x="485" y="231" type="curve"/>
      <point x="485" y="231"/>
      <point x="432" y="201"/>
      <point x="432" y="201" type="curve"/>
      <point x="506" y="74"/>
      <point x="676" y="-37"/>
      <point x="931" y="-77" type="curve"/>
      <point x="940" y="-59"/>
      <point x="957" y="-30"/>
      <point x="971" y="-15" type="curve"/>
      <point x="719" y="16"/>
      <point x="551" y="116"/>
    </contour>
    <contour>
      <point x="541" y="367" type="curve"/>
      <point x="497" y="287"/>
      <point x="403" y="199"/>
      <point x="263" y="141" type="curve"/>
      <point x="278" y="132"/>
      <point x="298" y="111"/>
      <point x="308" y="95" type="curve"/>
      <point x="455" y="163"/>
      <point x="552" y="256"/>
      <point x="610" y="354" type="curve"/>
      <point x="610" y="354"/>
      <point x="541" y="367"/>
    </contour>
  </outline>
</glyph>
<glyph name="cid10747" format="2">
  <advance height="1000" width="1000"/>
  <unicode hex="5112"/>
  <outline>
    <contour>
      <point x="331" y="806" type="curve"/>
      <point x="331" y="806"/>
      <point x="331" y="745"/>
      <point x="331" y="745" type="curve"/>
      <point x="331" y="745"/>
      <point x="904" y="745"/>
      <point x="904" y="745" type="curve"/>
      <point x="904" y="745"/>
      <point x="904" y="806"/>
      <point x="904" y="806" type="curve"/>
      <point x="904" y="806"/>
      <point x="331" y="806"/>
    </contour>
    <contour>
      <point x="280" y="372" type="curve"/>
      <point x="280" y="372"/>
      <point x="280" y="311"/>
      <point x="280" y="311" type="curve"/>
      <point x="280" y="311"/>
      <point x="955" y="311"/>
      <point x="955" y="311" type="curve"/>
      <point x="955" y="311"/>
      <point x="955" y="372"/>
      <point x="955" y="372" type="curve"/>
      <point x="955" y="372"/>
      <point x="280" y="372"/>
    </contour>
    <contour>
      <point x="368" y="575" type="curve"/>
      <point x="368" y="575"/>
      <point x="368" y="522"/>
      <point x="368" y="522" type="curve"/>
      <point x="368" y="522"/>
      <point x="541" y="522"/>
      <point x="541" y="522" type="curve"/>
      <point x="541" y="522"/>
      <point x="541" y="575"/>
      <point x="541" y="575" type="curve"/>
      <point x="541" y="575"/>
      <point x="368" y="575"/>
    </contour>
    <contour>
      <point x="680" y="575" type="curve"/>
      <point x="680" y="575"/>
      <point x="680" y="522"/>
      <point x="680" y="522" type="curve"/>
      <point x="680" y="522"/>
      <point x="861" y="522"/>
      <point x="861" y="522" type="curve"/>
      <point x="861" y="522"/>
      <point x="861" y="575"/>
      <point x="861" y="575" type="curve"/>
      <point x="861" y="575"/>
      <point x="680" y="575"/>
    </contour>
    <contour>
      <point x="680" y="478" type="curve"/>
      <point x="680" y="478"/>
      <point x="680" y="425"/>
      <point x="680" y="425" type="curve"/>
      <point x="680" y="425"/>
      <point x="876" y="425"/>
      <point x="876" y="425" type="curve"/>
      <point x="876" y="425"/>
      <point x="876" y="478"/>
      <point x="876" y="478" type="curve"/>
      <point x="876" y="478"/>
      <point x="680" y="478"/>
    </contour>
    <contour>
      <point x="348" y="478" type="curve"/>
      <point x="348" y="478"/>
      <point x="348" y="425"/>
      <point x="348" y="425" type="curve"/>
      <point x="348" y="425"/>
      <point x="542" y="425"/>
      <point x="542" y="425" type="curve"/>
      <point x="542" y="425"/>
      <point x="542" y="478"/>
      <point x="542" y="478" type="curve"/>
      <point x="542" y="478"/>
      <point x="348" y="478"/>
    </contour>
    <contour>
      <point x="577" y="783" type="curve"/>
      <point x="577" y="783"/>
      <point x="577" y="397"/>
      <point x="577" y="397" type="curve"/>
      <point x="577" y="397"/>
      <point x="646" y="397"/>
      <point x="646" y="397" type="curve"/>
      <point x="646" y="397"/>
      <point x="646" y="783"/>
      <point x="646" y="783" type="curve"/>
      <point x="646" y="783"/>
      <point x="577" y="783"/>
    </contour>
    <contour>
      <point x="499" y="225" type="curve"/>
      <point x="499" y="225"/>
      <point x="499" y="-68"/>
      <point x="499" y="-68" type="curve"/>
      <point x="499" y="-68"/>
      <point x="567" y="-68"/>
      <point x="567" y="-68" type="curve"/>
      <point x="567" y="-68"/>
      <point x="567" y="225"/>
      <point x="567" y="225" type="curve"/>
      <point x="567" y="225"/>
      <point x="499" y="225"/>
    </contour>
    <contour>
      <point x="669" y="225" type="curve"/>
      <point x="669" y="225"/>
      <point x="669" y="-68"/>
      <point x="669" y="-68" type="curve"/>
      <point x="669" y="-68"/>
      <point x="737" y="-68"/>
      <point x="737" y="-68" type="curve"/>
      <point x="737" y="-68"/>
      <point x="737" y="225"/>
      <point x="737" y="225" type="curve"/>
      <point x="737" y="225"/>
      <point x="669" y="225"/>
    </contour>
    <contour>
      <point x="294" y="682" type="curve"/>
      <point x="294" y="682"/>
      <point x="294" y="546"/>
      <point x="294" y="546" type="curve"/>
      <point x="294" y="546"/>
      <point x="352" y="546"/>
      <point x="352" y="546" type="curve"/>
      <point x="352" y="546"/>
      <point x="352" y="626"/>
      <point x="352" y="626" type="curve"/>
      <point x="352" y="626"/>
      <point x="878" y="626"/>
      <point x="878" y="626" type="curve"/>
      <point x="878" y="626"/>
      <point x="878" y="546"/>
      <point x="878" y="546" type="curve"/>
      <point x="878" y="546"/>
      <point x="938" y="546"/>
      <point x="938" y="546" type="curve"/>
      <point x="938" y="546"/>
      <point x="938" y="682"/>
      <point x="938" y="682" type="curve"/>
      <point x="938" y="682"/>
      <point x="294" y="682"/>
    </contour>
    <contour>
      <point x="846" y="246" type="curve"/>
      <point x="846" y="246"/>
      <point x="846" y="-7"/>
      <point x="846" y="-7" type="curve"/>
      <point x="846" y="-16"/>
      <point x="845" y="-19"/>
      <point x="835" y="-19" type="curve"/>
      <point x="826" y="-20"/>
      <point x="801" y="-19"/>
      <point x="769" y="-18" type="curve"/>
      <point x="778" y="-36"/>
      <point x="787" y="-61"/>
      <point x="789" y="-79" type="curve"/>
      <point x="835" y="-79"/>
      <point x="866" y="-78"/>
      <point x="887" y="-69" type="curve"/>
      <point x="908" y="-58"/>
      <point x="914" y="-40"/>
      <point x="914" y="-8" type="curve"/>
      <point x="914" y="-8"/>
      <point x="914" y="246"/>
      <point x="914" y="246" type="curve"/>
      <point x="914" y="246"/>
      <point x="846" y="246"/>
    </contour>
    <contour>
      <point x="329" y="246" type="curve"/>
      <point x="329" y="246"/>
      <point x="329" y="-79"/>
      <point x="329" y="-79" type="curve"/>
      <point x="329" y="-79"/>
      <point x="397" y="-79"/>
      <point x="397" y="-79" type="curve"/>
      <point x="397" y="-79"/>
      <point x="397" y="186"/>
      <point x="397" y="186" type="curve"/>
      <point x="397" y="186"/>
      <point x="870" y="186"/>
      <point x="870" y="186" type="curve"/>
      <point x="870" y="186"/>
      <point x="870" y="246"/>
      <point x="870" y="246" type="curve"/>
      <point x="870" y="246"/>
      <point x="329" y="246"/>
    </contour>
    <contour>
      <point x="575" y="358" type="curve"/>
      <point x="568" y="319"/>
      <point x="552" y="260"/>
      <point x="539" y="221" type="curve"/>
      <point x="539" y="221"/>
      <point x="599" y="203"/>
      <point x="599" y="203" type="curve"/>
      <point x="616" y="237"/>
      <point x="636" y="289"/>
      <point x="656" y="337" type="curve"/>
      <point x="656" y="337"/>
      <point x="575" y="358"/>
    </contour>
    <contour>
      <point x="247" y="836" type="curve"/>
      <point x="198" y="683"/>
      <point x="116" y="531"/>
      <point x="27" y="432" type="curve"/>
      <point x="40" y="415"/>
      <point x="61" y="378"/>
      <point x="69" y="362" type="curve"/>
      <point x="166" y="477"/>
      <point x="257" y="648"/>
      <point x="314" y="817" type="curve"/>
      <point x="314" y="817"/>
      <point x="247" y="836"/>
    </contour>
    <contour>
      <point x="149" y="564" type="curve"/>
      <point x="149" y="564"/>
      <point x="149" y="-79"/>
      <point x="149" y="-79" type="curve"/>
      <point x="149" y="-79"/>
      <point x="218" y="-79"/>
      <point x="218" y="-79" type="curve"/>
      <point x="218" y="-79"/>
      <point x="218" y="631"/>
      <point x="218" y="631" type="curve"/>
      <point x="218" y="631"/>
      <point x="217" y="632"/>
      <point x="217" y="632" type="curve"/>
      <point x="217" y="632"/>
      <point x="149" y="564"/>
    </contour>
  </outline>
</glyph>
<glyph name="cid10773" format="2">
  <advance height="1000" width="1000"/>
  <unicode hex="5121"/>
  <outline>
    <contour>
      <point x="277" y="369" type="curve"/>
      <point x="277" y="369"/>
      <point x="277" y="-70"/>
      <point x="277" y="-70" type="curve"/>
      <point x="277" y="-70"/>
      <point x="340" y="-70"/>
      <point x="340" y="-70" type="curve"/>
      <point x="340" y="-70"/>
      <point x="340" y="314"/>
      <point x="340" y="314" type="curve"/>
      <point x="340" y="314"/>
      <point x="521" y="314"/>
      <point x="521" y="314" type="curve"/>
      <point x="521" y="314"/>
      <point x="521" y="-61"/>
      <point x="521" y="-61" type="curve"/>
      <point x="521" y="-61"/>
      <point x="585" y="-61"/>
      <point x="585" y="-61" type="curve"/>
      <point x="585" y="-61"/>
      <point x="585" y="369"/>
      <point x="585" y="369" type="curve"/>
      <point x="585" y="369"/>
      <point x="277" y="369"/>
    </contour>
    <contour>
      <point x="630" y="369" type="curve"/>
      <point x="630" y="369"/>
      <point x="630" y="-70"/>
      <point x="630" y="-70" type="curve"/>
      <point x="630" y="-70"/>
      <point x="693" y="-70"/>
      <point x="693" y="-70" type="curve"/>
      <point x="693" y="-70"/>
      <point x="693" y="314"/>
      <point x="693" y="314" type="curve"/>
      <point x="693" y="314"/>
      <point x="877" y="314"/>
      <point x="877" y="314" type="curve"/>
      <point x="877" y="314"/>
      <point x="877" y="-61"/>
      <point x="877" y="-61" type="curve"/>
      <point x="877" y="-61"/>
      <point x="941" y="-61"/>
      <point x="941" y="-61" type="curve"/>
      <point x="941" y="-61"/>
      <point x="941" y="369"/>
      <point x="941" y="369" type="curve"/>
      <point x="941" y="369"/>
      <point x="630" y="369"/>
    </contour>
    <contour>
      <point x="429" y="586" type="curve"/>
      <point x="429" y="586"/>
      <point x="788" y="586"/>
      <point x="788" y="586" type="curve"/>
      <point x="788" y="586"/>
      <point x="788" y="491"/>
      <point x="788" y="491" type="curve"/>
      <point x="788" y="491"/>
      <point x="429" y="491"/>
      <point x="429" y="491" type="curve"/>
      <point x="429" y="491"/>
      <point x="429" y="586"/>
    </contour>
    <contour>
      <point x="429" y="733" type="curve"/>
      <point x="429" y="733"/>
      <point x="788" y="733"/>
      <point x="788" y="733" type="curve"/>
      <point x="788" y="733"/>
      <point x="788" y="639"/>
      <point x="788" y="639" type="curve"/>
      <point x="788" y="639"/>
      <point x="429" y="639"/>
      <point x="429" y="639" type="curve"/>
      <point x="429" y="639"/>
      <point x="429" y="733"/>
    </contour>
    <contour>
      <point x="359" y="789" type="curve"/>
      <point x="359" y="789"/>
      <point x="359" y="434"/>
      <point x="359" y="434" type="curve"/>
      <point x="359" y="434"/>
      <point x="861" y="434"/>
      <point x="861" y="434" type="curve"/>
      <point x="861" y="434"/>
      <point x="861" y="789"/>
      <point x="861" y="789" type="curve"/>
      <point x="861" y="789"/>
      <point x="359" y="789"/>
    </contour>
    <contour>
      <point x="573" y="767" type="curve"/>
      <point x="573" y="767"/>
      <point x="573" y="462"/>
      <point x="573" y="462" type="curve"/>
      <point x="573" y="462"/>
      <point x="642" y="462"/>
      <point x="642" y="462" type="curve"/>
      <point x="642" y="462"/>
      <point x="642" y="767"/>
      <point x="642" y="767" type="curve"/>
      <point x="642" y="767"/>
      <point x="573" y="767"/>
    </contour>
    <contour>
      <point x="399" y="346" type="curve"/>
      <point x="399" y="346"/>
      <point x="399" y="9"/>
      <point x="399" y="9" type="curve"/>
      <point x="399" y="9"/>
      <point x="458" y="9"/>
      <point x="458" y="9" type="curve"/>
      <point x="458" y="9"/>
      <point x="458" y="346"/>
      <point x="458" y="346" type="curve"/>
      <point x="458" y="346"/>
      <point x="399" y="346"/>
    </contour>
    <contour>
      <point x="754" y="346" type="curve"/>
      <point x="754" y="346"/>
      <point x="754" y="9"/>
      <point x="754" y="9" type="curve"/>
      <point x="754" y="9"/>
      <point x="813" y="9"/>
      <point x="813" y="9" type="curve"/>
      <point x="813" y="9"/>
      <point x="813" y="346"/>
      <point x="813" y="346" type="curve"/>
      <point x="813" y="346"/>
      <point x="754" y="346"/>
    </contour>
    <contour>
      <point x="306" y="202" type="curve"/>
      <point x="306" y="202"/>
      <point x="306" y="148"/>
      <point x="306" y="148" type="curve"/>
      <point x="306" y="148"/>
      <point x="544" y="148"/>
      <point x="544" y="148" type="curve"/>
      <point x="544" y="148"/>
      <point x="544" y="202"/>
      <point x="544" y="202" type="curve"/>
      <point x="544" y="202"/>
      <point x="306" y="202"/>
    </contour>
    <contour>
      <point x="659" y="202" type="curve"/>
      <point x="659" y="202"/>
      <point x="659" y="148"/>
      <point x="659" y="148" type="curve"/>
      <point x="659" y="148"/>
      <point x="900" y="148"/>
      <point x="900" y="148" type="curve"/>
      <point x="900" y="148"/>
      <point x="900" y="202"/>
      <point x="900" y="202" type="curve"/>
      <point x="900" y="202"/>
      <point x="659" y="202"/>
    </contour>
    <contour>
      <point x="306" y="33" type="curve"/>
      <point x="306" y="33"/>
      <point x="306" y="-22"/>
      <point x="306" y="-22" type="curve"/>
      <point x="306" y="-22"/>
      <point x="544" y="-22"/>
      <point x="544" y="-22" type="curve"/>
      <point x="544" y="-22"/>
      <point x="544" y="33"/>
      <point x="544" y="33" type="curve"/>
      <point x="544" y="33"/>
      <point x="306" y="33"/>
    </contour>
    <contour>
      <point x="659" y="33" type="curve"/>
      <point x="659" y="33"/>
      <point x="659" y="-22"/>
      <point x="659" y="-22" type="curve"/>
      <point x="659" y="-22"/>
      <point x="900" y="-22"/>
      <point x="900" y="-22" type="curve"/>
      <point x="900" y="-22"/>
      <point x="900" y="33"/>
      <point x="900" y="33" type="curve"/>
      <point x="900" y="33"/>
      <point x="659" y="33"/>
    </contour>
    <contour>
      <point x="233" y="835" type="curve"/>
      <point x="185" y="681"/>
      <point x="105" y="529"/>
      <point x="18" y="429" type="curve"/>
      <point x="31" y="410"/>
      <point x="51" y="369"/>
      <point x="58" y="352" type="curve"/>
      <point x="157" y="468"/>
      <point x="246" y="644"/>
      <point x="302" y="816" type="curve"/>
      <point x="302" y="816"/>
      <point x="233" y="835"/>
    </contour>
    <contour>
      <point x="152" y="590" type="curve"/>
      <point x="152" y="590"/>
      <point x="152" y="-80"/>
      <point x="152" y="-80" type="curve"/>
      <point x="152" y="-80"/>
      <point x="222" y="-80"/>
      <point x="222" y="-80" type="curve"/>
      <point x="222" y="-80"/>
      <point x="222" y="655"/>
      <point x="222" y="655" type="curve"/>
      <point x="222" y="655"/>
      <point x="220" y="657"/>
      <point x="220" y="657" type="curve"/>
      <point x="220" y="657"/>
      <point x="152" y="590"/>
    </contour>
  </outline>
</glyph>
<glyph name="cid10787" format="2">
  <advance height="1000" width="1000"/>
  <unicode hex="512A"/>
  <outline>
    <contour>
      <point x="321" y="795" type="curve"/>
      <point x="321" y="795"/>
      <point x="321" y="738"/>
      <point x="321" y="738" type="curve"/>
      <point x="321" y="738"/>
      <point x="942" y="738"/>
      <point x="942" y="738" type="curve"/>
      <point x="942" y="738"/>
      <point x="942" y="795"/>
      <point x="942" y="795" type="curve"/>
      <point x="942" y="795"/>
      <point x="321" y="795"/>
    </contour>
    <contour>
      <point x="431" y="603" type="curve"/>
      <point x="431" y="603"/>
      <point x="431" y="557"/>
      <point x="431" y="557" type="curve"/>
      <point x="431" y="557"/>
      <point x="829" y="557"/>
      <point x="829" y="557" type="curve"/>
      <point x="829" y="557"/>
      <point x="829" y="603"/>
      <point x="829" y="603" type="curve"/>
      <point x="829" y="603"/>
      <point x="431" y="603"/>
    </contour>
    <contour>
      <point x="431" y="518" type="curve"/>
      <point x="431" y="518"/>
      <point x="431" y="471"/>
      <point x="431" y="471" type="curve"/>
      <point x="431" y="471"/>
      <point x="829" y="471"/>
      <point x="829" y="471" type="curve"/>
      <point x="829" y="471"/>
      <point x="829" y="518"/>
      <point x="829" y="518" type="curve"/>
      <point x="829" y="518"/>
      <point x="431" y="518"/>
    </contour>
    <contour>
      <point x="392" y="689" type="curve"/>
      <point x="392" y="689"/>
      <point x="392" y="408"/>
      <point x="392" y="408" type="curve"/>
      <point x="392" y="408"/>
      <point x="460" y="408"/>
      <point x="460" y="408" type="curve"/>
      <point x="460" y="408"/>
      <point x="460" y="642"/>
      <point x="460" y="642" type="curve"/>
      <point x="460" y="642"/>
      <point x="795" y="642"/>
      <point x="795" y="642" type="curve"/>
      <point x="795" y="642"/>
      <point x="795" y="408"/>
      <point x="795" y="408" type="curve"/>
      <point x="795" y="408"/>
      <point x="866" y="408"/>
      <point x="866" y="408" type="curve"/>
      <point x="866" y="408"/>
      <point x="866" y="689"/>
      <point x="866" y="689" type="curve"/>
      <point x="866" y="689"/>
      <point x="392" y="689"/>
    </contour>
    <contour>
      <point x="293" y="433" type="curve"/>
      <point x="293" y="433"/>
      <point x="293" y="298"/>
      <point x="293" y="298" type="curve"/>
      <point x="293" y="298"/>
      <point x="358" y="298"/>
      <point x="358" y="298" type="curve"/>
      <point x="358" y="298"/>
      <point x="358" y="385"/>
      <point x="358" y="385" type="curve"/>
      <point x="358" y="385"/>
      <point x="891" y="385"/>
      <point x="891" y="385" type="curve"/>
      <point x="891" y="385"/>
      <point x="891" y="298"/>
      <point x="891" y="298" type="curve"/>
      <point x="891" y="298"/>
      <point x="960" y="298"/>
      <point x="960" y="298" type="curve"/>
      <point x="960" y="298"/>
      <point x="960" y="433"/>
      <point x="960" y="433" type="curve"/>
      <point x="960" y="433"/>
      <point x="293" y="433"/>
    </contour>
    <contour>
      <point x="422" y="355" type="curve"/>
      <point x="398" y="319"/>
      <point x="359" y="276"/>
      <point x="316" y="253" type="curve"/>
      <point x="316" y="253"/>
      <point x="362" y="214"/>
      <point x="362" y="214" type="curve"/>
      <point x="408" y="243"/>
      <point x="446" y="289"/>
      <point x="472" y="327" type="curve"/>
      <point x="472" y="327"/>
      <point x="422" y="355"/>
    </contour>
    <contour>
      <point x="481" y="358" type="curve"/>
      <point x="481" y="358"/>
      <point x="481" y="295"/>
      <point x="481" y="295" type="curve"/>
      <point x="481" y="240"/>
      <point x="501" y="227"/>
      <point x="577" y="227" type="curve" smooth="yes"/>
      <point x="593" y="227"/>
      <point x="700" y="227"/>
      <point x="716" y="227" type="curve" smooth="yes"/>
      <point x="768" y="227"/>
      <point x="784" y="242"/>
      <point x="790" y="300" type="curve"/>
      <point x="774" y="303"/>
      <point x="751" y="310"/>
      <point x="739" y="317" type="curve"/>
      <point x="736" y="278"/>
      <point x="731" y="273"/>
      <point x="707" y="273" type="curve" smooth="yes"/>
      <point x="685" y="273"/>
      <point x="599" y="273"/>
      <point x="584" y="273" type="curve" smooth="yes"/>
      <point x="550" y="273"/>
      <point x="544" y="277"/>
      <point x="544" y="295" type="curve"/>
      <point x="544" y="295"/>
      <point x="544" y="358"/>
      <point x="544" y="358" type="curve"/>
      <point x="544" y="358"/>
      <point x="481" y="358"/>
    </contour>
    <contour>
      <point x="554" y="379" type="curve"/>
      <point x="592" y="358"/>
      <point x="635" y="324"/>
      <point x="657" y="299" type="curve"/>
      <point x="657" y="299"/>
      <point x="702" y="332"/>
      <point x="702" y="332" type="curve"/>
      <point x="680" y="358"/>
      <point x="635" y="389"/>
      <point x="597" y="409" type="curve"/>
      <point x="597" y="409"/>
      <point x="554" y="379"/>
    </contour>
    <contour>
      <point x="773" y="331" type="curve"/>
      <point x="816" y="297"/>
      <point x="865" y="247"/>
      <point x="887" y="213" type="curve"/>
      <point x="887" y="213"/>
      <point x="937" y="243"/>
      <point x="937" y="243" type="curve"/>
      <point x="914" y="278"/>
      <point x="864" y="326"/>
      <point x="821" y="359" type="curve"/>
      <point x="821" y="359"/>
      <point x="773" y="331"/>
    </contour>
    <contour>
      <point x="533" y="248" type="curve"/>
      <point x="484" y="194"/>
      <point x="395" y="137"/>
      <point x="278" y="96" type="curve"/>
      <point x="292" y="86"/>
      <point x="312" y="64"/>
      <point x="322" y="49" type="curve"/>
      <point x="447" y="100"/>
      <point x="539" y="163"/>
      <point x="604" y="233" type="curve"/>
      <point x="604" y="233"/>
      <point x="533" y="248"/>
    </contour>
    <contour>
      <point x="792" y="184" type="curve"/>
      <point x="792" y="184"/>
      <point x="792" y="172"/>
      <point x="792" y="172" type="curve"/>
      <point x="725" y="77"/>
      <point x="540" y="3"/>
      <point x="273" y="-26" type="curve"/>
      <point x="287" y="-41"/>
      <point x="303" y="-66"/>
      <point x="310" y="-82" type="curve"/>
      <point x="590" y="-45"/>
      <point x="783" y="36"/>
      <point x="868" y="161" type="curve"/>
      <point x="868" y="161"/>
      <point x="820" y="187"/>
      <point x="820" y="187" type="curve"/>
      <point x="820" y="187"/>
      <point x="807" y="184"/>
      <point x="807" y="184" type="curve"/>
      <point x="807" y="184"/>
      <point x="792" y="184"/>
    </contour>
    <contour>
      <point x="477" y="157" type="curve"/>
      <point x="477" y="157"/>
      <point x="415" y="134"/>
      <point x="415" y="134" type="curve"/>
      <point x="517" y="10"/>
      <point x="710" y="-59"/>
      <point x="929" y="-84" type="curve"/>
      <point x="938" y="-65"/>
      <point x="957" y="-37"/>
      <point x="972" y="-21" type="curve"/>
      <point x="759" y="-3"/>
      <point x="566" y="55"/>
    </contour>
    <contour>
      <point x="495" y="184" type="curve"/>
      <point x="495" y="184"/>
      <point x="446" y="136"/>
      <point x="446" y="136" type="curve"/>
      <point x="446" y="136"/>
      <point x="813" y="136"/>
      <point x="813" y="136" type="curve"/>
      <point x="813" y="136"/>
      <point x="813" y="184"/>
      <point x="813" y="184" type="curve"/>
      <point x="813" y="184"/>
      <point x="495" y="184"/>
    </contour>
    <contour>
      <point x="584" y="769" type="curve"/>
      <point x="580" y="740"/>
      <point x="570" y="699"/>
      <point x="561" y="667" type="curve"/>
      <point x="561" y="667"/>
      <point x="626" y="656"/>
      <point x="626" y="656" type="curve"/>
      <point x="638" y="683"/>
      <point x="652" y="722"/>
      <point x="667" y="760" type="curve"/>
      <point x="667" y="760"/>
      <point x="584" y="769"/>
    </contour>
    <contour>
      <point x="233" y="835" type="curve"/>
      <point x="185" y="680"/>
      <point x="105" y="526"/>
      <point x="18" y="426" type="curve"/>
      <point x="31" y="407"/>
      <point x="50" y="368"/>
      <point x="57" y="350" type="curve"/>
      <point x="156" y="467"/>
      <point x="246" y="642"/>
      <point x="302" y="816" type="curve"/>
      <point x="302" y="816"/>
      <point x="233" y="835"/>
    </contour>
    <contour>
      <point x="152" y="590" type="curve"/>
      <point x="152" y="590"/>
      <point x="152" y="-80"/>
      <point x="152" y="-80" type="curve"/>
      <point x="152" y="-80"/>
      <point x="224" y="-80"/>
      <point x="224" y="-80" type="curve"/>
      <point x="224" y="-80"/>
      <point x="224" y="657"/>
      <point x="224" y="657" type="curve"/>
      <point x="224" y="657"/>
      <point x="222" y="659"/>
      <point x="222" y="659" type="curve"/>
      <point x="222" y="659"/>
      <point x="152" y="590"/>
    </contour>
  </outline>
</glyph>
<glyph name="cid10818" format="2">
  <advance height="1000" width="1000"/>
  <unicode hex="5137"/>
  <outline>
    <contour>
      <point x="334" y="496" type="curve"/>
      <point x="334" y="496"/>
      <point x="334" y="439"/>
      <point x="334" y="439" type="curve"/>
      <point x="334" y="439"/>
      <point x="951" y="439"/>
      <point x="951" y="439" type="curve"/>
      <point x="951" y="439"/>
      <point x="951" y="496"/>
      <point x="951" y="496" type="curve"/>
      <point x="951" y="496"/>
      <point x="334" y="496"/>
    </contour>
    <contour>
      <point x="455" y="149" type="curve"/>
      <point x="455" y="149"/>
      <point x="455" y="98"/>
      <point x="455" y="98" type="curve"/>
      <point x="455" y="98"/>
      <point x="638" y="98"/>
      <point x="638" y="98" type="curve"/>
      <point x="638" y="98"/>
      <point x="638" y="149"/>
      <point x="638" y="149" type="curve"/>
      <point x="638" y="149"/>
      <point x="455" y="149"/>
    </contour>
    <contour>
      <point x="280" y="808" type="curve"/>
      <point x="280" y="808"/>
      <point x="280" y="753"/>
      <point x="280" y="753" type="curve"/>
      <point x="280" y="753"/>
      <point x="593" y="753"/>
      <point x="593" y="753" type="curve"/>
      <point x="593" y="753"/>
      <point x="593" y="808"/>
      <point x="593" y="808" type="curve"/>
      <point x="593" y="808"/>
      <point x="280" y="808"/>
    </contour>
    <contour>
      <point x="483" y="450" type="curve"/>
      <point x="483" y="450"/>
      <point x="483" y="238"/>
      <point x="483" y="238" type="curve"/>
      <point x="483" y="238"/>
      <point x="545" y="238"/>
      <point x="545" y="238" type="curve"/>
      <point x="545" y="238"/>
      <point x="545" y="450"/>
      <point x="545" y="450" type="curve"/>
      <point x="545" y="450"/>
      <point x="483" y="450"/>
    </contour>
    <contour>
      <point x="665" y="450" type="curve"/>
      <point x="665" y="450"/>
      <point x="665" y="238"/>
      <point x="665" y="238" type="curve"/>
      <point x="665" y="238"/>
      <point x="727" y="238"/>
      <point x="727" y="238" type="curve"/>
      <point x="727" y="238"/>
      <point x="727" y="450"/>
      <point x="727" y="450" type="curve"/>
      <point x="727" y="450"/>
      <point x="665" y="450"/>
    </contour>
    <contour>
      <point x="893" y="178" type="curve"/>
      <point x="842" y="154"/>
      <point x="754" y="119"/>
      <point x="693" y="101" type="curve"/>
      <point x="693" y="101"/>
      <point x="728" y="60"/>
      <point x="728" y="60" type="curve"/>
      <point x="790" y="78"/>
      <point x="873" y="104"/>
      <point x="933" y="136" type="curve"/>
      <point x="933" y="136"/>
      <point x="893" y="178"/>
    </contour>
    <contour>
      <point x="337" y="380" type="curve"/>
      <point x="337" y="380"/>
      <point x="337" y="329"/>
      <point x="337" y="329" type="curve"/>
      <point x="337" y="329"/>
      <point x="849" y="329"/>
      <point x="849" y="329" type="curve"/>
      <point x="849" y="329"/>
      <point x="849" y="262"/>
      <point x="849" y="262" type="curve"/>
      <point x="849" y="262"/>
      <point x="337" y="262"/>
      <point x="337" y="262" type="curve"/>
      <point x="337" y="262"/>
      <point x="337" y="210"/>
      <point x="337" y="210" type="curve"/>
      <point x="337" y="210"/>
      <point x="917" y="210"/>
      <point x="917" y="210" type="curve"/>
      <point x="917" y="210"/>
      <point x="917" y="380"/>
      <point x="917" y="380" type="curve"/>
      <point x="917" y="380"/>
      <point x="337" y="380"/>
    </contour>
    <contour>
      <point x="675" y="221" type="curve"/>
      <point x="675" y="221"/>
      <point x="675" y="6"/>
      <point x="675" y="6" type="curve"/>
      <point x="675" y="-58"/>
      <point x="692" y="-74"/>
      <point x="767" y="-74" type="curve" smooth="yes"/>
      <point x="782" y="-74"/>
      <point x="866" y="-74"/>
      <point x="882" y="-74" type="curve" smooth="yes"/>
      <point x="940" y="-74"/>
      <point x="958" y="-49"/>
      <point x="964" y="47" type="curve"/>
      <point x="946" y="51"/>
      <point x="920" y="59"/>
      <point x="907" y="69" type="curve"/>
      <point x="904" y="-8"/>
      <point x="900" y="-21"/>
      <point x="874" y="-21" type="curve" smooth="yes"/>
      <point x="856" y="-21"/>
      <point x="789" y="-21"/>
      <point x="775" y="-21" type="curve" smooth="yes"/>
      <point x="746" y="-21"/>
      <point x="741" y="-17"/>
      <point x="741" y="6" type="curve"/>
      <point x="741" y="6"/>
      <point x="741" y="221"/>
      <point x="741" y="221" type="curve"/>
      <point x="741" y="221"/>
      <point x="675" y="221"/>
    </contour>
    <contour>
      <point x="301" y="496" type="curve"/>
      <point x="301" y="496"/>
      <point x="301" y="307"/>
      <point x="301" y="307" type="curve"/>
      <point x="301" y="202"/>
      <point x="292" y="59"/>
      <point x="219" y="-45" type="curve"/>
      <point x="235" y="-52"/>
      <point x="265" y="-69"/>
      <point x="277" y="-80" type="curve"/>
      <point x="354" y="29"/>
      <point x="368" y="191"/>
      <point x="368" y="306" type="curve"/>
      <point x="368" y="306"/>
      <point x="368" y="496"/>
      <point x="368" y="496" type="curve"/>
      <point x="368" y="496"/>
      <point x="301" y="496"/>
    </contour>
    <contour>
      <point x="305" y="712" type="curve"/>
      <point x="305" y="712"/>
      <point x="305" y="526"/>
      <point x="305" y="526" type="curve"/>
      <point x="305" y="526"/>
      <point x="361" y="526"/>
      <point x="361" y="526" type="curve"/>
      <point x="361" y="526"/>
      <point x="361" y="663"/>
      <point x="361" y="663" type="curve"/>
      <point x="361" y="663"/>
      <point x="517" y="663"/>
      <point x="517" y="663" type="curve"/>
      <point x="517" y="663"/>
      <point x="517" y="528"/>
      <point x="517" y="528" type="curve"/>
      <point x="517" y="528"/>
      <point x="575" y="528"/>
      <point x="575" y="528" type="curve"/>
      <point x="575" y="528"/>
      <point x="575" y="712"/>
      <point x="575" y="712" type="curve"/>
      <point x="575" y="712"/>
      <point x="305" y="712"/>
    </contour>
    <contour>
      <point x="632" y="808" type="curve"/>
      <point x="632" y="808"/>
      <point x="632" y="753"/>
      <point x="632" y="753" type="curve"/>
      <point x="632" y="753"/>
      <point x="951" y="753"/>
      <point x="951" y="753" type="curve"/>
      <point x="951" y="753"/>
      <point x="951" y="808"/>
      <point x="951" y="808" type="curve"/>
      <point x="951" y="808"/>
      <point x="632" y="808"/>
    </contour>
    <contour>
      <point x="654" y="712" type="curve"/>
      <point x="654" y="712"/>
      <point x="654" y="526"/>
      <point x="654" y="526" type="curve"/>
      <point x="654" y="526"/>
      <point x="711" y="526"/>
      <point x="711" y="526" type="curve"/>
      <point x="711" y="526"/>
      <point x="711" y="663"/>
      <point x="711" y="663" type="curve"/>
      <point x="711" y="663"/>
      <point x="870" y="663"/>
      <point x="870" y="663" type="curve"/>
      <point x="870" y="663"/>
      <point x="870" y="526"/>
      <point x="870" y="526" type="curve"/>
      <point x="870" y="526"/>
      <point x="930" y="526"/>
      <point x="930" y="526" type="curve"/>
      <point x="930" y="526"/>
      <point x="930" y="712"/>
      <point x="930" y="712" type="curve"/>
      <point x="930" y="712"/>
      <point x="654" y="712"/>
    </contour>
    <contour>
      <point x="420" y="237" type="curve"/>
      <point x="420" y="237"/>
      <point x="420" y="36"/>
      <point x="420" y="36" type="curve"/>
      <point x="420" y="-1"/>
      <point x="403" y="-14"/>
      <point x="388" y="-19" type="curve"/>
      <point x="388" y="-19"/>
      <point x="414" y="-84"/>
      <point x="414" y="-84" type="curve"/>
      <point x="414" y="-84"/>
      <point x="484" y="-34"/>
      <point x="484" y="-34" type="curve"/>
      <point x="484" y="-34"/>
      <point x="484" y="237"/>
      <point x="484" y="237" type="curve"/>
      <point x="484" y="237"/>
      <point x="420" y="237"/>
    </contour>
    <contour>
      <point x="414" y="-84" type="curve"/>
      <point x="431" y="-78"/>
      <point x="458" y="-72"/>
      <point x="644" y="-30" type="curve"/>
      <point x="644" y="-30"/>
      <point x="640" y="24"/>
      <point x="640" y="24" type="curve"/>
      <point x="640" y="24"/>
      <point x="442" y="-16"/>
      <point x="442" y="-16" type="curve"/>
      <point x="442" y="-16"/>
      <point x="412" y="-38"/>
      <point x="412" y="-38" type="curve"/>
      <point x="412" y="-38"/>
      <point x="414" y="-84"/>
    </contour>
    <contour>
      <point x="563" y="554" type="curve"/>
      <point x="576" y="522"/>
      <point x="593" y="480"/>
      <point x="600" y="453" type="curve"/>
      <point x="600" y="453"/>
      <point x="665" y="476"/>
      <point x="665" y="476" type="curve"/>
      <point x="657" y="502"/>
      <point x="640" y="542"/>
      <point x="624" y="573" type="curve"/>
      <point x="624" y="573"/>
      <point x="563" y="554"/>
    </contour>
    <contour>
      <point x="393" y="626" type="curve"/>
      <point x="407" y="599"/>
      <point x="422" y="561"/>
      <point x="428" y="537" type="curve"/>
      <point x="428" y="537"/>
      <point x="483" y="558"/>
      <point x="483" y="558" type="curve"/>
      <point x="476" y="580"/>
      <point x="461" y="617"/>
      <point x="446" y="644" type="curve"/>
      <point x="446" y="644"/>
      <point x="393" y="626"/>
    </contour>
    <contour>
      <point x="743" y="627" type="curve"/>
      <point x="759" y="599"/>
      <point x="775" y="561"/>
      <point x="783" y="536" type="curve"/>
      <point x="783" y="536"/>
      <point x="838" y="557"/>
      <point x="838" y="557" type="curve"/>
      <point x="830" y="580"/>
      <point x="812" y="617"/>
      <point x="795" y="645" type="curve"/>
      <point x="795" y="645"/>
      <point x="743" y="627"/>
    </contour>
    <contour>
      <point x="223" y="839" type="curve"/>
      <point x="184" y="692"/>
      <point x="119" y="548"/>
      <point x="42" y="453" type="curve"/>
      <point x="54" y="435"/>
      <point x="71" y="393"/>
      <point x="77" y="376" type="curve"/>
      <point x="163" y="488"/>
      <point x="238" y="654"/>
      <point x="286" y="819" type="curve"/>
      <point x="286" y="819"/>
      <point x="223" y="839"/>
    </contour>
    <contour>
      <point x="154" y="582" type="curve"/>
      <point x="154" y="582"/>
      <point x="154" y="-78"/>
      <point x="154" y="-78" type="curve"/>
      <point x="154" y="-78"/>
      <point x="216" y="-78"/>
      <point x="216" y="-78" type="curve"/>
      <point x="216" y="-78"/>
      <point x="216" y="646"/>
      <point x="216" y="646" type="curve"/>
      <point x="216" y="646"/>
      <point x="216" y="648"/>
      <point x="216" y="648" type="curve"/>
      <point x="216" y="648"/>
      <point x="154" y="582"/>
    </contour>
  </outline>
</glyph>
<glyph name="cid10826" format="2">
  <advance height="1000" width="1000"/>
  <unicode hex="513C"/>
  <outline>
    <contour>
      <point x="395" y="744" type="curve"/>
      <point x="395" y="744"/>
      <point x="534" y="744"/>
      <point x="534" y="744" type="curve"/>
      <point x="534" y="744"/>
      <point x="534" y="668"/>
      <point x="534" y="668" type="curve"/>
      <point x="534" y="668"/>
      <point x="395" y="668"/>
      <point x="395" y="668" type="curve"/>
      <point x="395" y="668"/>
      <point x="395" y="744"/>
    </contour>
    <contour>
      <point x="331" y="796" type="curve"/>
      <point x="331" y="796"/>
      <point x="331" y="616"/>
      <point x="331" y="616" type="curve"/>
      <point x="331" y="616"/>
      <point x="598" y="616"/>
      <point x="598" y="616" type="curve"/>
      <point x="598" y="616"/>
      <point x="598" y="796"/>
      <point x="598" y="796" type="curve"/>
      <point x="598" y="796"/>
      <point x="331" y="796"/>
    </contour>
    <contour>
      <point x="718" y="744" type="curve"/>
      <point x="718" y="744"/>
      <point x="860" y="744"/>
      <point x="860" y="744" type="curve"/>
      <point x="860" y="744"/>
      <point x="860" y="668"/>
      <point x="860" y="668" type="curve"/>
      <point x="860" y="668"/>
      <point x="718" y="668"/>
      <point x="718" y="668" type="curve"/>
      <point x="718" y="668"/>
      <point x="718" y="744"/>
    </contour>
    <contour>
      <point x="654" y="796" type="curve"/>
      <point x="654" y="796"/>
      <point x="654" y="616"/>
      <point x="654" y="616" type="curve"/>
      <point x="654" y="616"/>
      <point x="924" y="616"/>
      <point x="924" y="616" type="curve"/>
      <point x="924" y="616"/>
      <point x="924" y="796"/>
      <point x="924" y="796" type="curve"/>
      <point x="924" y="796"/>
      <point x="654" y="796"/>
    </contour>
    <contour>
      <point x="332" y="572" type="curve"/>
      <point x="332" y="572"/>
      <point x="332" y="520"/>
      <point x="332" y="520" type="curve"/>
      <point x="332" y="520"/>
      <point x="963" y="520"/>
      <point x="963" y="520" type="curve"/>
      <point x="963" y="520"/>
      <point x="963" y="572"/>
      <point x="963" y="572" type="curve"/>
      <point x="963" y="572"/>
      <point x="332" y="572"/>
    </contour>
    <contour>
      <point x="300" y="572" type="curve"/>
      <point x="300" y="572"/>
      <point x="300" y="381"/>
      <point x="300" y="381" type="curve"/>
      <point x="300" y="261"/>
      <point x="293" y="93"/>
      <point x="230" y="-31" type="curve"/>
      <point x="245" y="-38"/>
      <point x="273" y="-59"/>
      <point x="285" y="-71" type="curve"/>
      <point x="354" y="63"/>
      <point x="365" y="252"/>
      <point x="365" y="381" type="curve"/>
      <point x="365" y="381"/>
      <point x="365" y="572"/>
      <point x="365" y="572" type="curve"/>
      <point x="365" y="572"/>
      <point x="300" y="572"/>
    </contour>
    <contour>
      <point x="394" y="478" type="curve"/>
      <point x="394" y="478"/>
      <point x="394" y="425"/>
      <point x="394" y="425" type="curve"/>
      <point x="394" y="425"/>
      <point x="673" y="425"/>
      <point x="673" y="425" type="curve"/>
      <point x="673" y="425"/>
      <point x="673" y="478"/>
      <point x="673" y="478" type="curve"/>
      <point x="673" y="478"/>
      <point x="394" y="478"/>
    </contour>
    <contour>
      <point x="433" y="261" type="curve"/>
      <point x="433" y="261"/>
      <point x="433" y="210"/>
      <point x="433" y="210" type="curve"/>
      <point x="433" y="210"/>
      <point x="616" y="210"/>
      <point x="616" y="210" type="curve"/>
      <point x="616" y="210"/>
      <point x="616" y="261"/>
      <point x="616" y="261" type="curve"/>
      <point x="616" y="261"/>
      <point x="433" y="261"/>
    </contour>
    <contour>
      <point x="433" y="158" type="curve"/>
      <point x="433" y="158"/>
      <point x="433" y="107"/>
      <point x="433" y="107" type="curve"/>
      <point x="433" y="107"/>
      <point x="616" y="107"/>
      <point x="616" y="107" type="curve"/>
      <point x="616" y="107"/>
      <point x="616" y="158"/>
      <point x="616" y="158" type="curve"/>
      <point x="616" y="158"/>
      <point x="433" y="158"/>
    </contour>
    <contour>
      <point x="355" y="367" type="curve"/>
      <point x="355" y="367"/>
      <point x="355" y="315"/>
      <point x="355" y="315" type="curve"/>
      <point x="355" y="315"/>
      <point x="687" y="315"/>
      <point x="687" y="315" type="curve"/>
      <point x="687" y="315"/>
      <point x="687" y="367"/>
      <point x="687" y="367" type="curve"/>
      <point x="687" y="367"/>
      <point x="355" y="367"/>
    </contour>
    <contour>
      <point x="407" y="348" type="curve"/>
      <point x="407" y="348"/>
      <point x="407" y="16"/>
      <point x="407" y="16" type="curve"/>
      <point x="407" y="16"/>
      <point x="469" y="26"/>
      <point x="469" y="26" type="curve"/>
      <point x="469" y="26"/>
      <point x="469" y="348"/>
      <point x="469" y="348" type="curve"/>
      <point x="469" y="348"/>
      <point x="407" y="348"/>
    </contour>
    <contour>
      <point x="583" y="346" type="curve"/>
      <point x="583" y="346"/>
      <point x="583" y="-80"/>
      <point x="583" y="-80" type="curve"/>
      <point x="583" y="-80"/>
      <point x="645" y="-80"/>
      <point x="645" y="-80" type="curve"/>
      <point x="645" y="-80"/>
      <point x="645" y="346"/>
      <point x="645" y="346" type="curve"/>
      <point x="645" y="346"/>
      <point x="583" y="346"/>
    </contour>
    <contour>
      <point x="353" y="34" type="curve"/>
      <point x="353" y="34"/>
      <point x="366" y="-23"/>
      <point x="366" y="-23" type="curve"/>
      <point x="441" y="-15"/>
      <point x="531" y="-5"/>
      <point x="622" y="6" type="curve"/>
      <point x="622" y="6"/>
      <point x="622" y="55"/>
      <point x="622" y="55" type="curve"/>
      <point x="522" y="46"/>
      <point x="425" y="38"/>
    </contour>
    <contour>
      <point x="498" y="454" type="curve"/>
      <point x="498" y="454"/>
      <point x="498" y="336"/>
      <point x="498" y="336" type="curve"/>
      <point x="498" y="336"/>
      <point x="560" y="336"/>
      <point x="560" y="336" type="curve"/>
      <point x="560" y="336"/>
      <point x="560" y="454"/>
      <point x="560" y="454" type="curve"/>
      <point x="560" y="454"/>
      <point x="498" y="454"/>
    </contour>
    <contour>
      <point x="744" y="514" type="curve"/>
      <point x="728" y="407"/>
      <point x="699" y="301"/>
      <point x="657" y="228" type="curve"/>
      <point x="670" y="217"/>
      <point x="690" y="191"/>
      <point x="698" y="180" type="curve"/>
      <point x="747" y="261"/>
      <point x="782" y="384"/>
      <point x="802" y="503" type="curve"/>
      <point x="802" y="503"/>
      <point x="744" y="514"/>
    </contour>
    <contour>
      <point x="872" y="380" type="curve"/>
      <point x="848" y="185"/>
      <point x="783" y="45"/>
      <point x="651" y="-40" type="curve"/>
      <point x="664" y="-50"/>
      <point x="686" y="-72"/>
      <point x="694" y="-83" type="curve"/>
      <point x="830" y="13"/>
      <point x="902" y="160"/>
      <point x="931" y="374" type="curve"/>
      <point x="931" y="374"/>
      <point x="872" y="380"/>
    </contour>
    <contour>
      <point x="748" y="403" type="curve"/>
      <point x="748" y="403"/>
      <point x="726" y="351"/>
      <point x="726" y="351" type="curve"/>
      <point x="726" y="351"/>
      <point x="958" y="351"/>
      <point x="958" y="351" type="curve"/>
      <point x="958" y="351"/>
      <point x="958" y="403"/>
      <point x="958" y="403" type="curve"/>
      <point x="958" y="403"/>
      <point x="748" y="403"/>
    </contour>
    <contour>
      <point x="755" y="359" type="curve"/>
      <point x="755" y="359"/>
      <point x="711" y="324"/>
      <point x="711" y="324" type="curve"/>
      <point x="735" y="194"/>
      <point x="796" y="10"/>
      <point x="934" y="-82" type="curve"/>
      <point x="943" y="-66"/>
      <point x="962" y="-42"/>
      <point x="975" y="-30" type="curve"/>
      <point x="836" y="51"/>
      <point x="777" y="226"/>
    </contour>
    <contour>
      <point x="217" y="835" type="curve"/>
      <point x="174" y="688"/>
      <point x="103" y="543"/>
      <point x="21" y="448" type="curve"/>
      <point x="33" y="430"/>
      <point x="51" y="389"/>
      <point x="58" y="372" type="curve"/>
      <point x="151" y="483"/>
      <point x="233" y="650"/>
      <point x="285" y="816" type="curve"/>
      <point x="285" y="816"/>
      <point x="217" y="835"/>
    </contour>
    <contour>
      <point x="147" y="582" type="curve"/>
      <point x="147" y="582"/>
      <point x="147" y="-78"/>
      <point x="147" y="-78" type="curve"/>
      <point x="147" y="-78"/>
      <point x="214" y="-78"/>
      <point x="214" y="-78" type="curve"/>
      <point x="214" y="-78"/>
      <point x="214" y="646"/>
      <point x="214" y="646" type="curve"/>
      <point x="214" y="646"/>
      <point x="213" y="648"/>
      <point x="213" y="648" type="curve"/>
      <point x="213" y="648"/>
      <point x="147" y="582"/>
    </contour>
  </outline>
</glyph>
<glyph name="cid12604" format="2">
  <advance height="1000" width="1000"/>
  <unicode hex="5169"/>
  <outline>
    <contour>
      <point x="245" y="435" type="curve"/>
      <point x="245" y="435"/>
      <point x="245" y="382"/>
      <point x="245" y="382" type="curve"/>
      <point x="245" y="382"/>
      <point x="337" y="382"/>
      <point x="337" y="382" type="curve"/>
      <point x="337" y="382"/>
      <point x="337" y="435"/>
      <point x="337" y="435" type="curve"/>
      <point x="337" y="435"/>
      <point x="245" y="435"/>
    </contour>
    <contour>
      <point x="459" y="746" type="curve"/>
      <point x="459" y="746"/>
      <point x="459" y="-75"/>
      <point x="459" y="-75" type="curve"/>
      <point x="459" y="-75"/>
      <point x="531" y="-75"/>
      <point x="531" y="-75" type="curve"/>
      <point x="531" y="-75"/>
      <point x="531" y="746"/>
      <point x="531" y="746" type="curve"/>
      <point x="531" y="746"/>
      <point x="459" y="746"/>
    </contour>
    <contour>
      <point x="105" y="581" type="curve"/>
      <point x="105" y="581"/>
      <point x="105" y="-78"/>
      <point x="105" y="-78" type="curve"/>
      <point x="105" y="-78"/>
      <point x="177" y="-78"/>
      <point x="177" y="-78" type="curve"/>
      <point x="177" y="-78"/>
      <point x="177" y="510"/>
      <point x="177" y="510" type="curve"/>
      <point x="177" y="510"/>
      <point x="865" y="510"/>
      <point x="865" y="510" type="curve"/>
      <point x="865" y="510"/>
      <point x="865" y="581"/>
      <point x="865" y="581" type="curve"/>
      <point x="865" y="581"/>
      <point x="105" y="581"/>
    </contour>
    <contour>
      <point x="828" y="581" type="curve"/>
      <point x="828" y="581"/>
      <point x="828" y="9"/>
      <point x="828" y="9" type="curve"/>
      <point x="828" y="-6"/>
      <point x="824" y="-11"/>
      <point x="808" y="-11" type="curve"/>
      <point x="792" y="-12"/>
      <point x="739" y="-12"/>
      <point x="685" y="-10" type="curve"/>
      <point x="695" y="-29"/>
      <point x="707" y="-58"/>
      <point x="711" y="-78" type="curve"/>
      <point x="782" y="-78"/>
      <point x="832" y="-76"/>
      <point x="862" y="-65" type="curve" smooth="yes"/>
      <point x="891" y="-54"/>
      <point x="901" y="-33"/>
      <point x="901" y="8" type="curve"/>
      <point x="901" y="8"/>
      <point x="901" y="581"/>
      <point x="901" y="581" type="curve"/>
      <point x="901" y="581"/>
      <point x="828" y="581"/>
    </contour>
    <contour>
      <point x="311" y="435" type="curve"/>
      <point x="311" y="322"/>
      <point x="321" y="174"/>
      <point x="410" y="68" type="curve"/>
      <point x="421" y="78"/>
      <point x="448" y="95"/>
      <point x="463" y="102" type="curve"/>
      <point x="376" y="202"/>
      <point x="369" y="330"/>
      <point x="369" y="435" type="curve"/>
      <point x="369" y="435"/>
      <point x="311" y="435"/>
    </contour>
    <contour>
      <point x="304" y="392" type="curve"/>
      <point x="289" y="268"/>
      <point x="255" y="166"/>
      <point x="186" y="99" type="curve"/>
      <point x="201" y="92"/>
      <point x="229" y="76"/>
      <point x="241" y="67" type="curve"/>
      <point x="311" y="140"/>
      <point x="352" y="250"/>
      <point x="369" y="385" type="curve"/>
      <point x="369" y="385"/>
      <point x="304" y="392"/>
    </contour>
    <contour>
      <point x="656" y="397" type="curve"/>
      <point x="642" y="276"/>
      <point x="606" y="173"/>
      <point x="539" y="106" type="curve"/>
      <point x="556" y="99"/>
      <point x="584" y="82"/>
      <point x="595" y="73" type="curve"/>
      <point x="663" y="147"/>
      <point x="702" y="257"/>
      <point x="720" y="389" type="curve"/>
      <point x="720" y="389"/>
      <point x="656" y="397"/>
    </contour>
    <contour>
      <point x="594" y="435" type="curve"/>
      <point x="594" y="435"/>
      <point x="594" y="382"/>
      <point x="594" y="382" type="curve"/>
      <point x="594" y="382"/>
      <point x="695" y="382"/>
      <point x="695" y="382" type="curve"/>
      <point x="695" y="382"/>
      <point x="695" y="435"/>
      <point x="695" y="435" type="curve"/>
      <point x="695" y="435"/>
      <point x="594" y="435"/>
    </contour>
    <contour>
      <point x="663" y="435" type="curve"/>
      <point x="663" y="321"/>
      <point x="673" y="175"/>
      <point x="767" y="71" type="curve"/>
      <point x="780" y="81"/>
      <point x="806" y="97"/>
      <point x="822" y="103" type="curve"/>
      <point x="730" y="202"/>
      <point x="722" y="330"/>
      <point x="722" y="435" type="curve"/>
      <point x="722" y="435"/>
      <point x="663" y="435"/>
    </contour>
    <contour>
      <point x="69" y="780" type="curve"/>
      <point x="69" y="780"/>
      <point x="69" y="706"/>
      <point x="69" y="706" type="curve"/>
      <point x="69" y="706"/>
      <point x="936" y="706"/>
      <point x="936" y="706" type="curve"/>
      <point x="936" y="706"/>
      <point x="936" y="780"/>
      <point x="936" y="780" type="curve"/>
      <point x="936" y="780"/>
      <point x="69" y="780"/>
    </contour>
  </outline>
</glyph>
<glyph name="cid62103" format="2">
  <advance height="1000" width="1000"/>
  <unicode hex="5177"/>
  <outline>
    <contour>
      <point x="605" y="84" type="curve"/>
      <point x="715" y="32"/>
      <point x="832" y="-32"/>
      <point x="902" y="-81" type="curve"/>
      <point x="902" y="-81"/>
      <point x="962" y="-25"/>
      <point x="962" y="-25" type="curve"/>
      <point x="887" y="22"/>
      <point x="765" y="86"/>
      <point x="653" y="137" type="curve"/>
      <point x="653" y="137"/>
      <point x="605" y="84"/>
    </contour>
    <contour>
      <point x="52" y="209" type="curve"/>
      <point x="52" y="209"/>
      <point x="52" y="141"/>
      <point x="52" y="141" type="curve"/>
      <point x="52" y="141"/>
      <point x="951" y="141"/>
      <point x="951" y="141" type="curve"/>
      <point x="951" y="141"/>
      <point x="951" y="207"/>
      <point x="951" y="207" type="curve"/>
      <point x="951" y="207"/>
      <point x="52" y="209"/>
    </contour>
    <contour>
      <point x="239" y="644" type="curve"/>
      <point x="239" y="644"/>
      <point x="239" y="578"/>
      <point x="239" y="578" type="curve"/>
      <point x="239" y="578"/>
      <point x="760" y="578"/>
      <point x="760" y="578" type="curve"/>
      <point x="760" y="578"/>
      <point x="760" y="644"/>
      <point x="760" y="644" type="curve"/>
      <point x="760" y="644"/>
      <point x="239" y="644"/>
    </contour>
    <contour>
      <point x="239" y="501" type="curve"/>
      <point x="239" y="501"/>
      <point x="239" y="436"/>
      <point x="239" y="436" type="curve"/>
      <point x="239" y="436"/>
      <point x="760" y="436"/>
      <point x="760" y="436" type="curve"/>
      <point x="760" y="436"/>
      <point x="760" y="501"/>
      <point x="760" y="501" type="curve"/>
      <point x="760" y="501"/>
      <point x="239" y="501"/>
    </contour>
    <contour>
      <point x="239" y="357" type="curve"/>
      <point x="239" y="357"/>
      <point x="239" y="292"/>
      <point x="239" y="292" type="curve"/>
      <point x="239" y="292"/>
      <point x="760" y="292"/>
      <point x="760" y="292" type="curve"/>
      <point x="760" y="292"/>
      <point x="760" y="357"/>
      <point x="760" y="357" type="curve"/>
      <point x="760" y="357"/>
      <point x="239" y="357"/>
    </contour>
    <contour>
      <point x="328" y="133" type="curve"/>
      <point x="266" y="78"/>
      <point x="141" y="12"/>
      <point x="40" y="-26" type="curve"/>
      <point x="57" y="-41"/>
      <point x="82" y="-66"/>
      <point x="95" y="-81" type="curve"/>
      <point x="196" y="-41"/>
      <point x="319" y="26"/>
      <point x="399" y="88" type="curve"/>
      <point x="399" y="88"/>
      <point x="328" y="133"/>
    </contour>
    <contour>
      <point x="212" y="792" type="curve"/>
      <point x="212" y="792"/>
      <point x="212" y="177"/>
      <point x="212" y="177" type="curve"/>
      <point x="212" y="177"/>
      <point x="284" y="177"/>
      <point x="284" y="177" type="curve"/>
      <point x="284" y="177"/>
      <point x="284" y="725"/>
      <point x="284" y="725" type="curve"/>
      <point x="284" y="725"/>
      <point x="727" y="725"/>
      <point x="727" y="725" type="curve"/>
      <point x="727" y="725"/>
      <point x="727" y="177"/>
      <point x="727" y="177" type="curve"/>
      <point x="727" y="177"/>
      <point x="802" y="177"/>
      <point x="802" y="177" type="curve"/>
      <point x="802" y="177"/>
      <point x="802" y="792"/>
      <point x="802" y="792" type="curve"/>
      <point x="802" y="792"/>
      <point x="212" y="792"/>
    </contour>
  </outline>
</glyph>
<glyph name="cid10952" format="2">
  <advance height="1000" width="1000"/>
  <unicode hex="518A"/>
  <outline>
    <contour>
      <point x="139" y="778" type="curve"/>
      <point x="139" y="778"/>
      <point x="139" y="-83"/>
      <point x="139" y="-83" type="curve"/>
      <point x="139" y="-83"/>
      <point x="213" y="-83"/>
      <point x="213" y="-83" type="curve"/>
      <point x="213" y="-83"/>
      <point x="213" y="704"/>
      <point x="213" y="704" type="curve"/>
      <point x="213" y="704"/>
      <point x="837" y="704"/>
      <point x="837" y="704" type="curve"/>
      <point x="837" y="704"/>
      <point x="837" y="778"/>
      <point x="837" y="778" type="curve"/>
      <point x="837" y="778"/>
      <point x="139" y="778"/>
    </contour>
    <contour>
      <point x="799" y="778" type="curve"/>
      <point x="799" y="778"/>
      <point x="799" y="10"/>
      <point x="799" y="10" type="curve"/>
      <point x="799" y="-3"/>
      <point x="795" y="-7"/>
      <point x="783" y="-8" type="curve"/>
      <point x="771" y="-8"/>
      <point x="734" y="-8"/>
      <point x="693" y="-6" type="curve"/>
      <point x="703" y="-27"/>
      <point x="714" y="-61"/>
      <point x="716" y="-80" type="curve"/>
      <point x="775" y="-80"/>
      <point x="815" y="-79"/>
      <point x="840" y="-66" type="curve" smooth="yes"/>
      <point x="865" y="-53"/>
      <point x="873" y="-30"/>
      <point x="873" y="10" type="curve"/>
      <point x="873" y="10"/>
      <point x="873" y="778"/>
      <point x="873" y="778" type="curve"/>
      <point x="873" y="778"/>
      <point x="799" y="778"/>
    </contour>
    <contour>
      <point x="40" y="416" type="curve"/>
      <point x="40" y="416"/>
      <point x="40" y="343"/>
      <point x="40" y="343" type="curve"/>
      <point x="40" y="343"/>
      <point x="963" y="343"/>
      <point x="963" y="343" type="curve"/>
      <point x="963" y="343"/>
      <point x="963" y="416"/>
      <point x="963" y="416" type="curve"/>
      <point x="963" y="416"/>
      <point x="40" y="416"/>
    </contour>
    <contour>
      <point x="354" y="754" type="curve"/>
      <point x="354" y="754"/>
      <point x="354" y="-69"/>
      <point x="354" y="-69" type="curve"/>
      <point x="354" y="-69"/>
      <point x="428" y="-69"/>
      <point x="428" y="-69" type="curve"/>
      <point x="428" y="-69"/>
      <point x="428" y="754"/>
      <point x="428" y="754" type="curve"/>
      <point x="428" y="754"/>
      <point x="354" y="754"/>
    </contour>
    <contour>
      <point x="573" y="754" type="curve"/>
      <point x="573" y="754"/>
      <point x="573" y="-69"/>
      <point x="573" y="-69" type="curve"/>
      <point x="573" y="-69"/>
      <point x="647" y="-69"/>
      <point x="647" y="-69" type="curve"/>
      <point x="647" y="-69"/>
      <point x="647" y="754"/>
      <point x="647" y="754" type="curve"/>
      <point x="647" y="754"/>
      <point x="573" y="754"/>
    </contour>
  </outline>
</glyph>
